G04 #@! TF.GenerationSoftware,KiCad,Pcbnew,(5.1.5)-3*
G04 #@! TF.CreationDate,2020-05-01T14:03:58+02:00*
G04 #@! TF.ProjectId,Arduino_Uno_R3_From_Scratch,41726475-696e-46f5-9f55-6e6f5f52335f,rev?*
G04 #@! TF.SameCoordinates,Original*
G04 #@! TF.FileFunction,Soldermask,Top*
G04 #@! TF.FilePolarity,Negative*
%FSLAX46Y46*%
G04 Gerber Fmt 4.6, Leading zero omitted, Abs format (unit mm)*
G04 Created by KiCad (PCBNEW (5.1.5)-3) date 2020-05-01 14:03:58*
%MOMM*%
%LPD*%
G04 APERTURE LIST*
%ADD10C,0.100000*%
%ADD11O,1.700000X1.700000*%
%ADD12R,1.700000X1.700000*%
%ADD13R,4.900000X3.000000*%
%ADD14R,0.550000X1.500000*%
%ADD15R,1.500000X0.550000*%
%ADD16C,2.000000*%
%ADD17R,2.200000X3.600000*%
%ADD18R,2.235200X1.219200*%
%ADD19R,10.000000X5.000000*%
G04 APERTURE END LIST*
D10*
G36*
X137119505Y-86296204D02*
G01*
X137143773Y-86299804D01*
X137167572Y-86305765D01*
X137190671Y-86314030D01*
X137212850Y-86324520D01*
X137233893Y-86337132D01*
X137253599Y-86351747D01*
X137271777Y-86368223D01*
X137288253Y-86386401D01*
X137302868Y-86406107D01*
X137315480Y-86427150D01*
X137325970Y-86449329D01*
X137334235Y-86472428D01*
X137340196Y-86496227D01*
X137343796Y-86520495D01*
X137345000Y-86544999D01*
X137345000Y-87445001D01*
X137343796Y-87469505D01*
X137340196Y-87493773D01*
X137334235Y-87517572D01*
X137325970Y-87540671D01*
X137315480Y-87562850D01*
X137302868Y-87583893D01*
X137288253Y-87603599D01*
X137271777Y-87621777D01*
X137253599Y-87638253D01*
X137233893Y-87652868D01*
X137212850Y-87665480D01*
X137190671Y-87675970D01*
X137167572Y-87684235D01*
X137143773Y-87690196D01*
X137119505Y-87693796D01*
X137095001Y-87695000D01*
X136444999Y-87695000D01*
X136420495Y-87693796D01*
X136396227Y-87690196D01*
X136372428Y-87684235D01*
X136349329Y-87675970D01*
X136327150Y-87665480D01*
X136306107Y-87652868D01*
X136286401Y-87638253D01*
X136268223Y-87621777D01*
X136251747Y-87603599D01*
X136237132Y-87583893D01*
X136224520Y-87562850D01*
X136214030Y-87540671D01*
X136205765Y-87517572D01*
X136199804Y-87493773D01*
X136196204Y-87469505D01*
X136195000Y-87445001D01*
X136195000Y-86544999D01*
X136196204Y-86520495D01*
X136199804Y-86496227D01*
X136205765Y-86472428D01*
X136214030Y-86449329D01*
X136224520Y-86427150D01*
X136237132Y-86406107D01*
X136251747Y-86386401D01*
X136268223Y-86368223D01*
X136286401Y-86351747D01*
X136306107Y-86337132D01*
X136327150Y-86324520D01*
X136349329Y-86314030D01*
X136372428Y-86305765D01*
X136396227Y-86299804D01*
X136420495Y-86296204D01*
X136444999Y-86295000D01*
X137095001Y-86295000D01*
X137119505Y-86296204D01*
G37*
G36*
X139169505Y-86296204D02*
G01*
X139193773Y-86299804D01*
X139217572Y-86305765D01*
X139240671Y-86314030D01*
X139262850Y-86324520D01*
X139283893Y-86337132D01*
X139303599Y-86351747D01*
X139321777Y-86368223D01*
X139338253Y-86386401D01*
X139352868Y-86406107D01*
X139365480Y-86427150D01*
X139375970Y-86449329D01*
X139384235Y-86472428D01*
X139390196Y-86496227D01*
X139393796Y-86520495D01*
X139395000Y-86544999D01*
X139395000Y-87445001D01*
X139393796Y-87469505D01*
X139390196Y-87493773D01*
X139384235Y-87517572D01*
X139375970Y-87540671D01*
X139365480Y-87562850D01*
X139352868Y-87583893D01*
X139338253Y-87603599D01*
X139321777Y-87621777D01*
X139303599Y-87638253D01*
X139283893Y-87652868D01*
X139262850Y-87665480D01*
X139240671Y-87675970D01*
X139217572Y-87684235D01*
X139193773Y-87690196D01*
X139169505Y-87693796D01*
X139145001Y-87695000D01*
X138494999Y-87695000D01*
X138470495Y-87693796D01*
X138446227Y-87690196D01*
X138422428Y-87684235D01*
X138399329Y-87675970D01*
X138377150Y-87665480D01*
X138356107Y-87652868D01*
X138336401Y-87638253D01*
X138318223Y-87621777D01*
X138301747Y-87603599D01*
X138287132Y-87583893D01*
X138274520Y-87562850D01*
X138264030Y-87540671D01*
X138255765Y-87517572D01*
X138249804Y-87493773D01*
X138246204Y-87469505D01*
X138245000Y-87445001D01*
X138245000Y-86544999D01*
X138246204Y-86520495D01*
X138249804Y-86496227D01*
X138255765Y-86472428D01*
X138264030Y-86449329D01*
X138274520Y-86427150D01*
X138287132Y-86406107D01*
X138301747Y-86386401D01*
X138318223Y-86368223D01*
X138336401Y-86351747D01*
X138356107Y-86337132D01*
X138377150Y-86324520D01*
X138399329Y-86314030D01*
X138422428Y-86305765D01*
X138446227Y-86299804D01*
X138470495Y-86296204D01*
X138494999Y-86295000D01*
X139145001Y-86295000D01*
X139169505Y-86296204D01*
G37*
G36*
X139169505Y-93916204D02*
G01*
X139193773Y-93919804D01*
X139217572Y-93925765D01*
X139240671Y-93934030D01*
X139262850Y-93944520D01*
X139283893Y-93957132D01*
X139303599Y-93971747D01*
X139321777Y-93988223D01*
X139338253Y-94006401D01*
X139352868Y-94026107D01*
X139365480Y-94047150D01*
X139375970Y-94069329D01*
X139384235Y-94092428D01*
X139390196Y-94116227D01*
X139393796Y-94140495D01*
X139395000Y-94164999D01*
X139395000Y-95065001D01*
X139393796Y-95089505D01*
X139390196Y-95113773D01*
X139384235Y-95137572D01*
X139375970Y-95160671D01*
X139365480Y-95182850D01*
X139352868Y-95203893D01*
X139338253Y-95223599D01*
X139321777Y-95241777D01*
X139303599Y-95258253D01*
X139283893Y-95272868D01*
X139262850Y-95285480D01*
X139240671Y-95295970D01*
X139217572Y-95304235D01*
X139193773Y-95310196D01*
X139169505Y-95313796D01*
X139145001Y-95315000D01*
X138494999Y-95315000D01*
X138470495Y-95313796D01*
X138446227Y-95310196D01*
X138422428Y-95304235D01*
X138399329Y-95295970D01*
X138377150Y-95285480D01*
X138356107Y-95272868D01*
X138336401Y-95258253D01*
X138318223Y-95241777D01*
X138301747Y-95223599D01*
X138287132Y-95203893D01*
X138274520Y-95182850D01*
X138264030Y-95160671D01*
X138255765Y-95137572D01*
X138249804Y-95113773D01*
X138246204Y-95089505D01*
X138245000Y-95065001D01*
X138245000Y-94164999D01*
X138246204Y-94140495D01*
X138249804Y-94116227D01*
X138255765Y-94092428D01*
X138264030Y-94069329D01*
X138274520Y-94047150D01*
X138287132Y-94026107D01*
X138301747Y-94006401D01*
X138318223Y-93988223D01*
X138336401Y-93971747D01*
X138356107Y-93957132D01*
X138377150Y-93944520D01*
X138399329Y-93934030D01*
X138422428Y-93925765D01*
X138446227Y-93919804D01*
X138470495Y-93916204D01*
X138494999Y-93915000D01*
X139145001Y-93915000D01*
X139169505Y-93916204D01*
G37*
G36*
X137119505Y-93916204D02*
G01*
X137143773Y-93919804D01*
X137167572Y-93925765D01*
X137190671Y-93934030D01*
X137212850Y-93944520D01*
X137233893Y-93957132D01*
X137253599Y-93971747D01*
X137271777Y-93988223D01*
X137288253Y-94006401D01*
X137302868Y-94026107D01*
X137315480Y-94047150D01*
X137325970Y-94069329D01*
X137334235Y-94092428D01*
X137340196Y-94116227D01*
X137343796Y-94140495D01*
X137345000Y-94164999D01*
X137345000Y-95065001D01*
X137343796Y-95089505D01*
X137340196Y-95113773D01*
X137334235Y-95137572D01*
X137325970Y-95160671D01*
X137315480Y-95182850D01*
X137302868Y-95203893D01*
X137288253Y-95223599D01*
X137271777Y-95241777D01*
X137253599Y-95258253D01*
X137233893Y-95272868D01*
X137212850Y-95285480D01*
X137190671Y-95295970D01*
X137167572Y-95304235D01*
X137143773Y-95310196D01*
X137119505Y-95313796D01*
X137095001Y-95315000D01*
X136444999Y-95315000D01*
X136420495Y-95313796D01*
X136396227Y-95310196D01*
X136372428Y-95304235D01*
X136349329Y-95295970D01*
X136327150Y-95285480D01*
X136306107Y-95272868D01*
X136286401Y-95258253D01*
X136268223Y-95241777D01*
X136251747Y-95223599D01*
X136237132Y-95203893D01*
X136224520Y-95182850D01*
X136214030Y-95160671D01*
X136205765Y-95137572D01*
X136199804Y-95113773D01*
X136196204Y-95089505D01*
X136195000Y-95065001D01*
X136195000Y-94164999D01*
X136196204Y-94140495D01*
X136199804Y-94116227D01*
X136205765Y-94092428D01*
X136214030Y-94069329D01*
X136224520Y-94047150D01*
X136237132Y-94026107D01*
X136251747Y-94006401D01*
X136268223Y-93988223D01*
X136286401Y-93971747D01*
X136306107Y-93957132D01*
X136327150Y-93944520D01*
X136349329Y-93934030D01*
X136372428Y-93925765D01*
X136396227Y-93919804D01*
X136420495Y-93916204D01*
X136444999Y-93915000D01*
X137095001Y-93915000D01*
X137119505Y-93916204D01*
G37*
G36*
X139169505Y-90106204D02*
G01*
X139193773Y-90109804D01*
X139217572Y-90115765D01*
X139240671Y-90124030D01*
X139262850Y-90134520D01*
X139283893Y-90147132D01*
X139303599Y-90161747D01*
X139321777Y-90178223D01*
X139338253Y-90196401D01*
X139352868Y-90216107D01*
X139365480Y-90237150D01*
X139375970Y-90259329D01*
X139384235Y-90282428D01*
X139390196Y-90306227D01*
X139393796Y-90330495D01*
X139395000Y-90354999D01*
X139395000Y-91255001D01*
X139393796Y-91279505D01*
X139390196Y-91303773D01*
X139384235Y-91327572D01*
X139375970Y-91350671D01*
X139365480Y-91372850D01*
X139352868Y-91393893D01*
X139338253Y-91413599D01*
X139321777Y-91431777D01*
X139303599Y-91448253D01*
X139283893Y-91462868D01*
X139262850Y-91475480D01*
X139240671Y-91485970D01*
X139217572Y-91494235D01*
X139193773Y-91500196D01*
X139169505Y-91503796D01*
X139145001Y-91505000D01*
X138494999Y-91505000D01*
X138470495Y-91503796D01*
X138446227Y-91500196D01*
X138422428Y-91494235D01*
X138399329Y-91485970D01*
X138377150Y-91475480D01*
X138356107Y-91462868D01*
X138336401Y-91448253D01*
X138318223Y-91431777D01*
X138301747Y-91413599D01*
X138287132Y-91393893D01*
X138274520Y-91372850D01*
X138264030Y-91350671D01*
X138255765Y-91327572D01*
X138249804Y-91303773D01*
X138246204Y-91279505D01*
X138245000Y-91255001D01*
X138245000Y-90354999D01*
X138246204Y-90330495D01*
X138249804Y-90306227D01*
X138255765Y-90282428D01*
X138264030Y-90259329D01*
X138274520Y-90237150D01*
X138287132Y-90216107D01*
X138301747Y-90196401D01*
X138318223Y-90178223D01*
X138336401Y-90161747D01*
X138356107Y-90147132D01*
X138377150Y-90134520D01*
X138399329Y-90124030D01*
X138422428Y-90115765D01*
X138446227Y-90109804D01*
X138470495Y-90106204D01*
X138494999Y-90105000D01*
X139145001Y-90105000D01*
X139169505Y-90106204D01*
G37*
G36*
X137119505Y-90106204D02*
G01*
X137143773Y-90109804D01*
X137167572Y-90115765D01*
X137190671Y-90124030D01*
X137212850Y-90134520D01*
X137233893Y-90147132D01*
X137253599Y-90161747D01*
X137271777Y-90178223D01*
X137288253Y-90196401D01*
X137302868Y-90216107D01*
X137315480Y-90237150D01*
X137325970Y-90259329D01*
X137334235Y-90282428D01*
X137340196Y-90306227D01*
X137343796Y-90330495D01*
X137345000Y-90354999D01*
X137345000Y-91255001D01*
X137343796Y-91279505D01*
X137340196Y-91303773D01*
X137334235Y-91327572D01*
X137325970Y-91350671D01*
X137315480Y-91372850D01*
X137302868Y-91393893D01*
X137288253Y-91413599D01*
X137271777Y-91431777D01*
X137253599Y-91448253D01*
X137233893Y-91462868D01*
X137212850Y-91475480D01*
X137190671Y-91485970D01*
X137167572Y-91494235D01*
X137143773Y-91500196D01*
X137119505Y-91503796D01*
X137095001Y-91505000D01*
X136444999Y-91505000D01*
X136420495Y-91503796D01*
X136396227Y-91500196D01*
X136372428Y-91494235D01*
X136349329Y-91485970D01*
X136327150Y-91475480D01*
X136306107Y-91462868D01*
X136286401Y-91448253D01*
X136268223Y-91431777D01*
X136251747Y-91413599D01*
X136237132Y-91393893D01*
X136224520Y-91372850D01*
X136214030Y-91350671D01*
X136205765Y-91327572D01*
X136199804Y-91303773D01*
X136196204Y-91279505D01*
X136195000Y-91255001D01*
X136195000Y-90354999D01*
X136196204Y-90330495D01*
X136199804Y-90306227D01*
X136205765Y-90282428D01*
X136214030Y-90259329D01*
X136224520Y-90237150D01*
X136237132Y-90216107D01*
X136251747Y-90196401D01*
X136268223Y-90178223D01*
X136286401Y-90161747D01*
X136306107Y-90147132D01*
X136327150Y-90134520D01*
X136349329Y-90124030D01*
X136372428Y-90115765D01*
X136396227Y-90109804D01*
X136420495Y-90106204D01*
X136444999Y-90105000D01*
X137095001Y-90105000D01*
X137119505Y-90106204D01*
G37*
D11*
X158750000Y-73660000D03*
X156210000Y-73660000D03*
X153670000Y-73660000D03*
X151130000Y-73660000D03*
X148590000Y-73660000D03*
X146050000Y-73660000D03*
X143510000Y-73660000D03*
D12*
X140970000Y-73660000D03*
D11*
X130810000Y-83185000D03*
X130810000Y-80645000D03*
X130810000Y-78105000D03*
X130810000Y-75565000D03*
X130810000Y-73025000D03*
D12*
X130810000Y-70485000D03*
D10*
G36*
X137119505Y-95821204D02*
G01*
X137143773Y-95824804D01*
X137167572Y-95830765D01*
X137190671Y-95839030D01*
X137212850Y-95849520D01*
X137233893Y-95862132D01*
X137253599Y-95876747D01*
X137271777Y-95893223D01*
X137288253Y-95911401D01*
X137302868Y-95931107D01*
X137315480Y-95952150D01*
X137325970Y-95974329D01*
X137334235Y-95997428D01*
X137340196Y-96021227D01*
X137343796Y-96045495D01*
X137345000Y-96069999D01*
X137345000Y-96970001D01*
X137343796Y-96994505D01*
X137340196Y-97018773D01*
X137334235Y-97042572D01*
X137325970Y-97065671D01*
X137315480Y-97087850D01*
X137302868Y-97108893D01*
X137288253Y-97128599D01*
X137271777Y-97146777D01*
X137253599Y-97163253D01*
X137233893Y-97177868D01*
X137212850Y-97190480D01*
X137190671Y-97200970D01*
X137167572Y-97209235D01*
X137143773Y-97215196D01*
X137119505Y-97218796D01*
X137095001Y-97220000D01*
X136444999Y-97220000D01*
X136420495Y-97218796D01*
X136396227Y-97215196D01*
X136372428Y-97209235D01*
X136349329Y-97200970D01*
X136327150Y-97190480D01*
X136306107Y-97177868D01*
X136286401Y-97163253D01*
X136268223Y-97146777D01*
X136251747Y-97128599D01*
X136237132Y-97108893D01*
X136224520Y-97087850D01*
X136214030Y-97065671D01*
X136205765Y-97042572D01*
X136199804Y-97018773D01*
X136196204Y-96994505D01*
X136195000Y-96970001D01*
X136195000Y-96069999D01*
X136196204Y-96045495D01*
X136199804Y-96021227D01*
X136205765Y-95997428D01*
X136214030Y-95974329D01*
X136224520Y-95952150D01*
X136237132Y-95931107D01*
X136251747Y-95911401D01*
X136268223Y-95893223D01*
X136286401Y-95876747D01*
X136306107Y-95862132D01*
X136327150Y-95849520D01*
X136349329Y-95839030D01*
X136372428Y-95830765D01*
X136396227Y-95824804D01*
X136420495Y-95821204D01*
X136444999Y-95820000D01*
X137095001Y-95820000D01*
X137119505Y-95821204D01*
G37*
G36*
X139169505Y-95821204D02*
G01*
X139193773Y-95824804D01*
X139217572Y-95830765D01*
X139240671Y-95839030D01*
X139262850Y-95849520D01*
X139283893Y-95862132D01*
X139303599Y-95876747D01*
X139321777Y-95893223D01*
X139338253Y-95911401D01*
X139352868Y-95931107D01*
X139365480Y-95952150D01*
X139375970Y-95974329D01*
X139384235Y-95997428D01*
X139390196Y-96021227D01*
X139393796Y-96045495D01*
X139395000Y-96069999D01*
X139395000Y-96970001D01*
X139393796Y-96994505D01*
X139390196Y-97018773D01*
X139384235Y-97042572D01*
X139375970Y-97065671D01*
X139365480Y-97087850D01*
X139352868Y-97108893D01*
X139338253Y-97128599D01*
X139321777Y-97146777D01*
X139303599Y-97163253D01*
X139283893Y-97177868D01*
X139262850Y-97190480D01*
X139240671Y-97200970D01*
X139217572Y-97209235D01*
X139193773Y-97215196D01*
X139169505Y-97218796D01*
X139145001Y-97220000D01*
X138494999Y-97220000D01*
X138470495Y-97218796D01*
X138446227Y-97215196D01*
X138422428Y-97209235D01*
X138399329Y-97200970D01*
X138377150Y-97190480D01*
X138356107Y-97177868D01*
X138336401Y-97163253D01*
X138318223Y-97146777D01*
X138301747Y-97128599D01*
X138287132Y-97108893D01*
X138274520Y-97087850D01*
X138264030Y-97065671D01*
X138255765Y-97042572D01*
X138249804Y-97018773D01*
X138246204Y-96994505D01*
X138245000Y-96970001D01*
X138245000Y-96069999D01*
X138246204Y-96045495D01*
X138249804Y-96021227D01*
X138255765Y-95997428D01*
X138264030Y-95974329D01*
X138274520Y-95952150D01*
X138287132Y-95931107D01*
X138301747Y-95911401D01*
X138318223Y-95893223D01*
X138336401Y-95876747D01*
X138356107Y-95862132D01*
X138377150Y-95849520D01*
X138399329Y-95839030D01*
X138422428Y-95830765D01*
X138446227Y-95824804D01*
X138470495Y-95821204D01*
X138494999Y-95820000D01*
X139145001Y-95820000D01*
X139169505Y-95821204D01*
G37*
G36*
X137119505Y-88201204D02*
G01*
X137143773Y-88204804D01*
X137167572Y-88210765D01*
X137190671Y-88219030D01*
X137212850Y-88229520D01*
X137233893Y-88242132D01*
X137253599Y-88256747D01*
X137271777Y-88273223D01*
X137288253Y-88291401D01*
X137302868Y-88311107D01*
X137315480Y-88332150D01*
X137325970Y-88354329D01*
X137334235Y-88377428D01*
X137340196Y-88401227D01*
X137343796Y-88425495D01*
X137345000Y-88449999D01*
X137345000Y-89350001D01*
X137343796Y-89374505D01*
X137340196Y-89398773D01*
X137334235Y-89422572D01*
X137325970Y-89445671D01*
X137315480Y-89467850D01*
X137302868Y-89488893D01*
X137288253Y-89508599D01*
X137271777Y-89526777D01*
X137253599Y-89543253D01*
X137233893Y-89557868D01*
X137212850Y-89570480D01*
X137190671Y-89580970D01*
X137167572Y-89589235D01*
X137143773Y-89595196D01*
X137119505Y-89598796D01*
X137095001Y-89600000D01*
X136444999Y-89600000D01*
X136420495Y-89598796D01*
X136396227Y-89595196D01*
X136372428Y-89589235D01*
X136349329Y-89580970D01*
X136327150Y-89570480D01*
X136306107Y-89557868D01*
X136286401Y-89543253D01*
X136268223Y-89526777D01*
X136251747Y-89508599D01*
X136237132Y-89488893D01*
X136224520Y-89467850D01*
X136214030Y-89445671D01*
X136205765Y-89422572D01*
X136199804Y-89398773D01*
X136196204Y-89374505D01*
X136195000Y-89350001D01*
X136195000Y-88449999D01*
X136196204Y-88425495D01*
X136199804Y-88401227D01*
X136205765Y-88377428D01*
X136214030Y-88354329D01*
X136224520Y-88332150D01*
X136237132Y-88311107D01*
X136251747Y-88291401D01*
X136268223Y-88273223D01*
X136286401Y-88256747D01*
X136306107Y-88242132D01*
X136327150Y-88229520D01*
X136349329Y-88219030D01*
X136372428Y-88210765D01*
X136396227Y-88204804D01*
X136420495Y-88201204D01*
X136444999Y-88200000D01*
X137095001Y-88200000D01*
X137119505Y-88201204D01*
G37*
G36*
X139169505Y-88201204D02*
G01*
X139193773Y-88204804D01*
X139217572Y-88210765D01*
X139240671Y-88219030D01*
X139262850Y-88229520D01*
X139283893Y-88242132D01*
X139303599Y-88256747D01*
X139321777Y-88273223D01*
X139338253Y-88291401D01*
X139352868Y-88311107D01*
X139365480Y-88332150D01*
X139375970Y-88354329D01*
X139384235Y-88377428D01*
X139390196Y-88401227D01*
X139393796Y-88425495D01*
X139395000Y-88449999D01*
X139395000Y-89350001D01*
X139393796Y-89374505D01*
X139390196Y-89398773D01*
X139384235Y-89422572D01*
X139375970Y-89445671D01*
X139365480Y-89467850D01*
X139352868Y-89488893D01*
X139338253Y-89508599D01*
X139321777Y-89526777D01*
X139303599Y-89543253D01*
X139283893Y-89557868D01*
X139262850Y-89570480D01*
X139240671Y-89580970D01*
X139217572Y-89589235D01*
X139193773Y-89595196D01*
X139169505Y-89598796D01*
X139145001Y-89600000D01*
X138494999Y-89600000D01*
X138470495Y-89598796D01*
X138446227Y-89595196D01*
X138422428Y-89589235D01*
X138399329Y-89580970D01*
X138377150Y-89570480D01*
X138356107Y-89557868D01*
X138336401Y-89543253D01*
X138318223Y-89526777D01*
X138301747Y-89508599D01*
X138287132Y-89488893D01*
X138274520Y-89467850D01*
X138264030Y-89445671D01*
X138255765Y-89422572D01*
X138249804Y-89398773D01*
X138246204Y-89374505D01*
X138245000Y-89350001D01*
X138245000Y-88449999D01*
X138246204Y-88425495D01*
X138249804Y-88401227D01*
X138255765Y-88377428D01*
X138264030Y-88354329D01*
X138274520Y-88332150D01*
X138287132Y-88311107D01*
X138301747Y-88291401D01*
X138318223Y-88273223D01*
X138336401Y-88256747D01*
X138356107Y-88242132D01*
X138377150Y-88229520D01*
X138399329Y-88219030D01*
X138422428Y-88210765D01*
X138446227Y-88204804D01*
X138470495Y-88201204D01*
X138494999Y-88200000D01*
X139145001Y-88200000D01*
X139169505Y-88201204D01*
G37*
G36*
X137119505Y-92011204D02*
G01*
X137143773Y-92014804D01*
X137167572Y-92020765D01*
X137190671Y-92029030D01*
X137212850Y-92039520D01*
X137233893Y-92052132D01*
X137253599Y-92066747D01*
X137271777Y-92083223D01*
X137288253Y-92101401D01*
X137302868Y-92121107D01*
X137315480Y-92142150D01*
X137325970Y-92164329D01*
X137334235Y-92187428D01*
X137340196Y-92211227D01*
X137343796Y-92235495D01*
X137345000Y-92259999D01*
X137345000Y-93160001D01*
X137343796Y-93184505D01*
X137340196Y-93208773D01*
X137334235Y-93232572D01*
X137325970Y-93255671D01*
X137315480Y-93277850D01*
X137302868Y-93298893D01*
X137288253Y-93318599D01*
X137271777Y-93336777D01*
X137253599Y-93353253D01*
X137233893Y-93367868D01*
X137212850Y-93380480D01*
X137190671Y-93390970D01*
X137167572Y-93399235D01*
X137143773Y-93405196D01*
X137119505Y-93408796D01*
X137095001Y-93410000D01*
X136444999Y-93410000D01*
X136420495Y-93408796D01*
X136396227Y-93405196D01*
X136372428Y-93399235D01*
X136349329Y-93390970D01*
X136327150Y-93380480D01*
X136306107Y-93367868D01*
X136286401Y-93353253D01*
X136268223Y-93336777D01*
X136251747Y-93318599D01*
X136237132Y-93298893D01*
X136224520Y-93277850D01*
X136214030Y-93255671D01*
X136205765Y-93232572D01*
X136199804Y-93208773D01*
X136196204Y-93184505D01*
X136195000Y-93160001D01*
X136195000Y-92259999D01*
X136196204Y-92235495D01*
X136199804Y-92211227D01*
X136205765Y-92187428D01*
X136214030Y-92164329D01*
X136224520Y-92142150D01*
X136237132Y-92121107D01*
X136251747Y-92101401D01*
X136268223Y-92083223D01*
X136286401Y-92066747D01*
X136306107Y-92052132D01*
X136327150Y-92039520D01*
X136349329Y-92029030D01*
X136372428Y-92020765D01*
X136396227Y-92014804D01*
X136420495Y-92011204D01*
X136444999Y-92010000D01*
X137095001Y-92010000D01*
X137119505Y-92011204D01*
G37*
G36*
X139169505Y-92011204D02*
G01*
X139193773Y-92014804D01*
X139217572Y-92020765D01*
X139240671Y-92029030D01*
X139262850Y-92039520D01*
X139283893Y-92052132D01*
X139303599Y-92066747D01*
X139321777Y-92083223D01*
X139338253Y-92101401D01*
X139352868Y-92121107D01*
X139365480Y-92142150D01*
X139375970Y-92164329D01*
X139384235Y-92187428D01*
X139390196Y-92211227D01*
X139393796Y-92235495D01*
X139395000Y-92259999D01*
X139395000Y-93160001D01*
X139393796Y-93184505D01*
X139390196Y-93208773D01*
X139384235Y-93232572D01*
X139375970Y-93255671D01*
X139365480Y-93277850D01*
X139352868Y-93298893D01*
X139338253Y-93318599D01*
X139321777Y-93336777D01*
X139303599Y-93353253D01*
X139283893Y-93367868D01*
X139262850Y-93380480D01*
X139240671Y-93390970D01*
X139217572Y-93399235D01*
X139193773Y-93405196D01*
X139169505Y-93408796D01*
X139145001Y-93410000D01*
X138494999Y-93410000D01*
X138470495Y-93408796D01*
X138446227Y-93405196D01*
X138422428Y-93399235D01*
X138399329Y-93390970D01*
X138377150Y-93380480D01*
X138356107Y-93367868D01*
X138336401Y-93353253D01*
X138318223Y-93336777D01*
X138301747Y-93318599D01*
X138287132Y-93298893D01*
X138274520Y-93277850D01*
X138264030Y-93255671D01*
X138255765Y-93232572D01*
X138249804Y-93208773D01*
X138246204Y-93184505D01*
X138245000Y-93160001D01*
X138245000Y-92259999D01*
X138246204Y-92235495D01*
X138249804Y-92211227D01*
X138255765Y-92187428D01*
X138264030Y-92164329D01*
X138274520Y-92142150D01*
X138287132Y-92121107D01*
X138301747Y-92101401D01*
X138318223Y-92083223D01*
X138336401Y-92066747D01*
X138356107Y-92052132D01*
X138377150Y-92039520D01*
X138399329Y-92029030D01*
X138422428Y-92020765D01*
X138446227Y-92014804D01*
X138470495Y-92011204D01*
X138494999Y-92010000D01*
X139145001Y-92010000D01*
X139169505Y-92011204D01*
G37*
D13*
X148115000Y-91440000D03*
X155415000Y-91440000D03*
D10*
G36*
X151089505Y-95186204D02*
G01*
X151113773Y-95189804D01*
X151137572Y-95195765D01*
X151160671Y-95204030D01*
X151182850Y-95214520D01*
X151203893Y-95227132D01*
X151223599Y-95241747D01*
X151241777Y-95258223D01*
X151258253Y-95276401D01*
X151272868Y-95296107D01*
X151285480Y-95317150D01*
X151295970Y-95339329D01*
X151304235Y-95362428D01*
X151310196Y-95386227D01*
X151313796Y-95410495D01*
X151315000Y-95434999D01*
X151315000Y-96335001D01*
X151313796Y-96359505D01*
X151310196Y-96383773D01*
X151304235Y-96407572D01*
X151295970Y-96430671D01*
X151285480Y-96452850D01*
X151272868Y-96473893D01*
X151258253Y-96493599D01*
X151241777Y-96511777D01*
X151223599Y-96528253D01*
X151203893Y-96542868D01*
X151182850Y-96555480D01*
X151160671Y-96565970D01*
X151137572Y-96574235D01*
X151113773Y-96580196D01*
X151089505Y-96583796D01*
X151065001Y-96585000D01*
X150414999Y-96585000D01*
X150390495Y-96583796D01*
X150366227Y-96580196D01*
X150342428Y-96574235D01*
X150319329Y-96565970D01*
X150297150Y-96555480D01*
X150276107Y-96542868D01*
X150256401Y-96528253D01*
X150238223Y-96511777D01*
X150221747Y-96493599D01*
X150207132Y-96473893D01*
X150194520Y-96452850D01*
X150184030Y-96430671D01*
X150175765Y-96407572D01*
X150169804Y-96383773D01*
X150166204Y-96359505D01*
X150165000Y-96335001D01*
X150165000Y-95434999D01*
X150166204Y-95410495D01*
X150169804Y-95386227D01*
X150175765Y-95362428D01*
X150184030Y-95339329D01*
X150194520Y-95317150D01*
X150207132Y-95296107D01*
X150221747Y-95276401D01*
X150238223Y-95258223D01*
X150256401Y-95241747D01*
X150276107Y-95227132D01*
X150297150Y-95214520D01*
X150319329Y-95204030D01*
X150342428Y-95195765D01*
X150366227Y-95189804D01*
X150390495Y-95186204D01*
X150414999Y-95185000D01*
X151065001Y-95185000D01*
X151089505Y-95186204D01*
G37*
G36*
X153139505Y-95186204D02*
G01*
X153163773Y-95189804D01*
X153187572Y-95195765D01*
X153210671Y-95204030D01*
X153232850Y-95214520D01*
X153253893Y-95227132D01*
X153273599Y-95241747D01*
X153291777Y-95258223D01*
X153308253Y-95276401D01*
X153322868Y-95296107D01*
X153335480Y-95317150D01*
X153345970Y-95339329D01*
X153354235Y-95362428D01*
X153360196Y-95386227D01*
X153363796Y-95410495D01*
X153365000Y-95434999D01*
X153365000Y-96335001D01*
X153363796Y-96359505D01*
X153360196Y-96383773D01*
X153354235Y-96407572D01*
X153345970Y-96430671D01*
X153335480Y-96452850D01*
X153322868Y-96473893D01*
X153308253Y-96493599D01*
X153291777Y-96511777D01*
X153273599Y-96528253D01*
X153253893Y-96542868D01*
X153232850Y-96555480D01*
X153210671Y-96565970D01*
X153187572Y-96574235D01*
X153163773Y-96580196D01*
X153139505Y-96583796D01*
X153115001Y-96585000D01*
X152464999Y-96585000D01*
X152440495Y-96583796D01*
X152416227Y-96580196D01*
X152392428Y-96574235D01*
X152369329Y-96565970D01*
X152347150Y-96555480D01*
X152326107Y-96542868D01*
X152306401Y-96528253D01*
X152288223Y-96511777D01*
X152271747Y-96493599D01*
X152257132Y-96473893D01*
X152244520Y-96452850D01*
X152234030Y-96430671D01*
X152225765Y-96407572D01*
X152219804Y-96383773D01*
X152216204Y-96359505D01*
X152215000Y-96335001D01*
X152215000Y-95434999D01*
X152216204Y-95410495D01*
X152219804Y-95386227D01*
X152225765Y-95362428D01*
X152234030Y-95339329D01*
X152244520Y-95317150D01*
X152257132Y-95296107D01*
X152271747Y-95276401D01*
X152288223Y-95258223D01*
X152306401Y-95241747D01*
X152326107Y-95227132D01*
X152347150Y-95214520D01*
X152369329Y-95204030D01*
X152392428Y-95195765D01*
X152416227Y-95189804D01*
X152440495Y-95186204D01*
X152464999Y-95185000D01*
X153115001Y-95185000D01*
X153139505Y-95186204D01*
G37*
G36*
X147034505Y-95186204D02*
G01*
X147058773Y-95189804D01*
X147082572Y-95195765D01*
X147105671Y-95204030D01*
X147127850Y-95214520D01*
X147148893Y-95227132D01*
X147168599Y-95241747D01*
X147186777Y-95258223D01*
X147203253Y-95276401D01*
X147217868Y-95296107D01*
X147230480Y-95317150D01*
X147240970Y-95339329D01*
X147249235Y-95362428D01*
X147255196Y-95386227D01*
X147258796Y-95410495D01*
X147260000Y-95434999D01*
X147260000Y-96335001D01*
X147258796Y-96359505D01*
X147255196Y-96383773D01*
X147249235Y-96407572D01*
X147240970Y-96430671D01*
X147230480Y-96452850D01*
X147217868Y-96473893D01*
X147203253Y-96493599D01*
X147186777Y-96511777D01*
X147168599Y-96528253D01*
X147148893Y-96542868D01*
X147127850Y-96555480D01*
X147105671Y-96565970D01*
X147082572Y-96574235D01*
X147058773Y-96580196D01*
X147034505Y-96583796D01*
X147010001Y-96585000D01*
X146359999Y-96585000D01*
X146335495Y-96583796D01*
X146311227Y-96580196D01*
X146287428Y-96574235D01*
X146264329Y-96565970D01*
X146242150Y-96555480D01*
X146221107Y-96542868D01*
X146201401Y-96528253D01*
X146183223Y-96511777D01*
X146166747Y-96493599D01*
X146152132Y-96473893D01*
X146139520Y-96452850D01*
X146129030Y-96430671D01*
X146120765Y-96407572D01*
X146114804Y-96383773D01*
X146111204Y-96359505D01*
X146110000Y-96335001D01*
X146110000Y-95434999D01*
X146111204Y-95410495D01*
X146114804Y-95386227D01*
X146120765Y-95362428D01*
X146129030Y-95339329D01*
X146139520Y-95317150D01*
X146152132Y-95296107D01*
X146166747Y-95276401D01*
X146183223Y-95258223D01*
X146201401Y-95241747D01*
X146221107Y-95227132D01*
X146242150Y-95214520D01*
X146264329Y-95204030D01*
X146287428Y-95195765D01*
X146311227Y-95189804D01*
X146335495Y-95186204D01*
X146359999Y-95185000D01*
X147010001Y-95185000D01*
X147034505Y-95186204D01*
G37*
G36*
X149084505Y-95186204D02*
G01*
X149108773Y-95189804D01*
X149132572Y-95195765D01*
X149155671Y-95204030D01*
X149177850Y-95214520D01*
X149198893Y-95227132D01*
X149218599Y-95241747D01*
X149236777Y-95258223D01*
X149253253Y-95276401D01*
X149267868Y-95296107D01*
X149280480Y-95317150D01*
X149290970Y-95339329D01*
X149299235Y-95362428D01*
X149305196Y-95386227D01*
X149308796Y-95410495D01*
X149310000Y-95434999D01*
X149310000Y-96335001D01*
X149308796Y-96359505D01*
X149305196Y-96383773D01*
X149299235Y-96407572D01*
X149290970Y-96430671D01*
X149280480Y-96452850D01*
X149267868Y-96473893D01*
X149253253Y-96493599D01*
X149236777Y-96511777D01*
X149218599Y-96528253D01*
X149198893Y-96542868D01*
X149177850Y-96555480D01*
X149155671Y-96565970D01*
X149132572Y-96574235D01*
X149108773Y-96580196D01*
X149084505Y-96583796D01*
X149060001Y-96585000D01*
X148409999Y-96585000D01*
X148385495Y-96583796D01*
X148361227Y-96580196D01*
X148337428Y-96574235D01*
X148314329Y-96565970D01*
X148292150Y-96555480D01*
X148271107Y-96542868D01*
X148251401Y-96528253D01*
X148233223Y-96511777D01*
X148216747Y-96493599D01*
X148202132Y-96473893D01*
X148189520Y-96452850D01*
X148179030Y-96430671D01*
X148170765Y-96407572D01*
X148164804Y-96383773D01*
X148161204Y-96359505D01*
X148160000Y-96335001D01*
X148160000Y-95434999D01*
X148161204Y-95410495D01*
X148164804Y-95386227D01*
X148170765Y-95362428D01*
X148179030Y-95339329D01*
X148189520Y-95317150D01*
X148202132Y-95296107D01*
X148216747Y-95276401D01*
X148233223Y-95258223D01*
X148251401Y-95241747D01*
X148271107Y-95227132D01*
X148292150Y-95214520D01*
X148314329Y-95204030D01*
X148337428Y-95195765D01*
X148361227Y-95189804D01*
X148385495Y-95186204D01*
X148409999Y-95185000D01*
X149060001Y-95185000D01*
X149084505Y-95186204D01*
G37*
G36*
X157584505Y-95186204D02*
G01*
X157608773Y-95189804D01*
X157632572Y-95195765D01*
X157655671Y-95204030D01*
X157677850Y-95214520D01*
X157698893Y-95227132D01*
X157718599Y-95241747D01*
X157736777Y-95258223D01*
X157753253Y-95276401D01*
X157767868Y-95296107D01*
X157780480Y-95317150D01*
X157790970Y-95339329D01*
X157799235Y-95362428D01*
X157805196Y-95386227D01*
X157808796Y-95410495D01*
X157810000Y-95434999D01*
X157810000Y-96335001D01*
X157808796Y-96359505D01*
X157805196Y-96383773D01*
X157799235Y-96407572D01*
X157790970Y-96430671D01*
X157780480Y-96452850D01*
X157767868Y-96473893D01*
X157753253Y-96493599D01*
X157736777Y-96511777D01*
X157718599Y-96528253D01*
X157698893Y-96542868D01*
X157677850Y-96555480D01*
X157655671Y-96565970D01*
X157632572Y-96574235D01*
X157608773Y-96580196D01*
X157584505Y-96583796D01*
X157560001Y-96585000D01*
X156909999Y-96585000D01*
X156885495Y-96583796D01*
X156861227Y-96580196D01*
X156837428Y-96574235D01*
X156814329Y-96565970D01*
X156792150Y-96555480D01*
X156771107Y-96542868D01*
X156751401Y-96528253D01*
X156733223Y-96511777D01*
X156716747Y-96493599D01*
X156702132Y-96473893D01*
X156689520Y-96452850D01*
X156679030Y-96430671D01*
X156670765Y-96407572D01*
X156664804Y-96383773D01*
X156661204Y-96359505D01*
X156660000Y-96335001D01*
X156660000Y-95434999D01*
X156661204Y-95410495D01*
X156664804Y-95386227D01*
X156670765Y-95362428D01*
X156679030Y-95339329D01*
X156689520Y-95317150D01*
X156702132Y-95296107D01*
X156716747Y-95276401D01*
X156733223Y-95258223D01*
X156751401Y-95241747D01*
X156771107Y-95227132D01*
X156792150Y-95214520D01*
X156814329Y-95204030D01*
X156837428Y-95195765D01*
X156861227Y-95189804D01*
X156885495Y-95186204D01*
X156909999Y-95185000D01*
X157560001Y-95185000D01*
X157584505Y-95186204D01*
G37*
G36*
X155534505Y-95186204D02*
G01*
X155558773Y-95189804D01*
X155582572Y-95195765D01*
X155605671Y-95204030D01*
X155627850Y-95214520D01*
X155648893Y-95227132D01*
X155668599Y-95241747D01*
X155686777Y-95258223D01*
X155703253Y-95276401D01*
X155717868Y-95296107D01*
X155730480Y-95317150D01*
X155740970Y-95339329D01*
X155749235Y-95362428D01*
X155755196Y-95386227D01*
X155758796Y-95410495D01*
X155760000Y-95434999D01*
X155760000Y-96335001D01*
X155758796Y-96359505D01*
X155755196Y-96383773D01*
X155749235Y-96407572D01*
X155740970Y-96430671D01*
X155730480Y-96452850D01*
X155717868Y-96473893D01*
X155703253Y-96493599D01*
X155686777Y-96511777D01*
X155668599Y-96528253D01*
X155648893Y-96542868D01*
X155627850Y-96555480D01*
X155605671Y-96565970D01*
X155582572Y-96574235D01*
X155558773Y-96580196D01*
X155534505Y-96583796D01*
X155510001Y-96585000D01*
X154859999Y-96585000D01*
X154835495Y-96583796D01*
X154811227Y-96580196D01*
X154787428Y-96574235D01*
X154764329Y-96565970D01*
X154742150Y-96555480D01*
X154721107Y-96542868D01*
X154701401Y-96528253D01*
X154683223Y-96511777D01*
X154666747Y-96493599D01*
X154652132Y-96473893D01*
X154639520Y-96452850D01*
X154629030Y-96430671D01*
X154620765Y-96407572D01*
X154614804Y-96383773D01*
X154611204Y-96359505D01*
X154610000Y-96335001D01*
X154610000Y-95434999D01*
X154611204Y-95410495D01*
X154614804Y-95386227D01*
X154620765Y-95362428D01*
X154629030Y-95339329D01*
X154639520Y-95317150D01*
X154652132Y-95296107D01*
X154666747Y-95276401D01*
X154683223Y-95258223D01*
X154701401Y-95241747D01*
X154721107Y-95227132D01*
X154742150Y-95214520D01*
X154764329Y-95204030D01*
X154787428Y-95195765D01*
X154811227Y-95189804D01*
X154835495Y-95186204D01*
X154859999Y-95185000D01*
X155510001Y-95185000D01*
X155534505Y-95186204D01*
G37*
D14*
X149600000Y-78250000D03*
X150400000Y-78250000D03*
X151200000Y-78250000D03*
X152000000Y-78250000D03*
X152800000Y-78250000D03*
X153600000Y-78250000D03*
X154400000Y-78250000D03*
X155200000Y-78250000D03*
D15*
X156700000Y-79750000D03*
X156700000Y-80550000D03*
X156700000Y-81350000D03*
X156700000Y-82150000D03*
X156700000Y-82950000D03*
X156700000Y-83750000D03*
X156700000Y-84550000D03*
X156700000Y-85350000D03*
D14*
X155200000Y-86850000D03*
X154400000Y-86850000D03*
X153600000Y-86850000D03*
X152800000Y-86850000D03*
X152000000Y-86850000D03*
X151200000Y-86850000D03*
X150400000Y-86850000D03*
X149600000Y-86850000D03*
D15*
X148100000Y-85350000D03*
X148100000Y-84550000D03*
X148100000Y-83750000D03*
X148100000Y-82950000D03*
X148100000Y-82150000D03*
X148100000Y-81350000D03*
X148100000Y-80550000D03*
X148100000Y-79750000D03*
D16*
X161140000Y-95250000D03*
X161140000Y-90750000D03*
X167640000Y-95250000D03*
X167640000Y-90750000D03*
D10*
G36*
X165574505Y-67761204D02*
G01*
X165598773Y-67764804D01*
X165622572Y-67770765D01*
X165645671Y-67779030D01*
X165667850Y-67789520D01*
X165688893Y-67802132D01*
X165708599Y-67816747D01*
X165726777Y-67833223D01*
X165743253Y-67851401D01*
X165757868Y-67871107D01*
X165770480Y-67892150D01*
X165780970Y-67914329D01*
X165789235Y-67937428D01*
X165795196Y-67961227D01*
X165798796Y-67985495D01*
X165800000Y-68009999D01*
X165800000Y-68660001D01*
X165798796Y-68684505D01*
X165795196Y-68708773D01*
X165789235Y-68732572D01*
X165780970Y-68755671D01*
X165770480Y-68777850D01*
X165757868Y-68798893D01*
X165743253Y-68818599D01*
X165726777Y-68836777D01*
X165708599Y-68853253D01*
X165688893Y-68867868D01*
X165667850Y-68880480D01*
X165645671Y-68890970D01*
X165622572Y-68899235D01*
X165598773Y-68905196D01*
X165574505Y-68908796D01*
X165550001Y-68910000D01*
X164649999Y-68910000D01*
X164625495Y-68908796D01*
X164601227Y-68905196D01*
X164577428Y-68899235D01*
X164554329Y-68890970D01*
X164532150Y-68880480D01*
X164511107Y-68867868D01*
X164491401Y-68853253D01*
X164473223Y-68836777D01*
X164456747Y-68818599D01*
X164442132Y-68798893D01*
X164429520Y-68777850D01*
X164419030Y-68755671D01*
X164410765Y-68732572D01*
X164404804Y-68708773D01*
X164401204Y-68684505D01*
X164400000Y-68660001D01*
X164400000Y-68009999D01*
X164401204Y-67985495D01*
X164404804Y-67961227D01*
X164410765Y-67937428D01*
X164419030Y-67914329D01*
X164429520Y-67892150D01*
X164442132Y-67871107D01*
X164456747Y-67851401D01*
X164473223Y-67833223D01*
X164491401Y-67816747D01*
X164511107Y-67802132D01*
X164532150Y-67789520D01*
X164554329Y-67779030D01*
X164577428Y-67770765D01*
X164601227Y-67764804D01*
X164625495Y-67761204D01*
X164649999Y-67760000D01*
X165550001Y-67760000D01*
X165574505Y-67761204D01*
G37*
G36*
X165574505Y-65711204D02*
G01*
X165598773Y-65714804D01*
X165622572Y-65720765D01*
X165645671Y-65729030D01*
X165667850Y-65739520D01*
X165688893Y-65752132D01*
X165708599Y-65766747D01*
X165726777Y-65783223D01*
X165743253Y-65801401D01*
X165757868Y-65821107D01*
X165770480Y-65842150D01*
X165780970Y-65864329D01*
X165789235Y-65887428D01*
X165795196Y-65911227D01*
X165798796Y-65935495D01*
X165800000Y-65959999D01*
X165800000Y-66610001D01*
X165798796Y-66634505D01*
X165795196Y-66658773D01*
X165789235Y-66682572D01*
X165780970Y-66705671D01*
X165770480Y-66727850D01*
X165757868Y-66748893D01*
X165743253Y-66768599D01*
X165726777Y-66786777D01*
X165708599Y-66803253D01*
X165688893Y-66817868D01*
X165667850Y-66830480D01*
X165645671Y-66840970D01*
X165622572Y-66849235D01*
X165598773Y-66855196D01*
X165574505Y-66858796D01*
X165550001Y-66860000D01*
X164649999Y-66860000D01*
X164625495Y-66858796D01*
X164601227Y-66855196D01*
X164577428Y-66849235D01*
X164554329Y-66840970D01*
X164532150Y-66830480D01*
X164511107Y-66817868D01*
X164491401Y-66803253D01*
X164473223Y-66786777D01*
X164456747Y-66768599D01*
X164442132Y-66748893D01*
X164429520Y-66727850D01*
X164419030Y-66705671D01*
X164410765Y-66682572D01*
X164404804Y-66658773D01*
X164401204Y-66634505D01*
X164400000Y-66610001D01*
X164400000Y-65959999D01*
X164401204Y-65935495D01*
X164404804Y-65911227D01*
X164410765Y-65887428D01*
X164419030Y-65864329D01*
X164429520Y-65842150D01*
X164442132Y-65821107D01*
X164456747Y-65801401D01*
X164473223Y-65783223D01*
X164491401Y-65766747D01*
X164511107Y-65752132D01*
X164532150Y-65739520D01*
X164554329Y-65729030D01*
X164577428Y-65720765D01*
X164601227Y-65714804D01*
X164625495Y-65711204D01*
X164649999Y-65710000D01*
X165550001Y-65710000D01*
X165574505Y-65711204D01*
G37*
G36*
X167479505Y-65711204D02*
G01*
X167503773Y-65714804D01*
X167527572Y-65720765D01*
X167550671Y-65729030D01*
X167572850Y-65739520D01*
X167593893Y-65752132D01*
X167613599Y-65766747D01*
X167631777Y-65783223D01*
X167648253Y-65801401D01*
X167662868Y-65821107D01*
X167675480Y-65842150D01*
X167685970Y-65864329D01*
X167694235Y-65887428D01*
X167700196Y-65911227D01*
X167703796Y-65935495D01*
X167705000Y-65959999D01*
X167705000Y-66610001D01*
X167703796Y-66634505D01*
X167700196Y-66658773D01*
X167694235Y-66682572D01*
X167685970Y-66705671D01*
X167675480Y-66727850D01*
X167662868Y-66748893D01*
X167648253Y-66768599D01*
X167631777Y-66786777D01*
X167613599Y-66803253D01*
X167593893Y-66817868D01*
X167572850Y-66830480D01*
X167550671Y-66840970D01*
X167527572Y-66849235D01*
X167503773Y-66855196D01*
X167479505Y-66858796D01*
X167455001Y-66860000D01*
X166554999Y-66860000D01*
X166530495Y-66858796D01*
X166506227Y-66855196D01*
X166482428Y-66849235D01*
X166459329Y-66840970D01*
X166437150Y-66830480D01*
X166416107Y-66817868D01*
X166396401Y-66803253D01*
X166378223Y-66786777D01*
X166361747Y-66768599D01*
X166347132Y-66748893D01*
X166334520Y-66727850D01*
X166324030Y-66705671D01*
X166315765Y-66682572D01*
X166309804Y-66658773D01*
X166306204Y-66634505D01*
X166305000Y-66610001D01*
X166305000Y-65959999D01*
X166306204Y-65935495D01*
X166309804Y-65911227D01*
X166315765Y-65887428D01*
X166324030Y-65864329D01*
X166334520Y-65842150D01*
X166347132Y-65821107D01*
X166361747Y-65801401D01*
X166378223Y-65783223D01*
X166396401Y-65766747D01*
X166416107Y-65752132D01*
X166437150Y-65739520D01*
X166459329Y-65729030D01*
X166482428Y-65720765D01*
X166506227Y-65714804D01*
X166530495Y-65711204D01*
X166554999Y-65710000D01*
X167455001Y-65710000D01*
X167479505Y-65711204D01*
G37*
G36*
X167479505Y-67761204D02*
G01*
X167503773Y-67764804D01*
X167527572Y-67770765D01*
X167550671Y-67779030D01*
X167572850Y-67789520D01*
X167593893Y-67802132D01*
X167613599Y-67816747D01*
X167631777Y-67833223D01*
X167648253Y-67851401D01*
X167662868Y-67871107D01*
X167675480Y-67892150D01*
X167685970Y-67914329D01*
X167694235Y-67937428D01*
X167700196Y-67961227D01*
X167703796Y-67985495D01*
X167705000Y-68009999D01*
X167705000Y-68660001D01*
X167703796Y-68684505D01*
X167700196Y-68708773D01*
X167694235Y-68732572D01*
X167685970Y-68755671D01*
X167675480Y-68777850D01*
X167662868Y-68798893D01*
X167648253Y-68818599D01*
X167631777Y-68836777D01*
X167613599Y-68853253D01*
X167593893Y-68867868D01*
X167572850Y-68880480D01*
X167550671Y-68890970D01*
X167527572Y-68899235D01*
X167503773Y-68905196D01*
X167479505Y-68908796D01*
X167455001Y-68910000D01*
X166554999Y-68910000D01*
X166530495Y-68908796D01*
X166506227Y-68905196D01*
X166482428Y-68899235D01*
X166459329Y-68890970D01*
X166437150Y-68880480D01*
X166416107Y-68867868D01*
X166396401Y-68853253D01*
X166378223Y-68836777D01*
X166361747Y-68818599D01*
X166347132Y-68798893D01*
X166334520Y-68777850D01*
X166324030Y-68755671D01*
X166315765Y-68732572D01*
X166309804Y-68708773D01*
X166306204Y-68684505D01*
X166305000Y-68660001D01*
X166305000Y-68009999D01*
X166306204Y-67985495D01*
X166309804Y-67961227D01*
X166315765Y-67937428D01*
X166324030Y-67914329D01*
X166334520Y-67892150D01*
X166347132Y-67871107D01*
X166361747Y-67851401D01*
X166378223Y-67833223D01*
X166396401Y-67816747D01*
X166416107Y-67802132D01*
X166437150Y-67789520D01*
X166459329Y-67779030D01*
X166482428Y-67770765D01*
X166506227Y-67764804D01*
X166530495Y-67761204D01*
X166554999Y-67760000D01*
X167455001Y-67760000D01*
X167479505Y-67761204D01*
G37*
D11*
X167640000Y-83820000D03*
X167640000Y-81280000D03*
X165100000Y-83820000D03*
X165100000Y-81280000D03*
X162560000Y-83820000D03*
D12*
X162560000Y-81280000D03*
D10*
G36*
X169384505Y-65711204D02*
G01*
X169408773Y-65714804D01*
X169432572Y-65720765D01*
X169455671Y-65729030D01*
X169477850Y-65739520D01*
X169498893Y-65752132D01*
X169518599Y-65766747D01*
X169536777Y-65783223D01*
X169553253Y-65801401D01*
X169567868Y-65821107D01*
X169580480Y-65842150D01*
X169590970Y-65864329D01*
X169599235Y-65887428D01*
X169605196Y-65911227D01*
X169608796Y-65935495D01*
X169610000Y-65959999D01*
X169610000Y-66610001D01*
X169608796Y-66634505D01*
X169605196Y-66658773D01*
X169599235Y-66682572D01*
X169590970Y-66705671D01*
X169580480Y-66727850D01*
X169567868Y-66748893D01*
X169553253Y-66768599D01*
X169536777Y-66786777D01*
X169518599Y-66803253D01*
X169498893Y-66817868D01*
X169477850Y-66830480D01*
X169455671Y-66840970D01*
X169432572Y-66849235D01*
X169408773Y-66855196D01*
X169384505Y-66858796D01*
X169360001Y-66860000D01*
X168459999Y-66860000D01*
X168435495Y-66858796D01*
X168411227Y-66855196D01*
X168387428Y-66849235D01*
X168364329Y-66840970D01*
X168342150Y-66830480D01*
X168321107Y-66817868D01*
X168301401Y-66803253D01*
X168283223Y-66786777D01*
X168266747Y-66768599D01*
X168252132Y-66748893D01*
X168239520Y-66727850D01*
X168229030Y-66705671D01*
X168220765Y-66682572D01*
X168214804Y-66658773D01*
X168211204Y-66634505D01*
X168210000Y-66610001D01*
X168210000Y-65959999D01*
X168211204Y-65935495D01*
X168214804Y-65911227D01*
X168220765Y-65887428D01*
X168229030Y-65864329D01*
X168239520Y-65842150D01*
X168252132Y-65821107D01*
X168266747Y-65801401D01*
X168283223Y-65783223D01*
X168301401Y-65766747D01*
X168321107Y-65752132D01*
X168342150Y-65739520D01*
X168364329Y-65729030D01*
X168387428Y-65720765D01*
X168411227Y-65714804D01*
X168435495Y-65711204D01*
X168459999Y-65710000D01*
X169360001Y-65710000D01*
X169384505Y-65711204D01*
G37*
G36*
X169384505Y-67761204D02*
G01*
X169408773Y-67764804D01*
X169432572Y-67770765D01*
X169455671Y-67779030D01*
X169477850Y-67789520D01*
X169498893Y-67802132D01*
X169518599Y-67816747D01*
X169536777Y-67833223D01*
X169553253Y-67851401D01*
X169567868Y-67871107D01*
X169580480Y-67892150D01*
X169590970Y-67914329D01*
X169599235Y-67937428D01*
X169605196Y-67961227D01*
X169608796Y-67985495D01*
X169610000Y-68009999D01*
X169610000Y-68660001D01*
X169608796Y-68684505D01*
X169605196Y-68708773D01*
X169599235Y-68732572D01*
X169590970Y-68755671D01*
X169580480Y-68777850D01*
X169567868Y-68798893D01*
X169553253Y-68818599D01*
X169536777Y-68836777D01*
X169518599Y-68853253D01*
X169498893Y-68867868D01*
X169477850Y-68880480D01*
X169455671Y-68890970D01*
X169432572Y-68899235D01*
X169408773Y-68905196D01*
X169384505Y-68908796D01*
X169360001Y-68910000D01*
X168459999Y-68910000D01*
X168435495Y-68908796D01*
X168411227Y-68905196D01*
X168387428Y-68899235D01*
X168364329Y-68890970D01*
X168342150Y-68880480D01*
X168321107Y-68867868D01*
X168301401Y-68853253D01*
X168283223Y-68836777D01*
X168266747Y-68818599D01*
X168252132Y-68798893D01*
X168239520Y-68777850D01*
X168229030Y-68755671D01*
X168220765Y-68732572D01*
X168214804Y-68708773D01*
X168211204Y-68684505D01*
X168210000Y-68660001D01*
X168210000Y-68009999D01*
X168211204Y-67985495D01*
X168214804Y-67961227D01*
X168220765Y-67937428D01*
X168229030Y-67914329D01*
X168239520Y-67892150D01*
X168252132Y-67871107D01*
X168266747Y-67851401D01*
X168283223Y-67833223D01*
X168301401Y-67816747D01*
X168321107Y-67802132D01*
X168342150Y-67789520D01*
X168364329Y-67779030D01*
X168387428Y-67770765D01*
X168411227Y-67764804D01*
X168435495Y-67761204D01*
X168459999Y-67760000D01*
X169360001Y-67760000D01*
X169384505Y-67761204D01*
G37*
D17*
X183439000Y-68580000D03*
D18*
X177241200Y-70891400D03*
X177241200Y-68580000D03*
X177241200Y-66268600D03*
D10*
G36*
X169014505Y-76771204D02*
G01*
X169038773Y-76774804D01*
X169062572Y-76780765D01*
X169085671Y-76789030D01*
X169107850Y-76799520D01*
X169128893Y-76812132D01*
X169148599Y-76826747D01*
X169166777Y-76843223D01*
X169183253Y-76861401D01*
X169197868Y-76881107D01*
X169210480Y-76902150D01*
X169220970Y-76924329D01*
X169229235Y-76947428D01*
X169235196Y-76971227D01*
X169238796Y-76995495D01*
X169240000Y-77019999D01*
X169240000Y-77920001D01*
X169238796Y-77944505D01*
X169235196Y-77968773D01*
X169229235Y-77992572D01*
X169220970Y-78015671D01*
X169210480Y-78037850D01*
X169197868Y-78058893D01*
X169183253Y-78078599D01*
X169166777Y-78096777D01*
X169148599Y-78113253D01*
X169128893Y-78127868D01*
X169107850Y-78140480D01*
X169085671Y-78150970D01*
X169062572Y-78159235D01*
X169038773Y-78165196D01*
X169014505Y-78168796D01*
X168990001Y-78170000D01*
X168339999Y-78170000D01*
X168315495Y-78168796D01*
X168291227Y-78165196D01*
X168267428Y-78159235D01*
X168244329Y-78150970D01*
X168222150Y-78140480D01*
X168201107Y-78127868D01*
X168181401Y-78113253D01*
X168163223Y-78096777D01*
X168146747Y-78078599D01*
X168132132Y-78058893D01*
X168119520Y-78037850D01*
X168109030Y-78015671D01*
X168100765Y-77992572D01*
X168094804Y-77968773D01*
X168091204Y-77944505D01*
X168090000Y-77920001D01*
X168090000Y-77019999D01*
X168091204Y-76995495D01*
X168094804Y-76971227D01*
X168100765Y-76947428D01*
X168109030Y-76924329D01*
X168119520Y-76902150D01*
X168132132Y-76881107D01*
X168146747Y-76861401D01*
X168163223Y-76843223D01*
X168181401Y-76826747D01*
X168201107Y-76812132D01*
X168222150Y-76799520D01*
X168244329Y-76789030D01*
X168267428Y-76780765D01*
X168291227Y-76774804D01*
X168315495Y-76771204D01*
X168339999Y-76770000D01*
X168990001Y-76770000D01*
X169014505Y-76771204D01*
G37*
G36*
X166964505Y-76771204D02*
G01*
X166988773Y-76774804D01*
X167012572Y-76780765D01*
X167035671Y-76789030D01*
X167057850Y-76799520D01*
X167078893Y-76812132D01*
X167098599Y-76826747D01*
X167116777Y-76843223D01*
X167133253Y-76861401D01*
X167147868Y-76881107D01*
X167160480Y-76902150D01*
X167170970Y-76924329D01*
X167179235Y-76947428D01*
X167185196Y-76971227D01*
X167188796Y-76995495D01*
X167190000Y-77019999D01*
X167190000Y-77920001D01*
X167188796Y-77944505D01*
X167185196Y-77968773D01*
X167179235Y-77992572D01*
X167170970Y-78015671D01*
X167160480Y-78037850D01*
X167147868Y-78058893D01*
X167133253Y-78078599D01*
X167116777Y-78096777D01*
X167098599Y-78113253D01*
X167078893Y-78127868D01*
X167057850Y-78140480D01*
X167035671Y-78150970D01*
X167012572Y-78159235D01*
X166988773Y-78165196D01*
X166964505Y-78168796D01*
X166940001Y-78170000D01*
X166289999Y-78170000D01*
X166265495Y-78168796D01*
X166241227Y-78165196D01*
X166217428Y-78159235D01*
X166194329Y-78150970D01*
X166172150Y-78140480D01*
X166151107Y-78127868D01*
X166131401Y-78113253D01*
X166113223Y-78096777D01*
X166096747Y-78078599D01*
X166082132Y-78058893D01*
X166069520Y-78037850D01*
X166059030Y-78015671D01*
X166050765Y-77992572D01*
X166044804Y-77968773D01*
X166041204Y-77944505D01*
X166040000Y-77920001D01*
X166040000Y-77019999D01*
X166041204Y-76995495D01*
X166044804Y-76971227D01*
X166050765Y-76947428D01*
X166059030Y-76924329D01*
X166069520Y-76902150D01*
X166082132Y-76881107D01*
X166096747Y-76861401D01*
X166113223Y-76843223D01*
X166131401Y-76826747D01*
X166151107Y-76812132D01*
X166172150Y-76799520D01*
X166194329Y-76789030D01*
X166217428Y-76780765D01*
X166241227Y-76774804D01*
X166265495Y-76771204D01*
X166289999Y-76770000D01*
X166940001Y-76770000D01*
X166964505Y-76771204D01*
G37*
D19*
X175690000Y-93590000D03*
X175690000Y-87630000D03*
D10*
G36*
X171289505Y-65711204D02*
G01*
X171313773Y-65714804D01*
X171337572Y-65720765D01*
X171360671Y-65729030D01*
X171382850Y-65739520D01*
X171403893Y-65752132D01*
X171423599Y-65766747D01*
X171441777Y-65783223D01*
X171458253Y-65801401D01*
X171472868Y-65821107D01*
X171485480Y-65842150D01*
X171495970Y-65864329D01*
X171504235Y-65887428D01*
X171510196Y-65911227D01*
X171513796Y-65935495D01*
X171515000Y-65959999D01*
X171515000Y-66610001D01*
X171513796Y-66634505D01*
X171510196Y-66658773D01*
X171504235Y-66682572D01*
X171495970Y-66705671D01*
X171485480Y-66727850D01*
X171472868Y-66748893D01*
X171458253Y-66768599D01*
X171441777Y-66786777D01*
X171423599Y-66803253D01*
X171403893Y-66817868D01*
X171382850Y-66830480D01*
X171360671Y-66840970D01*
X171337572Y-66849235D01*
X171313773Y-66855196D01*
X171289505Y-66858796D01*
X171265001Y-66860000D01*
X170364999Y-66860000D01*
X170340495Y-66858796D01*
X170316227Y-66855196D01*
X170292428Y-66849235D01*
X170269329Y-66840970D01*
X170247150Y-66830480D01*
X170226107Y-66817868D01*
X170206401Y-66803253D01*
X170188223Y-66786777D01*
X170171747Y-66768599D01*
X170157132Y-66748893D01*
X170144520Y-66727850D01*
X170134030Y-66705671D01*
X170125765Y-66682572D01*
X170119804Y-66658773D01*
X170116204Y-66634505D01*
X170115000Y-66610001D01*
X170115000Y-65959999D01*
X170116204Y-65935495D01*
X170119804Y-65911227D01*
X170125765Y-65887428D01*
X170134030Y-65864329D01*
X170144520Y-65842150D01*
X170157132Y-65821107D01*
X170171747Y-65801401D01*
X170188223Y-65783223D01*
X170206401Y-65766747D01*
X170226107Y-65752132D01*
X170247150Y-65739520D01*
X170269329Y-65729030D01*
X170292428Y-65720765D01*
X170316227Y-65714804D01*
X170340495Y-65711204D01*
X170364999Y-65710000D01*
X171265001Y-65710000D01*
X171289505Y-65711204D01*
G37*
G36*
X171289505Y-67761204D02*
G01*
X171313773Y-67764804D01*
X171337572Y-67770765D01*
X171360671Y-67779030D01*
X171382850Y-67789520D01*
X171403893Y-67802132D01*
X171423599Y-67816747D01*
X171441777Y-67833223D01*
X171458253Y-67851401D01*
X171472868Y-67871107D01*
X171485480Y-67892150D01*
X171495970Y-67914329D01*
X171504235Y-67937428D01*
X171510196Y-67961227D01*
X171513796Y-67985495D01*
X171515000Y-68009999D01*
X171515000Y-68660001D01*
X171513796Y-68684505D01*
X171510196Y-68708773D01*
X171504235Y-68732572D01*
X171495970Y-68755671D01*
X171485480Y-68777850D01*
X171472868Y-68798893D01*
X171458253Y-68818599D01*
X171441777Y-68836777D01*
X171423599Y-68853253D01*
X171403893Y-68867868D01*
X171382850Y-68880480D01*
X171360671Y-68890970D01*
X171337572Y-68899235D01*
X171313773Y-68905196D01*
X171289505Y-68908796D01*
X171265001Y-68910000D01*
X170364999Y-68910000D01*
X170340495Y-68908796D01*
X170316227Y-68905196D01*
X170292428Y-68899235D01*
X170269329Y-68890970D01*
X170247150Y-68880480D01*
X170226107Y-68867868D01*
X170206401Y-68853253D01*
X170188223Y-68836777D01*
X170171747Y-68818599D01*
X170157132Y-68798893D01*
X170144520Y-68777850D01*
X170134030Y-68755671D01*
X170125765Y-68732572D01*
X170119804Y-68708773D01*
X170116204Y-68684505D01*
X170115000Y-68660001D01*
X170115000Y-68009999D01*
X170116204Y-67985495D01*
X170119804Y-67961227D01*
X170125765Y-67937428D01*
X170134030Y-67914329D01*
X170144520Y-67892150D01*
X170157132Y-67871107D01*
X170171747Y-67851401D01*
X170188223Y-67833223D01*
X170206401Y-67816747D01*
X170226107Y-67802132D01*
X170247150Y-67789520D01*
X170269329Y-67779030D01*
X170292428Y-67770765D01*
X170316227Y-67764804D01*
X170340495Y-67761204D01*
X170364999Y-67760000D01*
X171265001Y-67760000D01*
X171289505Y-67761204D01*
G37*
G36*
X173194505Y-65711204D02*
G01*
X173218773Y-65714804D01*
X173242572Y-65720765D01*
X173265671Y-65729030D01*
X173287850Y-65739520D01*
X173308893Y-65752132D01*
X173328599Y-65766747D01*
X173346777Y-65783223D01*
X173363253Y-65801401D01*
X173377868Y-65821107D01*
X173390480Y-65842150D01*
X173400970Y-65864329D01*
X173409235Y-65887428D01*
X173415196Y-65911227D01*
X173418796Y-65935495D01*
X173420000Y-65959999D01*
X173420000Y-66610001D01*
X173418796Y-66634505D01*
X173415196Y-66658773D01*
X173409235Y-66682572D01*
X173400970Y-66705671D01*
X173390480Y-66727850D01*
X173377868Y-66748893D01*
X173363253Y-66768599D01*
X173346777Y-66786777D01*
X173328599Y-66803253D01*
X173308893Y-66817868D01*
X173287850Y-66830480D01*
X173265671Y-66840970D01*
X173242572Y-66849235D01*
X173218773Y-66855196D01*
X173194505Y-66858796D01*
X173170001Y-66860000D01*
X172269999Y-66860000D01*
X172245495Y-66858796D01*
X172221227Y-66855196D01*
X172197428Y-66849235D01*
X172174329Y-66840970D01*
X172152150Y-66830480D01*
X172131107Y-66817868D01*
X172111401Y-66803253D01*
X172093223Y-66786777D01*
X172076747Y-66768599D01*
X172062132Y-66748893D01*
X172049520Y-66727850D01*
X172039030Y-66705671D01*
X172030765Y-66682572D01*
X172024804Y-66658773D01*
X172021204Y-66634505D01*
X172020000Y-66610001D01*
X172020000Y-65959999D01*
X172021204Y-65935495D01*
X172024804Y-65911227D01*
X172030765Y-65887428D01*
X172039030Y-65864329D01*
X172049520Y-65842150D01*
X172062132Y-65821107D01*
X172076747Y-65801401D01*
X172093223Y-65783223D01*
X172111401Y-65766747D01*
X172131107Y-65752132D01*
X172152150Y-65739520D01*
X172174329Y-65729030D01*
X172197428Y-65720765D01*
X172221227Y-65714804D01*
X172245495Y-65711204D01*
X172269999Y-65710000D01*
X173170001Y-65710000D01*
X173194505Y-65711204D01*
G37*
G36*
X173194505Y-67761204D02*
G01*
X173218773Y-67764804D01*
X173242572Y-67770765D01*
X173265671Y-67779030D01*
X173287850Y-67789520D01*
X173308893Y-67802132D01*
X173328599Y-67816747D01*
X173346777Y-67833223D01*
X173363253Y-67851401D01*
X173377868Y-67871107D01*
X173390480Y-67892150D01*
X173400970Y-67914329D01*
X173409235Y-67937428D01*
X173415196Y-67961227D01*
X173418796Y-67985495D01*
X173420000Y-68009999D01*
X173420000Y-68660001D01*
X173418796Y-68684505D01*
X173415196Y-68708773D01*
X173409235Y-68732572D01*
X173400970Y-68755671D01*
X173390480Y-68777850D01*
X173377868Y-68798893D01*
X173363253Y-68818599D01*
X173346777Y-68836777D01*
X173328599Y-68853253D01*
X173308893Y-68867868D01*
X173287850Y-68880480D01*
X173265671Y-68890970D01*
X173242572Y-68899235D01*
X173218773Y-68905196D01*
X173194505Y-68908796D01*
X173170001Y-68910000D01*
X172269999Y-68910000D01*
X172245495Y-68908796D01*
X172221227Y-68905196D01*
X172197428Y-68899235D01*
X172174329Y-68890970D01*
X172152150Y-68880480D01*
X172131107Y-68867868D01*
X172111401Y-68853253D01*
X172093223Y-68836777D01*
X172076747Y-68818599D01*
X172062132Y-68798893D01*
X172049520Y-68777850D01*
X172039030Y-68755671D01*
X172030765Y-68732572D01*
X172024804Y-68708773D01*
X172021204Y-68684505D01*
X172020000Y-68660001D01*
X172020000Y-68009999D01*
X172021204Y-67985495D01*
X172024804Y-67961227D01*
X172030765Y-67937428D01*
X172039030Y-67914329D01*
X172049520Y-67892150D01*
X172062132Y-67871107D01*
X172076747Y-67851401D01*
X172093223Y-67833223D01*
X172111401Y-67816747D01*
X172131107Y-67802132D01*
X172152150Y-67789520D01*
X172174329Y-67779030D01*
X172197428Y-67770765D01*
X172221227Y-67764804D01*
X172245495Y-67761204D01*
X172269999Y-67760000D01*
X173170001Y-67760000D01*
X173194505Y-67761204D01*
G37*
G36*
X174564504Y-78421204D02*
G01*
X174588773Y-78424804D01*
X174612571Y-78430765D01*
X174635671Y-78439030D01*
X174657849Y-78449520D01*
X174678893Y-78462133D01*
X174698598Y-78476747D01*
X174716777Y-78493223D01*
X174733253Y-78511402D01*
X174747867Y-78531107D01*
X174760480Y-78552151D01*
X174770970Y-78574329D01*
X174779235Y-78597429D01*
X174785196Y-78621227D01*
X174788796Y-78645496D01*
X174790000Y-78670000D01*
X174790000Y-81670000D01*
X174788796Y-81694504D01*
X174785196Y-81718773D01*
X174779235Y-81742571D01*
X174770970Y-81765671D01*
X174760480Y-81787849D01*
X174747867Y-81808893D01*
X174733253Y-81828598D01*
X174716777Y-81846777D01*
X174698598Y-81863253D01*
X174678893Y-81877867D01*
X174657849Y-81890480D01*
X174635671Y-81900970D01*
X174612571Y-81909235D01*
X174588773Y-81915196D01*
X174564504Y-81918796D01*
X174540000Y-81920000D01*
X173440000Y-81920000D01*
X173415496Y-81918796D01*
X173391227Y-81915196D01*
X173367429Y-81909235D01*
X173344329Y-81900970D01*
X173322151Y-81890480D01*
X173301107Y-81877867D01*
X173281402Y-81863253D01*
X173263223Y-81846777D01*
X173246747Y-81828598D01*
X173232133Y-81808893D01*
X173219520Y-81787849D01*
X173209030Y-81765671D01*
X173200765Y-81742571D01*
X173194804Y-81718773D01*
X173191204Y-81694504D01*
X173190000Y-81670000D01*
X173190000Y-78670000D01*
X173191204Y-78645496D01*
X173194804Y-78621227D01*
X173200765Y-78597429D01*
X173209030Y-78574329D01*
X173219520Y-78552151D01*
X173232133Y-78531107D01*
X173246747Y-78511402D01*
X173263223Y-78493223D01*
X173281402Y-78476747D01*
X173301107Y-78462133D01*
X173322151Y-78449520D01*
X173344329Y-78439030D01*
X173367429Y-78430765D01*
X173391227Y-78424804D01*
X173415496Y-78421204D01*
X173440000Y-78420000D01*
X174540000Y-78420000D01*
X174564504Y-78421204D01*
G37*
G36*
X174564504Y-73021204D02*
G01*
X174588773Y-73024804D01*
X174612571Y-73030765D01*
X174635671Y-73039030D01*
X174657849Y-73049520D01*
X174678893Y-73062133D01*
X174698598Y-73076747D01*
X174716777Y-73093223D01*
X174733253Y-73111402D01*
X174747867Y-73131107D01*
X174760480Y-73152151D01*
X174770970Y-73174329D01*
X174779235Y-73197429D01*
X174785196Y-73221227D01*
X174788796Y-73245496D01*
X174790000Y-73270000D01*
X174790000Y-76270000D01*
X174788796Y-76294504D01*
X174785196Y-76318773D01*
X174779235Y-76342571D01*
X174770970Y-76365671D01*
X174760480Y-76387849D01*
X174747867Y-76408893D01*
X174733253Y-76428598D01*
X174716777Y-76446777D01*
X174698598Y-76463253D01*
X174678893Y-76477867D01*
X174657849Y-76490480D01*
X174635671Y-76500970D01*
X174612571Y-76509235D01*
X174588773Y-76515196D01*
X174564504Y-76518796D01*
X174540000Y-76520000D01*
X173440000Y-76520000D01*
X173415496Y-76518796D01*
X173391227Y-76515196D01*
X173367429Y-76509235D01*
X173344329Y-76500970D01*
X173322151Y-76490480D01*
X173301107Y-76477867D01*
X173281402Y-76463253D01*
X173263223Y-76446777D01*
X173246747Y-76428598D01*
X173232133Y-76408893D01*
X173219520Y-76387849D01*
X173209030Y-76365671D01*
X173200765Y-76342571D01*
X173194804Y-76318773D01*
X173191204Y-76294504D01*
X173190000Y-76270000D01*
X173190000Y-73270000D01*
X173191204Y-73245496D01*
X173194804Y-73221227D01*
X173200765Y-73197429D01*
X173209030Y-73174329D01*
X173219520Y-73152151D01*
X173232133Y-73131107D01*
X173246747Y-73111402D01*
X173263223Y-73093223D01*
X173281402Y-73076747D01*
X173301107Y-73062133D01*
X173322151Y-73049520D01*
X173344329Y-73039030D01*
X173367429Y-73030765D01*
X173391227Y-73024804D01*
X173415496Y-73021204D01*
X173440000Y-73020000D01*
X174540000Y-73020000D01*
X174564504Y-73021204D01*
G37*
G36*
X185994504Y-78421204D02*
G01*
X186018773Y-78424804D01*
X186042571Y-78430765D01*
X186065671Y-78439030D01*
X186087849Y-78449520D01*
X186108893Y-78462133D01*
X186128598Y-78476747D01*
X186146777Y-78493223D01*
X186163253Y-78511402D01*
X186177867Y-78531107D01*
X186190480Y-78552151D01*
X186200970Y-78574329D01*
X186209235Y-78597429D01*
X186215196Y-78621227D01*
X186218796Y-78645496D01*
X186220000Y-78670000D01*
X186220000Y-81670000D01*
X186218796Y-81694504D01*
X186215196Y-81718773D01*
X186209235Y-81742571D01*
X186200970Y-81765671D01*
X186190480Y-81787849D01*
X186177867Y-81808893D01*
X186163253Y-81828598D01*
X186146777Y-81846777D01*
X186128598Y-81863253D01*
X186108893Y-81877867D01*
X186087849Y-81890480D01*
X186065671Y-81900970D01*
X186042571Y-81909235D01*
X186018773Y-81915196D01*
X185994504Y-81918796D01*
X185970000Y-81920000D01*
X184870000Y-81920000D01*
X184845496Y-81918796D01*
X184821227Y-81915196D01*
X184797429Y-81909235D01*
X184774329Y-81900970D01*
X184752151Y-81890480D01*
X184731107Y-81877867D01*
X184711402Y-81863253D01*
X184693223Y-81846777D01*
X184676747Y-81828598D01*
X184662133Y-81808893D01*
X184649520Y-81787849D01*
X184639030Y-81765671D01*
X184630765Y-81742571D01*
X184624804Y-81718773D01*
X184621204Y-81694504D01*
X184620000Y-81670000D01*
X184620000Y-78670000D01*
X184621204Y-78645496D01*
X184624804Y-78621227D01*
X184630765Y-78597429D01*
X184639030Y-78574329D01*
X184649520Y-78552151D01*
X184662133Y-78531107D01*
X184676747Y-78511402D01*
X184693223Y-78493223D01*
X184711402Y-78476747D01*
X184731107Y-78462133D01*
X184752151Y-78449520D01*
X184774329Y-78439030D01*
X184797429Y-78430765D01*
X184821227Y-78424804D01*
X184845496Y-78421204D01*
X184870000Y-78420000D01*
X185970000Y-78420000D01*
X185994504Y-78421204D01*
G37*
G36*
X185994504Y-73021204D02*
G01*
X186018773Y-73024804D01*
X186042571Y-73030765D01*
X186065671Y-73039030D01*
X186087849Y-73049520D01*
X186108893Y-73062133D01*
X186128598Y-73076747D01*
X186146777Y-73093223D01*
X186163253Y-73111402D01*
X186177867Y-73131107D01*
X186190480Y-73152151D01*
X186200970Y-73174329D01*
X186209235Y-73197429D01*
X186215196Y-73221227D01*
X186218796Y-73245496D01*
X186220000Y-73270000D01*
X186220000Y-76270000D01*
X186218796Y-76294504D01*
X186215196Y-76318773D01*
X186209235Y-76342571D01*
X186200970Y-76365671D01*
X186190480Y-76387849D01*
X186177867Y-76408893D01*
X186163253Y-76428598D01*
X186146777Y-76446777D01*
X186128598Y-76463253D01*
X186108893Y-76477867D01*
X186087849Y-76490480D01*
X186065671Y-76500970D01*
X186042571Y-76509235D01*
X186018773Y-76515196D01*
X185994504Y-76518796D01*
X185970000Y-76520000D01*
X184870000Y-76520000D01*
X184845496Y-76518796D01*
X184821227Y-76515196D01*
X184797429Y-76509235D01*
X184774329Y-76500970D01*
X184752151Y-76490480D01*
X184731107Y-76477867D01*
X184711402Y-76463253D01*
X184693223Y-76446777D01*
X184676747Y-76428598D01*
X184662133Y-76408893D01*
X184649520Y-76387849D01*
X184639030Y-76365671D01*
X184630765Y-76342571D01*
X184624804Y-76318773D01*
X184621204Y-76294504D01*
X184620000Y-76270000D01*
X184620000Y-73270000D01*
X184621204Y-73245496D01*
X184624804Y-73221227D01*
X184630765Y-73197429D01*
X184639030Y-73174329D01*
X184649520Y-73152151D01*
X184662133Y-73131107D01*
X184676747Y-73111402D01*
X184693223Y-73093223D01*
X184711402Y-73076747D01*
X184731107Y-73062133D01*
X184752151Y-73049520D01*
X184774329Y-73039030D01*
X184797429Y-73030765D01*
X184821227Y-73024804D01*
X184845496Y-73021204D01*
X184870000Y-73020000D01*
X185970000Y-73020000D01*
X185994504Y-73021204D01*
G37*
M02*
