G04 #@! TF.GenerationSoftware,KiCad,Pcbnew,(5.1.5)-3*
G04 #@! TF.CreationDate,2020-05-01T14:03:58+02:00*
G04 #@! TF.ProjectId,Arduino_Uno_R3_From_Scratch,41726475-696e-46f5-9f55-6e6f5f52335f,rev?*
G04 #@! TF.SameCoordinates,Original*
G04 #@! TF.FileFunction,Copper,L1,Top*
G04 #@! TF.FilePolarity,Positive*
%FSLAX46Y46*%
G04 Gerber Fmt 4.6, Leading zero omitted, Abs format (unit mm)*
G04 Created by KiCad (PCBNEW (5.1.5)-3) date 2020-05-01 14:03:58*
%MOMM*%
%LPD*%
G04 APERTURE LIST*
%ADD10C,0.300000*%
%ADD11C,0.150000*%
%ADD12C,0.100000*%
%ADD13O,1.700000X1.700000*%
%ADD14R,1.700000X1.700000*%
%ADD15R,4.900000X3.000000*%
%ADD16R,0.550000X1.500000*%
%ADD17R,1.500000X0.550000*%
%ADD18C,2.000000*%
%ADD19R,2.200000X3.600000*%
%ADD20R,2.235200X1.219200*%
%ADD21R,10.000000X5.000000*%
%ADD22C,0.800000*%
%ADD23C,1.000000*%
%ADD24C,0.250000*%
%ADD25C,0.500000*%
G04 APERTURE END LIST*
D10*
X159428571Y-70567857D02*
X157928571Y-70567857D01*
X159428571Y-69853571D02*
X157928571Y-69853571D01*
X159428571Y-68996428D01*
X157928571Y-68996428D01*
X157928571Y-68496428D02*
X157928571Y-67639285D01*
X159428571Y-68067857D02*
X157928571Y-68067857D01*
X156460000Y-70639285D02*
X156460000Y-69925000D01*
X156888571Y-70782142D02*
X155388571Y-70282142D01*
X156888571Y-69782142D01*
X156888571Y-69282142D02*
X155388571Y-69282142D01*
X155388571Y-68925000D01*
X155460000Y-68710714D01*
X155602857Y-68567857D01*
X155745714Y-68496428D01*
X156031428Y-68425000D01*
X156245714Y-68425000D01*
X156531428Y-68496428D01*
X156674285Y-68567857D01*
X156817142Y-68710714D01*
X156888571Y-68925000D01*
X156888571Y-69282142D01*
X155388571Y-67496428D02*
X155388571Y-67353571D01*
X155460000Y-67210714D01*
X155531428Y-67139285D01*
X155674285Y-67067857D01*
X155960000Y-66996428D01*
X156317142Y-66996428D01*
X156602857Y-67067857D01*
X156745714Y-67139285D01*
X156817142Y-67210714D01*
X156888571Y-67353571D01*
X156888571Y-67496428D01*
X156817142Y-67639285D01*
X156745714Y-67710714D01*
X156602857Y-67782142D01*
X156317142Y-67853571D01*
X155960000Y-67853571D01*
X155674285Y-67782142D01*
X155531428Y-67710714D01*
X155460000Y-67639285D01*
X155388571Y-67496428D01*
X150308571Y-70710714D02*
X151808571Y-69710714D01*
X150308571Y-69710714D02*
X151808571Y-70710714D01*
X151808571Y-69139285D02*
X150308571Y-69139285D01*
X150308571Y-68782142D01*
X150380000Y-68567857D01*
X150522857Y-68425000D01*
X150665714Y-68353571D01*
X150951428Y-68282142D01*
X151165714Y-68282142D01*
X151451428Y-68353571D01*
X151594285Y-68425000D01*
X151737142Y-68567857D01*
X151808571Y-68782142D01*
X151808571Y-69139285D01*
X151380000Y-67710714D02*
X151380000Y-66996428D01*
X151808571Y-67853571D02*
X150308571Y-67353571D01*
X151808571Y-66853571D01*
X152848571Y-70710714D02*
X154348571Y-69710714D01*
X152848571Y-69710714D02*
X154348571Y-70710714D01*
X154205714Y-68282142D02*
X154277142Y-68353571D01*
X154348571Y-68567857D01*
X154348571Y-68710714D01*
X154277142Y-68925000D01*
X154134285Y-69067857D01*
X153991428Y-69139285D01*
X153705714Y-69210714D01*
X153491428Y-69210714D01*
X153205714Y-69139285D01*
X153062857Y-69067857D01*
X152920000Y-68925000D01*
X152848571Y-68710714D01*
X152848571Y-68567857D01*
X152920000Y-68353571D01*
X152991428Y-68282142D01*
X154348571Y-66925000D02*
X154348571Y-67639285D01*
X152848571Y-67639285D01*
X146657142Y-70639285D02*
X146728571Y-70425000D01*
X146728571Y-70067857D01*
X146657142Y-69925000D01*
X146585714Y-69853571D01*
X146442857Y-69782142D01*
X146300000Y-69782142D01*
X146157142Y-69853571D01*
X146085714Y-69925000D01*
X146014285Y-70067857D01*
X145942857Y-70353571D01*
X145871428Y-70496428D01*
X145800000Y-70567857D01*
X145657142Y-70639285D01*
X145514285Y-70639285D01*
X145371428Y-70567857D01*
X145300000Y-70496428D01*
X145228571Y-70353571D01*
X145228571Y-69996428D01*
X145300000Y-69782142D01*
X146728571Y-69139285D02*
X145228571Y-69139285D01*
X145228571Y-68782142D01*
X145300000Y-68567857D01*
X145442857Y-68425000D01*
X145585714Y-68353571D01*
X145871428Y-68282142D01*
X146085714Y-68282142D01*
X146371428Y-68353571D01*
X146514285Y-68425000D01*
X146657142Y-68567857D01*
X146728571Y-68782142D01*
X146728571Y-69139285D01*
X146300000Y-67710714D02*
X146300000Y-66996428D01*
X146728571Y-67853571D02*
X145228571Y-67353571D01*
X146728571Y-66853571D01*
X149197142Y-70639285D02*
X149268571Y-70425000D01*
X149268571Y-70067857D01*
X149197142Y-69925000D01*
X149125714Y-69853571D01*
X148982857Y-69782142D01*
X148840000Y-69782142D01*
X148697142Y-69853571D01*
X148625714Y-69925000D01*
X148554285Y-70067857D01*
X148482857Y-70353571D01*
X148411428Y-70496428D01*
X148340000Y-70567857D01*
X148197142Y-70639285D01*
X148054285Y-70639285D01*
X147911428Y-70567857D01*
X147840000Y-70496428D01*
X147768571Y-70353571D01*
X147768571Y-69996428D01*
X147840000Y-69782142D01*
X149125714Y-68282142D02*
X149197142Y-68353571D01*
X149268571Y-68567857D01*
X149268571Y-68710714D01*
X149197142Y-68925000D01*
X149054285Y-69067857D01*
X148911428Y-69139285D01*
X148625714Y-69210714D01*
X148411428Y-69210714D01*
X148125714Y-69139285D01*
X147982857Y-69067857D01*
X147840000Y-68925000D01*
X147768571Y-68710714D01*
X147768571Y-68567857D01*
X147840000Y-68353571D01*
X147911428Y-68282142D01*
X149268571Y-66925000D02*
X149268571Y-67639285D01*
X147768571Y-67639285D01*
X142760000Y-69782142D02*
X142688571Y-69925000D01*
X142688571Y-70139285D01*
X142760000Y-70353571D01*
X142902857Y-70496428D01*
X143045714Y-70567857D01*
X143331428Y-70639285D01*
X143545714Y-70639285D01*
X143831428Y-70567857D01*
X143974285Y-70496428D01*
X144117142Y-70353571D01*
X144188571Y-70139285D01*
X144188571Y-69996428D01*
X144117142Y-69782142D01*
X144045714Y-69710714D01*
X143545714Y-69710714D01*
X143545714Y-69996428D01*
X144188571Y-69067857D02*
X142688571Y-69067857D01*
X144188571Y-68210714D01*
X142688571Y-68210714D01*
X144188571Y-67496428D02*
X142688571Y-67496428D01*
X142688571Y-67139285D01*
X142760000Y-66925000D01*
X142902857Y-66782142D01*
X143045714Y-66710714D01*
X143331428Y-66639285D01*
X143545714Y-66639285D01*
X143831428Y-66710714D01*
X143974285Y-66782142D01*
X144117142Y-66925000D01*
X144188571Y-67139285D01*
X144188571Y-67496428D01*
X140148571Y-70782142D02*
X141648571Y-70282142D01*
X140148571Y-69782142D01*
X141505714Y-68425000D02*
X141577142Y-68496428D01*
X141648571Y-68710714D01*
X141648571Y-68853571D01*
X141577142Y-69067857D01*
X141434285Y-69210714D01*
X141291428Y-69282142D01*
X141005714Y-69353571D01*
X140791428Y-69353571D01*
X140505714Y-69282142D01*
X140362857Y-69210714D01*
X140220000Y-69067857D01*
X140148571Y-68853571D01*
X140148571Y-68710714D01*
X140220000Y-68496428D01*
X140291428Y-68425000D01*
X141505714Y-66925000D02*
X141577142Y-66996428D01*
X141648571Y-67210714D01*
X141648571Y-67353571D01*
X141577142Y-67567857D01*
X141434285Y-67710714D01*
X141291428Y-67782142D01*
X141005714Y-67853571D01*
X140791428Y-67853571D01*
X140505714Y-67782142D01*
X140362857Y-67710714D01*
X140220000Y-67567857D01*
X140148571Y-67353571D01*
X140148571Y-67210714D01*
X140220000Y-66996428D01*
X140291428Y-66925000D01*
X133830714Y-83792142D02*
X134045000Y-83863571D01*
X134402142Y-83863571D01*
X134545000Y-83792142D01*
X134616428Y-83720714D01*
X134687857Y-83577857D01*
X134687857Y-83435000D01*
X134616428Y-83292142D01*
X134545000Y-83220714D01*
X134402142Y-83149285D01*
X134116428Y-83077857D01*
X133973571Y-83006428D01*
X133902142Y-82935000D01*
X133830714Y-82792142D01*
X133830714Y-82649285D01*
X133902142Y-82506428D01*
X133973571Y-82435000D01*
X134116428Y-82363571D01*
X134473571Y-82363571D01*
X134687857Y-82435000D01*
X135116428Y-82363571D02*
X135973571Y-82363571D01*
X135545000Y-83863571D02*
X135545000Y-82363571D01*
X136402142Y-83435000D02*
X137116428Y-83435000D01*
X136259285Y-83863571D02*
X136759285Y-82363571D01*
X137259285Y-83863571D01*
X137545000Y-82363571D02*
X138402142Y-82363571D01*
X137973571Y-83863571D02*
X137973571Y-82363571D01*
X138902142Y-83077857D02*
X139402142Y-83077857D01*
X139616428Y-83863571D02*
X138902142Y-83863571D01*
X138902142Y-82363571D01*
X139616428Y-82363571D01*
X134759285Y-81323571D02*
X134259285Y-80609285D01*
X133902142Y-81323571D02*
X133902142Y-79823571D01*
X134473571Y-79823571D01*
X134616428Y-79895000D01*
X134687857Y-79966428D01*
X134759285Y-80109285D01*
X134759285Y-80323571D01*
X134687857Y-80466428D01*
X134616428Y-80537857D01*
X134473571Y-80609285D01*
X133902142Y-80609285D01*
X135259285Y-79823571D02*
X136259285Y-81323571D01*
X136259285Y-79823571D02*
X135259285Y-81323571D01*
X136830714Y-81323571D02*
X136830714Y-79823571D01*
X137187857Y-79823571D01*
X137402142Y-79895000D01*
X137545000Y-80037857D01*
X137616428Y-80180714D01*
X137687857Y-80466428D01*
X137687857Y-80680714D01*
X137616428Y-80966428D01*
X137545000Y-81109285D01*
X137402142Y-81252142D01*
X137187857Y-81323571D01*
X136830714Y-81323571D01*
X133687857Y-77283571D02*
X134545000Y-77283571D01*
X134116428Y-78783571D02*
X134116428Y-77283571D01*
X134902142Y-77283571D02*
X135902142Y-78783571D01*
X135902142Y-77283571D02*
X134902142Y-78783571D01*
X136473571Y-78783571D02*
X136473571Y-77283571D01*
X136830714Y-77283571D01*
X137045000Y-77355000D01*
X137187857Y-77497857D01*
X137259285Y-77640714D01*
X137330714Y-77926428D01*
X137330714Y-78140714D01*
X137259285Y-78426428D01*
X137187857Y-78569285D01*
X137045000Y-78712142D01*
X136830714Y-78783571D01*
X136473571Y-78783571D01*
X134687857Y-74815000D02*
X134545000Y-74743571D01*
X134330714Y-74743571D01*
X134116428Y-74815000D01*
X133973571Y-74957857D01*
X133902142Y-75100714D01*
X133830714Y-75386428D01*
X133830714Y-75600714D01*
X133902142Y-75886428D01*
X133973571Y-76029285D01*
X134116428Y-76172142D01*
X134330714Y-76243571D01*
X134473571Y-76243571D01*
X134687857Y-76172142D01*
X134759285Y-76100714D01*
X134759285Y-75600714D01*
X134473571Y-75600714D01*
X135402142Y-76243571D02*
X135402142Y-74743571D01*
X136259285Y-76243571D01*
X136259285Y-74743571D01*
X136973571Y-76243571D02*
X136973571Y-74743571D01*
X137330714Y-74743571D01*
X137545000Y-74815000D01*
X137687857Y-74957857D01*
X137759285Y-75100714D01*
X137830714Y-75386428D01*
X137830714Y-75600714D01*
X137759285Y-75886428D01*
X137687857Y-76029285D01*
X137545000Y-76172142D01*
X137330714Y-76243571D01*
X136973571Y-76243571D01*
X133902142Y-71163571D02*
X133902142Y-69663571D01*
X134759285Y-71163571D02*
X134116428Y-70306428D01*
X134759285Y-69663571D02*
X133902142Y-70520714D01*
X135402142Y-70377857D02*
X135902142Y-70377857D01*
X136116428Y-71163571D02*
X135402142Y-71163571D01*
X135402142Y-69663571D01*
X136116428Y-69663571D01*
X137045000Y-70449285D02*
X137045000Y-71163571D01*
X136545000Y-69663571D02*
X137045000Y-70449285D01*
X137545000Y-69663571D01*
X133687857Y-72203571D02*
X134187857Y-73703571D01*
X134687857Y-72203571D01*
X136045000Y-73560714D02*
X135973571Y-73632142D01*
X135759285Y-73703571D01*
X135616428Y-73703571D01*
X135402142Y-73632142D01*
X135259285Y-73489285D01*
X135187857Y-73346428D01*
X135116428Y-73060714D01*
X135116428Y-72846428D01*
X135187857Y-72560714D01*
X135259285Y-72417857D01*
X135402142Y-72275000D01*
X135616428Y-72203571D01*
X135759285Y-72203571D01*
X135973571Y-72275000D01*
X136045000Y-72346428D01*
X137545000Y-73560714D02*
X137473571Y-73632142D01*
X137259285Y-73703571D01*
X137116428Y-73703571D01*
X136902142Y-73632142D01*
X136759285Y-73489285D01*
X136687857Y-73346428D01*
X136616428Y-73060714D01*
X136616428Y-72846428D01*
X136687857Y-72560714D01*
X136759285Y-72417857D01*
X136902142Y-72275000D01*
X137116428Y-72203571D01*
X137259285Y-72203571D01*
X137473571Y-72275000D01*
X137545000Y-72346428D01*
X133100000Y-97198571D02*
X132385714Y-97198571D01*
X132385714Y-95698571D01*
X134242857Y-95698571D02*
X133957142Y-95698571D01*
X133814285Y-95770000D01*
X133742857Y-95841428D01*
X133600000Y-96055714D01*
X133528571Y-96341428D01*
X133528571Y-96912857D01*
X133600000Y-97055714D01*
X133671428Y-97127142D01*
X133814285Y-97198571D01*
X134100000Y-97198571D01*
X134242857Y-97127142D01*
X134314285Y-97055714D01*
X134385714Y-96912857D01*
X134385714Y-96555714D01*
X134314285Y-96412857D01*
X134242857Y-96341428D01*
X134100000Y-96270000D01*
X133814285Y-96270000D01*
X133671428Y-96341428D01*
X133600000Y-96412857D01*
X133528571Y-96555714D01*
X133100000Y-93388571D02*
X132385714Y-93388571D01*
X132385714Y-91888571D01*
X134314285Y-91888571D02*
X133600000Y-91888571D01*
X133528571Y-92602857D01*
X133600000Y-92531428D01*
X133742857Y-92460000D01*
X134100000Y-92460000D01*
X134242857Y-92531428D01*
X134314285Y-92602857D01*
X134385714Y-92745714D01*
X134385714Y-93102857D01*
X134314285Y-93245714D01*
X134242857Y-93317142D01*
X134100000Y-93388571D01*
X133742857Y-93388571D01*
X133600000Y-93317142D01*
X133528571Y-93245714D01*
X132207142Y-88078571D02*
X133064285Y-88078571D01*
X132635714Y-89578571D02*
X132635714Y-88078571D01*
X133421428Y-88078571D02*
X134421428Y-89578571D01*
X134421428Y-88078571D02*
X133421428Y-89578571D01*
D11*
X183777142Y-86808571D02*
X184277142Y-88308571D01*
X184777142Y-86808571D01*
X185277142Y-88308571D02*
X185277142Y-86808571D01*
X185991428Y-88308571D02*
X185991428Y-86808571D01*
X186848571Y-88308571D01*
X186848571Y-86808571D01*
X184277142Y-92595000D02*
X184134285Y-92523571D01*
X183920000Y-92523571D01*
X183705714Y-92595000D01*
X183562857Y-92737857D01*
X183491428Y-92880714D01*
X183420000Y-93166428D01*
X183420000Y-93380714D01*
X183491428Y-93666428D01*
X183562857Y-93809285D01*
X183705714Y-93952142D01*
X183920000Y-94023571D01*
X184062857Y-94023571D01*
X184277142Y-93952142D01*
X184348571Y-93880714D01*
X184348571Y-93380714D01*
X184062857Y-93380714D01*
X184991428Y-94023571D02*
X184991428Y-92523571D01*
X185848571Y-94023571D01*
X185848571Y-92523571D01*
X186562857Y-94023571D02*
X186562857Y-92523571D01*
X186920000Y-92523571D01*
X187134285Y-92595000D01*
X187277142Y-92737857D01*
X187348571Y-92880714D01*
X187420000Y-93166428D01*
X187420000Y-93380714D01*
X187348571Y-93666428D01*
X187277142Y-93809285D01*
X187134285Y-93952142D01*
X186920000Y-94023571D01*
X186562857Y-94023571D01*
X168728571Y-99738571D02*
X168228571Y-99024285D01*
X167871428Y-99738571D02*
X167871428Y-98238571D01*
X168442857Y-98238571D01*
X168585714Y-98310000D01*
X168657142Y-98381428D01*
X168728571Y-98524285D01*
X168728571Y-98738571D01*
X168657142Y-98881428D01*
X168585714Y-98952857D01*
X168442857Y-99024285D01*
X167871428Y-99024285D01*
X169585714Y-99738571D02*
X169442857Y-99667142D01*
X169371428Y-99595714D01*
X169300000Y-99452857D01*
X169300000Y-99024285D01*
X169371428Y-98881428D01*
X169442857Y-98810000D01*
X169585714Y-98738571D01*
X169800000Y-98738571D01*
X169942857Y-98810000D01*
X170014285Y-98881428D01*
X170085714Y-99024285D01*
X170085714Y-99452857D01*
X170014285Y-99595714D01*
X169942857Y-99667142D01*
X169800000Y-99738571D01*
X169585714Y-99738571D01*
X170728571Y-99738571D02*
X170728571Y-98238571D01*
X170728571Y-98810000D02*
X170871428Y-98738571D01*
X171157142Y-98738571D01*
X171300000Y-98810000D01*
X171371428Y-98881428D01*
X171442857Y-99024285D01*
X171442857Y-99452857D01*
X171371428Y-99595714D01*
X171300000Y-99667142D01*
X171157142Y-99738571D01*
X170871428Y-99738571D01*
X170728571Y-99667142D01*
X172085714Y-99738571D02*
X172085714Y-98738571D01*
X172085714Y-98238571D02*
X172014285Y-98310000D01*
X172085714Y-98381428D01*
X172157142Y-98310000D01*
X172085714Y-98238571D01*
X172085714Y-98381428D01*
X172800000Y-98738571D02*
X172800000Y-99738571D01*
X172800000Y-98881428D02*
X172871428Y-98810000D01*
X173014285Y-98738571D01*
X173228571Y-98738571D01*
X173371428Y-98810000D01*
X173442857Y-98952857D01*
X173442857Y-99738571D01*
X175300000Y-98238571D02*
X175300000Y-99452857D01*
X175371428Y-99595714D01*
X175442857Y-99667142D01*
X175585714Y-99738571D01*
X175871428Y-99738571D01*
X176014285Y-99667142D01*
X176085714Y-99595714D01*
X176157142Y-99452857D01*
X176157142Y-98238571D01*
X176728571Y-98738571D02*
X177085714Y-99738571D01*
X177442857Y-98738571D02*
X177085714Y-99738571D01*
X176942857Y-100095714D01*
X176871428Y-100167142D01*
X176728571Y-100238571D01*
X177800000Y-98738571D02*
X178371428Y-98738571D01*
X178014285Y-98238571D02*
X178014285Y-99524285D01*
X178085714Y-99667142D01*
X178228571Y-99738571D01*
X178371428Y-99738571D01*
X178657142Y-98738571D02*
X179228571Y-98738571D01*
X178871428Y-98238571D02*
X178871428Y-99524285D01*
X178942857Y-99667142D01*
X179085714Y-99738571D01*
X179228571Y-99738571D01*
X180300000Y-99667142D02*
X180157142Y-99738571D01*
X179871428Y-99738571D01*
X179728571Y-99667142D01*
X179657142Y-99524285D01*
X179657142Y-98952857D01*
X179728571Y-98810000D01*
X179871428Y-98738571D01*
X180157142Y-98738571D01*
X180300000Y-98810000D01*
X180371428Y-98952857D01*
X180371428Y-99095714D01*
X179657142Y-99238571D01*
X181014285Y-98738571D02*
X181014285Y-99738571D01*
X181014285Y-98881428D02*
X181085714Y-98810000D01*
X181228571Y-98738571D01*
X181442857Y-98738571D01*
X181585714Y-98810000D01*
X181657142Y-98952857D01*
X181657142Y-99738571D01*
X183014285Y-99738571D02*
X183014285Y-98238571D01*
X183014285Y-99667142D02*
X182871428Y-99738571D01*
X182585714Y-99738571D01*
X182442857Y-99667142D01*
X182371428Y-99595714D01*
X182299999Y-99452857D01*
X182299999Y-99024285D01*
X182371428Y-98881428D01*
X182442857Y-98810000D01*
X182585714Y-98738571D01*
X182871428Y-98738571D01*
X183014285Y-98810000D01*
X184371428Y-99738571D02*
X184371428Y-98952857D01*
X184299999Y-98810000D01*
X184157142Y-98738571D01*
X183871428Y-98738571D01*
X183728571Y-98810000D01*
X184371428Y-99667142D02*
X184228571Y-99738571D01*
X183871428Y-99738571D01*
X183728571Y-99667142D01*
X183657142Y-99524285D01*
X183657142Y-99381428D01*
X183728571Y-99238571D01*
X183871428Y-99167142D01*
X184228571Y-99167142D01*
X184371428Y-99095714D01*
X185657142Y-99667142D02*
X185514285Y-99738571D01*
X185228571Y-99738571D01*
X185085714Y-99667142D01*
X185014285Y-99524285D01*
X185014285Y-98952857D01*
X185085714Y-98810000D01*
X185228571Y-98738571D01*
X185514285Y-98738571D01*
X185657142Y-98810000D01*
X185728571Y-98952857D01*
X185728571Y-99095714D01*
X185014285Y-99238571D01*
X186585714Y-99738571D02*
X186442857Y-99667142D01*
X186371428Y-99524285D01*
X186371428Y-98238571D01*
X187728571Y-99667142D02*
X187585714Y-99738571D01*
X187300000Y-99738571D01*
X187157142Y-99667142D01*
X187085714Y-99524285D01*
X187085714Y-98952857D01*
X187157142Y-98810000D01*
X187300000Y-98738571D01*
X187585714Y-98738571D01*
X187728571Y-98810000D01*
X187800000Y-98952857D01*
X187800000Y-99095714D01*
X187085714Y-99238571D01*
G04 #@! TA.AperFunction,SMDPad,CuDef*
D12*
G36*
X137119505Y-86296204D02*
G01*
X137143773Y-86299804D01*
X137167572Y-86305765D01*
X137190671Y-86314030D01*
X137212850Y-86324520D01*
X137233893Y-86337132D01*
X137253599Y-86351747D01*
X137271777Y-86368223D01*
X137288253Y-86386401D01*
X137302868Y-86406107D01*
X137315480Y-86427150D01*
X137325970Y-86449329D01*
X137334235Y-86472428D01*
X137340196Y-86496227D01*
X137343796Y-86520495D01*
X137345000Y-86544999D01*
X137345000Y-87445001D01*
X137343796Y-87469505D01*
X137340196Y-87493773D01*
X137334235Y-87517572D01*
X137325970Y-87540671D01*
X137315480Y-87562850D01*
X137302868Y-87583893D01*
X137288253Y-87603599D01*
X137271777Y-87621777D01*
X137253599Y-87638253D01*
X137233893Y-87652868D01*
X137212850Y-87665480D01*
X137190671Y-87675970D01*
X137167572Y-87684235D01*
X137143773Y-87690196D01*
X137119505Y-87693796D01*
X137095001Y-87695000D01*
X136444999Y-87695000D01*
X136420495Y-87693796D01*
X136396227Y-87690196D01*
X136372428Y-87684235D01*
X136349329Y-87675970D01*
X136327150Y-87665480D01*
X136306107Y-87652868D01*
X136286401Y-87638253D01*
X136268223Y-87621777D01*
X136251747Y-87603599D01*
X136237132Y-87583893D01*
X136224520Y-87562850D01*
X136214030Y-87540671D01*
X136205765Y-87517572D01*
X136199804Y-87493773D01*
X136196204Y-87469505D01*
X136195000Y-87445001D01*
X136195000Y-86544999D01*
X136196204Y-86520495D01*
X136199804Y-86496227D01*
X136205765Y-86472428D01*
X136214030Y-86449329D01*
X136224520Y-86427150D01*
X136237132Y-86406107D01*
X136251747Y-86386401D01*
X136268223Y-86368223D01*
X136286401Y-86351747D01*
X136306107Y-86337132D01*
X136327150Y-86324520D01*
X136349329Y-86314030D01*
X136372428Y-86305765D01*
X136396227Y-86299804D01*
X136420495Y-86296204D01*
X136444999Y-86295000D01*
X137095001Y-86295000D01*
X137119505Y-86296204D01*
G37*
G04 #@! TD.AperFunction*
G04 #@! TA.AperFunction,SMDPad,CuDef*
G36*
X139169505Y-86296204D02*
G01*
X139193773Y-86299804D01*
X139217572Y-86305765D01*
X139240671Y-86314030D01*
X139262850Y-86324520D01*
X139283893Y-86337132D01*
X139303599Y-86351747D01*
X139321777Y-86368223D01*
X139338253Y-86386401D01*
X139352868Y-86406107D01*
X139365480Y-86427150D01*
X139375970Y-86449329D01*
X139384235Y-86472428D01*
X139390196Y-86496227D01*
X139393796Y-86520495D01*
X139395000Y-86544999D01*
X139395000Y-87445001D01*
X139393796Y-87469505D01*
X139390196Y-87493773D01*
X139384235Y-87517572D01*
X139375970Y-87540671D01*
X139365480Y-87562850D01*
X139352868Y-87583893D01*
X139338253Y-87603599D01*
X139321777Y-87621777D01*
X139303599Y-87638253D01*
X139283893Y-87652868D01*
X139262850Y-87665480D01*
X139240671Y-87675970D01*
X139217572Y-87684235D01*
X139193773Y-87690196D01*
X139169505Y-87693796D01*
X139145001Y-87695000D01*
X138494999Y-87695000D01*
X138470495Y-87693796D01*
X138446227Y-87690196D01*
X138422428Y-87684235D01*
X138399329Y-87675970D01*
X138377150Y-87665480D01*
X138356107Y-87652868D01*
X138336401Y-87638253D01*
X138318223Y-87621777D01*
X138301747Y-87603599D01*
X138287132Y-87583893D01*
X138274520Y-87562850D01*
X138264030Y-87540671D01*
X138255765Y-87517572D01*
X138249804Y-87493773D01*
X138246204Y-87469505D01*
X138245000Y-87445001D01*
X138245000Y-86544999D01*
X138246204Y-86520495D01*
X138249804Y-86496227D01*
X138255765Y-86472428D01*
X138264030Y-86449329D01*
X138274520Y-86427150D01*
X138287132Y-86406107D01*
X138301747Y-86386401D01*
X138318223Y-86368223D01*
X138336401Y-86351747D01*
X138356107Y-86337132D01*
X138377150Y-86324520D01*
X138399329Y-86314030D01*
X138422428Y-86305765D01*
X138446227Y-86299804D01*
X138470495Y-86296204D01*
X138494999Y-86295000D01*
X139145001Y-86295000D01*
X139169505Y-86296204D01*
G37*
G04 #@! TD.AperFunction*
G04 #@! TA.AperFunction,SMDPad,CuDef*
G36*
X139169505Y-93916204D02*
G01*
X139193773Y-93919804D01*
X139217572Y-93925765D01*
X139240671Y-93934030D01*
X139262850Y-93944520D01*
X139283893Y-93957132D01*
X139303599Y-93971747D01*
X139321777Y-93988223D01*
X139338253Y-94006401D01*
X139352868Y-94026107D01*
X139365480Y-94047150D01*
X139375970Y-94069329D01*
X139384235Y-94092428D01*
X139390196Y-94116227D01*
X139393796Y-94140495D01*
X139395000Y-94164999D01*
X139395000Y-95065001D01*
X139393796Y-95089505D01*
X139390196Y-95113773D01*
X139384235Y-95137572D01*
X139375970Y-95160671D01*
X139365480Y-95182850D01*
X139352868Y-95203893D01*
X139338253Y-95223599D01*
X139321777Y-95241777D01*
X139303599Y-95258253D01*
X139283893Y-95272868D01*
X139262850Y-95285480D01*
X139240671Y-95295970D01*
X139217572Y-95304235D01*
X139193773Y-95310196D01*
X139169505Y-95313796D01*
X139145001Y-95315000D01*
X138494999Y-95315000D01*
X138470495Y-95313796D01*
X138446227Y-95310196D01*
X138422428Y-95304235D01*
X138399329Y-95295970D01*
X138377150Y-95285480D01*
X138356107Y-95272868D01*
X138336401Y-95258253D01*
X138318223Y-95241777D01*
X138301747Y-95223599D01*
X138287132Y-95203893D01*
X138274520Y-95182850D01*
X138264030Y-95160671D01*
X138255765Y-95137572D01*
X138249804Y-95113773D01*
X138246204Y-95089505D01*
X138245000Y-95065001D01*
X138245000Y-94164999D01*
X138246204Y-94140495D01*
X138249804Y-94116227D01*
X138255765Y-94092428D01*
X138264030Y-94069329D01*
X138274520Y-94047150D01*
X138287132Y-94026107D01*
X138301747Y-94006401D01*
X138318223Y-93988223D01*
X138336401Y-93971747D01*
X138356107Y-93957132D01*
X138377150Y-93944520D01*
X138399329Y-93934030D01*
X138422428Y-93925765D01*
X138446227Y-93919804D01*
X138470495Y-93916204D01*
X138494999Y-93915000D01*
X139145001Y-93915000D01*
X139169505Y-93916204D01*
G37*
G04 #@! TD.AperFunction*
G04 #@! TA.AperFunction,SMDPad,CuDef*
G36*
X137119505Y-93916204D02*
G01*
X137143773Y-93919804D01*
X137167572Y-93925765D01*
X137190671Y-93934030D01*
X137212850Y-93944520D01*
X137233893Y-93957132D01*
X137253599Y-93971747D01*
X137271777Y-93988223D01*
X137288253Y-94006401D01*
X137302868Y-94026107D01*
X137315480Y-94047150D01*
X137325970Y-94069329D01*
X137334235Y-94092428D01*
X137340196Y-94116227D01*
X137343796Y-94140495D01*
X137345000Y-94164999D01*
X137345000Y-95065001D01*
X137343796Y-95089505D01*
X137340196Y-95113773D01*
X137334235Y-95137572D01*
X137325970Y-95160671D01*
X137315480Y-95182850D01*
X137302868Y-95203893D01*
X137288253Y-95223599D01*
X137271777Y-95241777D01*
X137253599Y-95258253D01*
X137233893Y-95272868D01*
X137212850Y-95285480D01*
X137190671Y-95295970D01*
X137167572Y-95304235D01*
X137143773Y-95310196D01*
X137119505Y-95313796D01*
X137095001Y-95315000D01*
X136444999Y-95315000D01*
X136420495Y-95313796D01*
X136396227Y-95310196D01*
X136372428Y-95304235D01*
X136349329Y-95295970D01*
X136327150Y-95285480D01*
X136306107Y-95272868D01*
X136286401Y-95258253D01*
X136268223Y-95241777D01*
X136251747Y-95223599D01*
X136237132Y-95203893D01*
X136224520Y-95182850D01*
X136214030Y-95160671D01*
X136205765Y-95137572D01*
X136199804Y-95113773D01*
X136196204Y-95089505D01*
X136195000Y-95065001D01*
X136195000Y-94164999D01*
X136196204Y-94140495D01*
X136199804Y-94116227D01*
X136205765Y-94092428D01*
X136214030Y-94069329D01*
X136224520Y-94047150D01*
X136237132Y-94026107D01*
X136251747Y-94006401D01*
X136268223Y-93988223D01*
X136286401Y-93971747D01*
X136306107Y-93957132D01*
X136327150Y-93944520D01*
X136349329Y-93934030D01*
X136372428Y-93925765D01*
X136396227Y-93919804D01*
X136420495Y-93916204D01*
X136444999Y-93915000D01*
X137095001Y-93915000D01*
X137119505Y-93916204D01*
G37*
G04 #@! TD.AperFunction*
G04 #@! TA.AperFunction,SMDPad,CuDef*
G36*
X139169505Y-90106204D02*
G01*
X139193773Y-90109804D01*
X139217572Y-90115765D01*
X139240671Y-90124030D01*
X139262850Y-90134520D01*
X139283893Y-90147132D01*
X139303599Y-90161747D01*
X139321777Y-90178223D01*
X139338253Y-90196401D01*
X139352868Y-90216107D01*
X139365480Y-90237150D01*
X139375970Y-90259329D01*
X139384235Y-90282428D01*
X139390196Y-90306227D01*
X139393796Y-90330495D01*
X139395000Y-90354999D01*
X139395000Y-91255001D01*
X139393796Y-91279505D01*
X139390196Y-91303773D01*
X139384235Y-91327572D01*
X139375970Y-91350671D01*
X139365480Y-91372850D01*
X139352868Y-91393893D01*
X139338253Y-91413599D01*
X139321777Y-91431777D01*
X139303599Y-91448253D01*
X139283893Y-91462868D01*
X139262850Y-91475480D01*
X139240671Y-91485970D01*
X139217572Y-91494235D01*
X139193773Y-91500196D01*
X139169505Y-91503796D01*
X139145001Y-91505000D01*
X138494999Y-91505000D01*
X138470495Y-91503796D01*
X138446227Y-91500196D01*
X138422428Y-91494235D01*
X138399329Y-91485970D01*
X138377150Y-91475480D01*
X138356107Y-91462868D01*
X138336401Y-91448253D01*
X138318223Y-91431777D01*
X138301747Y-91413599D01*
X138287132Y-91393893D01*
X138274520Y-91372850D01*
X138264030Y-91350671D01*
X138255765Y-91327572D01*
X138249804Y-91303773D01*
X138246204Y-91279505D01*
X138245000Y-91255001D01*
X138245000Y-90354999D01*
X138246204Y-90330495D01*
X138249804Y-90306227D01*
X138255765Y-90282428D01*
X138264030Y-90259329D01*
X138274520Y-90237150D01*
X138287132Y-90216107D01*
X138301747Y-90196401D01*
X138318223Y-90178223D01*
X138336401Y-90161747D01*
X138356107Y-90147132D01*
X138377150Y-90134520D01*
X138399329Y-90124030D01*
X138422428Y-90115765D01*
X138446227Y-90109804D01*
X138470495Y-90106204D01*
X138494999Y-90105000D01*
X139145001Y-90105000D01*
X139169505Y-90106204D01*
G37*
G04 #@! TD.AperFunction*
G04 #@! TA.AperFunction,SMDPad,CuDef*
G36*
X137119505Y-90106204D02*
G01*
X137143773Y-90109804D01*
X137167572Y-90115765D01*
X137190671Y-90124030D01*
X137212850Y-90134520D01*
X137233893Y-90147132D01*
X137253599Y-90161747D01*
X137271777Y-90178223D01*
X137288253Y-90196401D01*
X137302868Y-90216107D01*
X137315480Y-90237150D01*
X137325970Y-90259329D01*
X137334235Y-90282428D01*
X137340196Y-90306227D01*
X137343796Y-90330495D01*
X137345000Y-90354999D01*
X137345000Y-91255001D01*
X137343796Y-91279505D01*
X137340196Y-91303773D01*
X137334235Y-91327572D01*
X137325970Y-91350671D01*
X137315480Y-91372850D01*
X137302868Y-91393893D01*
X137288253Y-91413599D01*
X137271777Y-91431777D01*
X137253599Y-91448253D01*
X137233893Y-91462868D01*
X137212850Y-91475480D01*
X137190671Y-91485970D01*
X137167572Y-91494235D01*
X137143773Y-91500196D01*
X137119505Y-91503796D01*
X137095001Y-91505000D01*
X136444999Y-91505000D01*
X136420495Y-91503796D01*
X136396227Y-91500196D01*
X136372428Y-91494235D01*
X136349329Y-91485970D01*
X136327150Y-91475480D01*
X136306107Y-91462868D01*
X136286401Y-91448253D01*
X136268223Y-91431777D01*
X136251747Y-91413599D01*
X136237132Y-91393893D01*
X136224520Y-91372850D01*
X136214030Y-91350671D01*
X136205765Y-91327572D01*
X136199804Y-91303773D01*
X136196204Y-91279505D01*
X136195000Y-91255001D01*
X136195000Y-90354999D01*
X136196204Y-90330495D01*
X136199804Y-90306227D01*
X136205765Y-90282428D01*
X136214030Y-90259329D01*
X136224520Y-90237150D01*
X136237132Y-90216107D01*
X136251747Y-90196401D01*
X136268223Y-90178223D01*
X136286401Y-90161747D01*
X136306107Y-90147132D01*
X136327150Y-90134520D01*
X136349329Y-90124030D01*
X136372428Y-90115765D01*
X136396227Y-90109804D01*
X136420495Y-90106204D01*
X136444999Y-90105000D01*
X137095001Y-90105000D01*
X137119505Y-90106204D01*
G37*
G04 #@! TD.AperFunction*
D13*
X158750000Y-73660000D03*
X156210000Y-73660000D03*
X153670000Y-73660000D03*
X151130000Y-73660000D03*
X148590000Y-73660000D03*
X146050000Y-73660000D03*
X143510000Y-73660000D03*
D14*
X140970000Y-73660000D03*
D13*
X130810000Y-83185000D03*
X130810000Y-80645000D03*
X130810000Y-78105000D03*
X130810000Y-75565000D03*
X130810000Y-73025000D03*
D14*
X130810000Y-70485000D03*
G04 #@! TA.AperFunction,SMDPad,CuDef*
D12*
G36*
X137119505Y-95821204D02*
G01*
X137143773Y-95824804D01*
X137167572Y-95830765D01*
X137190671Y-95839030D01*
X137212850Y-95849520D01*
X137233893Y-95862132D01*
X137253599Y-95876747D01*
X137271777Y-95893223D01*
X137288253Y-95911401D01*
X137302868Y-95931107D01*
X137315480Y-95952150D01*
X137325970Y-95974329D01*
X137334235Y-95997428D01*
X137340196Y-96021227D01*
X137343796Y-96045495D01*
X137345000Y-96069999D01*
X137345000Y-96970001D01*
X137343796Y-96994505D01*
X137340196Y-97018773D01*
X137334235Y-97042572D01*
X137325970Y-97065671D01*
X137315480Y-97087850D01*
X137302868Y-97108893D01*
X137288253Y-97128599D01*
X137271777Y-97146777D01*
X137253599Y-97163253D01*
X137233893Y-97177868D01*
X137212850Y-97190480D01*
X137190671Y-97200970D01*
X137167572Y-97209235D01*
X137143773Y-97215196D01*
X137119505Y-97218796D01*
X137095001Y-97220000D01*
X136444999Y-97220000D01*
X136420495Y-97218796D01*
X136396227Y-97215196D01*
X136372428Y-97209235D01*
X136349329Y-97200970D01*
X136327150Y-97190480D01*
X136306107Y-97177868D01*
X136286401Y-97163253D01*
X136268223Y-97146777D01*
X136251747Y-97128599D01*
X136237132Y-97108893D01*
X136224520Y-97087850D01*
X136214030Y-97065671D01*
X136205765Y-97042572D01*
X136199804Y-97018773D01*
X136196204Y-96994505D01*
X136195000Y-96970001D01*
X136195000Y-96069999D01*
X136196204Y-96045495D01*
X136199804Y-96021227D01*
X136205765Y-95997428D01*
X136214030Y-95974329D01*
X136224520Y-95952150D01*
X136237132Y-95931107D01*
X136251747Y-95911401D01*
X136268223Y-95893223D01*
X136286401Y-95876747D01*
X136306107Y-95862132D01*
X136327150Y-95849520D01*
X136349329Y-95839030D01*
X136372428Y-95830765D01*
X136396227Y-95824804D01*
X136420495Y-95821204D01*
X136444999Y-95820000D01*
X137095001Y-95820000D01*
X137119505Y-95821204D01*
G37*
G04 #@! TD.AperFunction*
G04 #@! TA.AperFunction,SMDPad,CuDef*
G36*
X139169505Y-95821204D02*
G01*
X139193773Y-95824804D01*
X139217572Y-95830765D01*
X139240671Y-95839030D01*
X139262850Y-95849520D01*
X139283893Y-95862132D01*
X139303599Y-95876747D01*
X139321777Y-95893223D01*
X139338253Y-95911401D01*
X139352868Y-95931107D01*
X139365480Y-95952150D01*
X139375970Y-95974329D01*
X139384235Y-95997428D01*
X139390196Y-96021227D01*
X139393796Y-96045495D01*
X139395000Y-96069999D01*
X139395000Y-96970001D01*
X139393796Y-96994505D01*
X139390196Y-97018773D01*
X139384235Y-97042572D01*
X139375970Y-97065671D01*
X139365480Y-97087850D01*
X139352868Y-97108893D01*
X139338253Y-97128599D01*
X139321777Y-97146777D01*
X139303599Y-97163253D01*
X139283893Y-97177868D01*
X139262850Y-97190480D01*
X139240671Y-97200970D01*
X139217572Y-97209235D01*
X139193773Y-97215196D01*
X139169505Y-97218796D01*
X139145001Y-97220000D01*
X138494999Y-97220000D01*
X138470495Y-97218796D01*
X138446227Y-97215196D01*
X138422428Y-97209235D01*
X138399329Y-97200970D01*
X138377150Y-97190480D01*
X138356107Y-97177868D01*
X138336401Y-97163253D01*
X138318223Y-97146777D01*
X138301747Y-97128599D01*
X138287132Y-97108893D01*
X138274520Y-97087850D01*
X138264030Y-97065671D01*
X138255765Y-97042572D01*
X138249804Y-97018773D01*
X138246204Y-96994505D01*
X138245000Y-96970001D01*
X138245000Y-96069999D01*
X138246204Y-96045495D01*
X138249804Y-96021227D01*
X138255765Y-95997428D01*
X138264030Y-95974329D01*
X138274520Y-95952150D01*
X138287132Y-95931107D01*
X138301747Y-95911401D01*
X138318223Y-95893223D01*
X138336401Y-95876747D01*
X138356107Y-95862132D01*
X138377150Y-95849520D01*
X138399329Y-95839030D01*
X138422428Y-95830765D01*
X138446227Y-95824804D01*
X138470495Y-95821204D01*
X138494999Y-95820000D01*
X139145001Y-95820000D01*
X139169505Y-95821204D01*
G37*
G04 #@! TD.AperFunction*
G04 #@! TA.AperFunction,SMDPad,CuDef*
G36*
X137119505Y-88201204D02*
G01*
X137143773Y-88204804D01*
X137167572Y-88210765D01*
X137190671Y-88219030D01*
X137212850Y-88229520D01*
X137233893Y-88242132D01*
X137253599Y-88256747D01*
X137271777Y-88273223D01*
X137288253Y-88291401D01*
X137302868Y-88311107D01*
X137315480Y-88332150D01*
X137325970Y-88354329D01*
X137334235Y-88377428D01*
X137340196Y-88401227D01*
X137343796Y-88425495D01*
X137345000Y-88449999D01*
X137345000Y-89350001D01*
X137343796Y-89374505D01*
X137340196Y-89398773D01*
X137334235Y-89422572D01*
X137325970Y-89445671D01*
X137315480Y-89467850D01*
X137302868Y-89488893D01*
X137288253Y-89508599D01*
X137271777Y-89526777D01*
X137253599Y-89543253D01*
X137233893Y-89557868D01*
X137212850Y-89570480D01*
X137190671Y-89580970D01*
X137167572Y-89589235D01*
X137143773Y-89595196D01*
X137119505Y-89598796D01*
X137095001Y-89600000D01*
X136444999Y-89600000D01*
X136420495Y-89598796D01*
X136396227Y-89595196D01*
X136372428Y-89589235D01*
X136349329Y-89580970D01*
X136327150Y-89570480D01*
X136306107Y-89557868D01*
X136286401Y-89543253D01*
X136268223Y-89526777D01*
X136251747Y-89508599D01*
X136237132Y-89488893D01*
X136224520Y-89467850D01*
X136214030Y-89445671D01*
X136205765Y-89422572D01*
X136199804Y-89398773D01*
X136196204Y-89374505D01*
X136195000Y-89350001D01*
X136195000Y-88449999D01*
X136196204Y-88425495D01*
X136199804Y-88401227D01*
X136205765Y-88377428D01*
X136214030Y-88354329D01*
X136224520Y-88332150D01*
X136237132Y-88311107D01*
X136251747Y-88291401D01*
X136268223Y-88273223D01*
X136286401Y-88256747D01*
X136306107Y-88242132D01*
X136327150Y-88229520D01*
X136349329Y-88219030D01*
X136372428Y-88210765D01*
X136396227Y-88204804D01*
X136420495Y-88201204D01*
X136444999Y-88200000D01*
X137095001Y-88200000D01*
X137119505Y-88201204D01*
G37*
G04 #@! TD.AperFunction*
G04 #@! TA.AperFunction,SMDPad,CuDef*
G36*
X139169505Y-88201204D02*
G01*
X139193773Y-88204804D01*
X139217572Y-88210765D01*
X139240671Y-88219030D01*
X139262850Y-88229520D01*
X139283893Y-88242132D01*
X139303599Y-88256747D01*
X139321777Y-88273223D01*
X139338253Y-88291401D01*
X139352868Y-88311107D01*
X139365480Y-88332150D01*
X139375970Y-88354329D01*
X139384235Y-88377428D01*
X139390196Y-88401227D01*
X139393796Y-88425495D01*
X139395000Y-88449999D01*
X139395000Y-89350001D01*
X139393796Y-89374505D01*
X139390196Y-89398773D01*
X139384235Y-89422572D01*
X139375970Y-89445671D01*
X139365480Y-89467850D01*
X139352868Y-89488893D01*
X139338253Y-89508599D01*
X139321777Y-89526777D01*
X139303599Y-89543253D01*
X139283893Y-89557868D01*
X139262850Y-89570480D01*
X139240671Y-89580970D01*
X139217572Y-89589235D01*
X139193773Y-89595196D01*
X139169505Y-89598796D01*
X139145001Y-89600000D01*
X138494999Y-89600000D01*
X138470495Y-89598796D01*
X138446227Y-89595196D01*
X138422428Y-89589235D01*
X138399329Y-89580970D01*
X138377150Y-89570480D01*
X138356107Y-89557868D01*
X138336401Y-89543253D01*
X138318223Y-89526777D01*
X138301747Y-89508599D01*
X138287132Y-89488893D01*
X138274520Y-89467850D01*
X138264030Y-89445671D01*
X138255765Y-89422572D01*
X138249804Y-89398773D01*
X138246204Y-89374505D01*
X138245000Y-89350001D01*
X138245000Y-88449999D01*
X138246204Y-88425495D01*
X138249804Y-88401227D01*
X138255765Y-88377428D01*
X138264030Y-88354329D01*
X138274520Y-88332150D01*
X138287132Y-88311107D01*
X138301747Y-88291401D01*
X138318223Y-88273223D01*
X138336401Y-88256747D01*
X138356107Y-88242132D01*
X138377150Y-88229520D01*
X138399329Y-88219030D01*
X138422428Y-88210765D01*
X138446227Y-88204804D01*
X138470495Y-88201204D01*
X138494999Y-88200000D01*
X139145001Y-88200000D01*
X139169505Y-88201204D01*
G37*
G04 #@! TD.AperFunction*
G04 #@! TA.AperFunction,SMDPad,CuDef*
G36*
X137119505Y-92011204D02*
G01*
X137143773Y-92014804D01*
X137167572Y-92020765D01*
X137190671Y-92029030D01*
X137212850Y-92039520D01*
X137233893Y-92052132D01*
X137253599Y-92066747D01*
X137271777Y-92083223D01*
X137288253Y-92101401D01*
X137302868Y-92121107D01*
X137315480Y-92142150D01*
X137325970Y-92164329D01*
X137334235Y-92187428D01*
X137340196Y-92211227D01*
X137343796Y-92235495D01*
X137345000Y-92259999D01*
X137345000Y-93160001D01*
X137343796Y-93184505D01*
X137340196Y-93208773D01*
X137334235Y-93232572D01*
X137325970Y-93255671D01*
X137315480Y-93277850D01*
X137302868Y-93298893D01*
X137288253Y-93318599D01*
X137271777Y-93336777D01*
X137253599Y-93353253D01*
X137233893Y-93367868D01*
X137212850Y-93380480D01*
X137190671Y-93390970D01*
X137167572Y-93399235D01*
X137143773Y-93405196D01*
X137119505Y-93408796D01*
X137095001Y-93410000D01*
X136444999Y-93410000D01*
X136420495Y-93408796D01*
X136396227Y-93405196D01*
X136372428Y-93399235D01*
X136349329Y-93390970D01*
X136327150Y-93380480D01*
X136306107Y-93367868D01*
X136286401Y-93353253D01*
X136268223Y-93336777D01*
X136251747Y-93318599D01*
X136237132Y-93298893D01*
X136224520Y-93277850D01*
X136214030Y-93255671D01*
X136205765Y-93232572D01*
X136199804Y-93208773D01*
X136196204Y-93184505D01*
X136195000Y-93160001D01*
X136195000Y-92259999D01*
X136196204Y-92235495D01*
X136199804Y-92211227D01*
X136205765Y-92187428D01*
X136214030Y-92164329D01*
X136224520Y-92142150D01*
X136237132Y-92121107D01*
X136251747Y-92101401D01*
X136268223Y-92083223D01*
X136286401Y-92066747D01*
X136306107Y-92052132D01*
X136327150Y-92039520D01*
X136349329Y-92029030D01*
X136372428Y-92020765D01*
X136396227Y-92014804D01*
X136420495Y-92011204D01*
X136444999Y-92010000D01*
X137095001Y-92010000D01*
X137119505Y-92011204D01*
G37*
G04 #@! TD.AperFunction*
G04 #@! TA.AperFunction,SMDPad,CuDef*
G36*
X139169505Y-92011204D02*
G01*
X139193773Y-92014804D01*
X139217572Y-92020765D01*
X139240671Y-92029030D01*
X139262850Y-92039520D01*
X139283893Y-92052132D01*
X139303599Y-92066747D01*
X139321777Y-92083223D01*
X139338253Y-92101401D01*
X139352868Y-92121107D01*
X139365480Y-92142150D01*
X139375970Y-92164329D01*
X139384235Y-92187428D01*
X139390196Y-92211227D01*
X139393796Y-92235495D01*
X139395000Y-92259999D01*
X139395000Y-93160001D01*
X139393796Y-93184505D01*
X139390196Y-93208773D01*
X139384235Y-93232572D01*
X139375970Y-93255671D01*
X139365480Y-93277850D01*
X139352868Y-93298893D01*
X139338253Y-93318599D01*
X139321777Y-93336777D01*
X139303599Y-93353253D01*
X139283893Y-93367868D01*
X139262850Y-93380480D01*
X139240671Y-93390970D01*
X139217572Y-93399235D01*
X139193773Y-93405196D01*
X139169505Y-93408796D01*
X139145001Y-93410000D01*
X138494999Y-93410000D01*
X138470495Y-93408796D01*
X138446227Y-93405196D01*
X138422428Y-93399235D01*
X138399329Y-93390970D01*
X138377150Y-93380480D01*
X138356107Y-93367868D01*
X138336401Y-93353253D01*
X138318223Y-93336777D01*
X138301747Y-93318599D01*
X138287132Y-93298893D01*
X138274520Y-93277850D01*
X138264030Y-93255671D01*
X138255765Y-93232572D01*
X138249804Y-93208773D01*
X138246204Y-93184505D01*
X138245000Y-93160001D01*
X138245000Y-92259999D01*
X138246204Y-92235495D01*
X138249804Y-92211227D01*
X138255765Y-92187428D01*
X138264030Y-92164329D01*
X138274520Y-92142150D01*
X138287132Y-92121107D01*
X138301747Y-92101401D01*
X138318223Y-92083223D01*
X138336401Y-92066747D01*
X138356107Y-92052132D01*
X138377150Y-92039520D01*
X138399329Y-92029030D01*
X138422428Y-92020765D01*
X138446227Y-92014804D01*
X138470495Y-92011204D01*
X138494999Y-92010000D01*
X139145001Y-92010000D01*
X139169505Y-92011204D01*
G37*
G04 #@! TD.AperFunction*
D15*
X148115000Y-91440000D03*
X155415000Y-91440000D03*
G04 #@! TA.AperFunction,SMDPad,CuDef*
D12*
G36*
X151089505Y-95186204D02*
G01*
X151113773Y-95189804D01*
X151137572Y-95195765D01*
X151160671Y-95204030D01*
X151182850Y-95214520D01*
X151203893Y-95227132D01*
X151223599Y-95241747D01*
X151241777Y-95258223D01*
X151258253Y-95276401D01*
X151272868Y-95296107D01*
X151285480Y-95317150D01*
X151295970Y-95339329D01*
X151304235Y-95362428D01*
X151310196Y-95386227D01*
X151313796Y-95410495D01*
X151315000Y-95434999D01*
X151315000Y-96335001D01*
X151313796Y-96359505D01*
X151310196Y-96383773D01*
X151304235Y-96407572D01*
X151295970Y-96430671D01*
X151285480Y-96452850D01*
X151272868Y-96473893D01*
X151258253Y-96493599D01*
X151241777Y-96511777D01*
X151223599Y-96528253D01*
X151203893Y-96542868D01*
X151182850Y-96555480D01*
X151160671Y-96565970D01*
X151137572Y-96574235D01*
X151113773Y-96580196D01*
X151089505Y-96583796D01*
X151065001Y-96585000D01*
X150414999Y-96585000D01*
X150390495Y-96583796D01*
X150366227Y-96580196D01*
X150342428Y-96574235D01*
X150319329Y-96565970D01*
X150297150Y-96555480D01*
X150276107Y-96542868D01*
X150256401Y-96528253D01*
X150238223Y-96511777D01*
X150221747Y-96493599D01*
X150207132Y-96473893D01*
X150194520Y-96452850D01*
X150184030Y-96430671D01*
X150175765Y-96407572D01*
X150169804Y-96383773D01*
X150166204Y-96359505D01*
X150165000Y-96335001D01*
X150165000Y-95434999D01*
X150166204Y-95410495D01*
X150169804Y-95386227D01*
X150175765Y-95362428D01*
X150184030Y-95339329D01*
X150194520Y-95317150D01*
X150207132Y-95296107D01*
X150221747Y-95276401D01*
X150238223Y-95258223D01*
X150256401Y-95241747D01*
X150276107Y-95227132D01*
X150297150Y-95214520D01*
X150319329Y-95204030D01*
X150342428Y-95195765D01*
X150366227Y-95189804D01*
X150390495Y-95186204D01*
X150414999Y-95185000D01*
X151065001Y-95185000D01*
X151089505Y-95186204D01*
G37*
G04 #@! TD.AperFunction*
G04 #@! TA.AperFunction,SMDPad,CuDef*
G36*
X153139505Y-95186204D02*
G01*
X153163773Y-95189804D01*
X153187572Y-95195765D01*
X153210671Y-95204030D01*
X153232850Y-95214520D01*
X153253893Y-95227132D01*
X153273599Y-95241747D01*
X153291777Y-95258223D01*
X153308253Y-95276401D01*
X153322868Y-95296107D01*
X153335480Y-95317150D01*
X153345970Y-95339329D01*
X153354235Y-95362428D01*
X153360196Y-95386227D01*
X153363796Y-95410495D01*
X153365000Y-95434999D01*
X153365000Y-96335001D01*
X153363796Y-96359505D01*
X153360196Y-96383773D01*
X153354235Y-96407572D01*
X153345970Y-96430671D01*
X153335480Y-96452850D01*
X153322868Y-96473893D01*
X153308253Y-96493599D01*
X153291777Y-96511777D01*
X153273599Y-96528253D01*
X153253893Y-96542868D01*
X153232850Y-96555480D01*
X153210671Y-96565970D01*
X153187572Y-96574235D01*
X153163773Y-96580196D01*
X153139505Y-96583796D01*
X153115001Y-96585000D01*
X152464999Y-96585000D01*
X152440495Y-96583796D01*
X152416227Y-96580196D01*
X152392428Y-96574235D01*
X152369329Y-96565970D01*
X152347150Y-96555480D01*
X152326107Y-96542868D01*
X152306401Y-96528253D01*
X152288223Y-96511777D01*
X152271747Y-96493599D01*
X152257132Y-96473893D01*
X152244520Y-96452850D01*
X152234030Y-96430671D01*
X152225765Y-96407572D01*
X152219804Y-96383773D01*
X152216204Y-96359505D01*
X152215000Y-96335001D01*
X152215000Y-95434999D01*
X152216204Y-95410495D01*
X152219804Y-95386227D01*
X152225765Y-95362428D01*
X152234030Y-95339329D01*
X152244520Y-95317150D01*
X152257132Y-95296107D01*
X152271747Y-95276401D01*
X152288223Y-95258223D01*
X152306401Y-95241747D01*
X152326107Y-95227132D01*
X152347150Y-95214520D01*
X152369329Y-95204030D01*
X152392428Y-95195765D01*
X152416227Y-95189804D01*
X152440495Y-95186204D01*
X152464999Y-95185000D01*
X153115001Y-95185000D01*
X153139505Y-95186204D01*
G37*
G04 #@! TD.AperFunction*
G04 #@! TA.AperFunction,SMDPad,CuDef*
G36*
X147034505Y-95186204D02*
G01*
X147058773Y-95189804D01*
X147082572Y-95195765D01*
X147105671Y-95204030D01*
X147127850Y-95214520D01*
X147148893Y-95227132D01*
X147168599Y-95241747D01*
X147186777Y-95258223D01*
X147203253Y-95276401D01*
X147217868Y-95296107D01*
X147230480Y-95317150D01*
X147240970Y-95339329D01*
X147249235Y-95362428D01*
X147255196Y-95386227D01*
X147258796Y-95410495D01*
X147260000Y-95434999D01*
X147260000Y-96335001D01*
X147258796Y-96359505D01*
X147255196Y-96383773D01*
X147249235Y-96407572D01*
X147240970Y-96430671D01*
X147230480Y-96452850D01*
X147217868Y-96473893D01*
X147203253Y-96493599D01*
X147186777Y-96511777D01*
X147168599Y-96528253D01*
X147148893Y-96542868D01*
X147127850Y-96555480D01*
X147105671Y-96565970D01*
X147082572Y-96574235D01*
X147058773Y-96580196D01*
X147034505Y-96583796D01*
X147010001Y-96585000D01*
X146359999Y-96585000D01*
X146335495Y-96583796D01*
X146311227Y-96580196D01*
X146287428Y-96574235D01*
X146264329Y-96565970D01*
X146242150Y-96555480D01*
X146221107Y-96542868D01*
X146201401Y-96528253D01*
X146183223Y-96511777D01*
X146166747Y-96493599D01*
X146152132Y-96473893D01*
X146139520Y-96452850D01*
X146129030Y-96430671D01*
X146120765Y-96407572D01*
X146114804Y-96383773D01*
X146111204Y-96359505D01*
X146110000Y-96335001D01*
X146110000Y-95434999D01*
X146111204Y-95410495D01*
X146114804Y-95386227D01*
X146120765Y-95362428D01*
X146129030Y-95339329D01*
X146139520Y-95317150D01*
X146152132Y-95296107D01*
X146166747Y-95276401D01*
X146183223Y-95258223D01*
X146201401Y-95241747D01*
X146221107Y-95227132D01*
X146242150Y-95214520D01*
X146264329Y-95204030D01*
X146287428Y-95195765D01*
X146311227Y-95189804D01*
X146335495Y-95186204D01*
X146359999Y-95185000D01*
X147010001Y-95185000D01*
X147034505Y-95186204D01*
G37*
G04 #@! TD.AperFunction*
G04 #@! TA.AperFunction,SMDPad,CuDef*
G36*
X149084505Y-95186204D02*
G01*
X149108773Y-95189804D01*
X149132572Y-95195765D01*
X149155671Y-95204030D01*
X149177850Y-95214520D01*
X149198893Y-95227132D01*
X149218599Y-95241747D01*
X149236777Y-95258223D01*
X149253253Y-95276401D01*
X149267868Y-95296107D01*
X149280480Y-95317150D01*
X149290970Y-95339329D01*
X149299235Y-95362428D01*
X149305196Y-95386227D01*
X149308796Y-95410495D01*
X149310000Y-95434999D01*
X149310000Y-96335001D01*
X149308796Y-96359505D01*
X149305196Y-96383773D01*
X149299235Y-96407572D01*
X149290970Y-96430671D01*
X149280480Y-96452850D01*
X149267868Y-96473893D01*
X149253253Y-96493599D01*
X149236777Y-96511777D01*
X149218599Y-96528253D01*
X149198893Y-96542868D01*
X149177850Y-96555480D01*
X149155671Y-96565970D01*
X149132572Y-96574235D01*
X149108773Y-96580196D01*
X149084505Y-96583796D01*
X149060001Y-96585000D01*
X148409999Y-96585000D01*
X148385495Y-96583796D01*
X148361227Y-96580196D01*
X148337428Y-96574235D01*
X148314329Y-96565970D01*
X148292150Y-96555480D01*
X148271107Y-96542868D01*
X148251401Y-96528253D01*
X148233223Y-96511777D01*
X148216747Y-96493599D01*
X148202132Y-96473893D01*
X148189520Y-96452850D01*
X148179030Y-96430671D01*
X148170765Y-96407572D01*
X148164804Y-96383773D01*
X148161204Y-96359505D01*
X148160000Y-96335001D01*
X148160000Y-95434999D01*
X148161204Y-95410495D01*
X148164804Y-95386227D01*
X148170765Y-95362428D01*
X148179030Y-95339329D01*
X148189520Y-95317150D01*
X148202132Y-95296107D01*
X148216747Y-95276401D01*
X148233223Y-95258223D01*
X148251401Y-95241747D01*
X148271107Y-95227132D01*
X148292150Y-95214520D01*
X148314329Y-95204030D01*
X148337428Y-95195765D01*
X148361227Y-95189804D01*
X148385495Y-95186204D01*
X148409999Y-95185000D01*
X149060001Y-95185000D01*
X149084505Y-95186204D01*
G37*
G04 #@! TD.AperFunction*
G04 #@! TA.AperFunction,SMDPad,CuDef*
G36*
X157584505Y-95186204D02*
G01*
X157608773Y-95189804D01*
X157632572Y-95195765D01*
X157655671Y-95204030D01*
X157677850Y-95214520D01*
X157698893Y-95227132D01*
X157718599Y-95241747D01*
X157736777Y-95258223D01*
X157753253Y-95276401D01*
X157767868Y-95296107D01*
X157780480Y-95317150D01*
X157790970Y-95339329D01*
X157799235Y-95362428D01*
X157805196Y-95386227D01*
X157808796Y-95410495D01*
X157810000Y-95434999D01*
X157810000Y-96335001D01*
X157808796Y-96359505D01*
X157805196Y-96383773D01*
X157799235Y-96407572D01*
X157790970Y-96430671D01*
X157780480Y-96452850D01*
X157767868Y-96473893D01*
X157753253Y-96493599D01*
X157736777Y-96511777D01*
X157718599Y-96528253D01*
X157698893Y-96542868D01*
X157677850Y-96555480D01*
X157655671Y-96565970D01*
X157632572Y-96574235D01*
X157608773Y-96580196D01*
X157584505Y-96583796D01*
X157560001Y-96585000D01*
X156909999Y-96585000D01*
X156885495Y-96583796D01*
X156861227Y-96580196D01*
X156837428Y-96574235D01*
X156814329Y-96565970D01*
X156792150Y-96555480D01*
X156771107Y-96542868D01*
X156751401Y-96528253D01*
X156733223Y-96511777D01*
X156716747Y-96493599D01*
X156702132Y-96473893D01*
X156689520Y-96452850D01*
X156679030Y-96430671D01*
X156670765Y-96407572D01*
X156664804Y-96383773D01*
X156661204Y-96359505D01*
X156660000Y-96335001D01*
X156660000Y-95434999D01*
X156661204Y-95410495D01*
X156664804Y-95386227D01*
X156670765Y-95362428D01*
X156679030Y-95339329D01*
X156689520Y-95317150D01*
X156702132Y-95296107D01*
X156716747Y-95276401D01*
X156733223Y-95258223D01*
X156751401Y-95241747D01*
X156771107Y-95227132D01*
X156792150Y-95214520D01*
X156814329Y-95204030D01*
X156837428Y-95195765D01*
X156861227Y-95189804D01*
X156885495Y-95186204D01*
X156909999Y-95185000D01*
X157560001Y-95185000D01*
X157584505Y-95186204D01*
G37*
G04 #@! TD.AperFunction*
G04 #@! TA.AperFunction,SMDPad,CuDef*
G36*
X155534505Y-95186204D02*
G01*
X155558773Y-95189804D01*
X155582572Y-95195765D01*
X155605671Y-95204030D01*
X155627850Y-95214520D01*
X155648893Y-95227132D01*
X155668599Y-95241747D01*
X155686777Y-95258223D01*
X155703253Y-95276401D01*
X155717868Y-95296107D01*
X155730480Y-95317150D01*
X155740970Y-95339329D01*
X155749235Y-95362428D01*
X155755196Y-95386227D01*
X155758796Y-95410495D01*
X155760000Y-95434999D01*
X155760000Y-96335001D01*
X155758796Y-96359505D01*
X155755196Y-96383773D01*
X155749235Y-96407572D01*
X155740970Y-96430671D01*
X155730480Y-96452850D01*
X155717868Y-96473893D01*
X155703253Y-96493599D01*
X155686777Y-96511777D01*
X155668599Y-96528253D01*
X155648893Y-96542868D01*
X155627850Y-96555480D01*
X155605671Y-96565970D01*
X155582572Y-96574235D01*
X155558773Y-96580196D01*
X155534505Y-96583796D01*
X155510001Y-96585000D01*
X154859999Y-96585000D01*
X154835495Y-96583796D01*
X154811227Y-96580196D01*
X154787428Y-96574235D01*
X154764329Y-96565970D01*
X154742150Y-96555480D01*
X154721107Y-96542868D01*
X154701401Y-96528253D01*
X154683223Y-96511777D01*
X154666747Y-96493599D01*
X154652132Y-96473893D01*
X154639520Y-96452850D01*
X154629030Y-96430671D01*
X154620765Y-96407572D01*
X154614804Y-96383773D01*
X154611204Y-96359505D01*
X154610000Y-96335001D01*
X154610000Y-95434999D01*
X154611204Y-95410495D01*
X154614804Y-95386227D01*
X154620765Y-95362428D01*
X154629030Y-95339329D01*
X154639520Y-95317150D01*
X154652132Y-95296107D01*
X154666747Y-95276401D01*
X154683223Y-95258223D01*
X154701401Y-95241747D01*
X154721107Y-95227132D01*
X154742150Y-95214520D01*
X154764329Y-95204030D01*
X154787428Y-95195765D01*
X154811227Y-95189804D01*
X154835495Y-95186204D01*
X154859999Y-95185000D01*
X155510001Y-95185000D01*
X155534505Y-95186204D01*
G37*
G04 #@! TD.AperFunction*
D16*
X149600000Y-78250000D03*
X150400000Y-78250000D03*
X151200000Y-78250000D03*
X152000000Y-78250000D03*
X152800000Y-78250000D03*
X153600000Y-78250000D03*
X154400000Y-78250000D03*
X155200000Y-78250000D03*
D17*
X156700000Y-79750000D03*
X156700000Y-80550000D03*
X156700000Y-81350000D03*
X156700000Y-82150000D03*
X156700000Y-82950000D03*
X156700000Y-83750000D03*
X156700000Y-84550000D03*
X156700000Y-85350000D03*
D16*
X155200000Y-86850000D03*
X154400000Y-86850000D03*
X153600000Y-86850000D03*
X152800000Y-86850000D03*
X152000000Y-86850000D03*
X151200000Y-86850000D03*
X150400000Y-86850000D03*
X149600000Y-86850000D03*
D17*
X148100000Y-85350000D03*
X148100000Y-84550000D03*
X148100000Y-83750000D03*
X148100000Y-82950000D03*
X148100000Y-82150000D03*
X148100000Y-81350000D03*
X148100000Y-80550000D03*
X148100000Y-79750000D03*
D18*
X161140000Y-95250000D03*
X161140000Y-90750000D03*
X167640000Y-95250000D03*
X167640000Y-90750000D03*
G04 #@! TA.AperFunction,SMDPad,CuDef*
D12*
G36*
X165574505Y-67761204D02*
G01*
X165598773Y-67764804D01*
X165622572Y-67770765D01*
X165645671Y-67779030D01*
X165667850Y-67789520D01*
X165688893Y-67802132D01*
X165708599Y-67816747D01*
X165726777Y-67833223D01*
X165743253Y-67851401D01*
X165757868Y-67871107D01*
X165770480Y-67892150D01*
X165780970Y-67914329D01*
X165789235Y-67937428D01*
X165795196Y-67961227D01*
X165798796Y-67985495D01*
X165800000Y-68009999D01*
X165800000Y-68660001D01*
X165798796Y-68684505D01*
X165795196Y-68708773D01*
X165789235Y-68732572D01*
X165780970Y-68755671D01*
X165770480Y-68777850D01*
X165757868Y-68798893D01*
X165743253Y-68818599D01*
X165726777Y-68836777D01*
X165708599Y-68853253D01*
X165688893Y-68867868D01*
X165667850Y-68880480D01*
X165645671Y-68890970D01*
X165622572Y-68899235D01*
X165598773Y-68905196D01*
X165574505Y-68908796D01*
X165550001Y-68910000D01*
X164649999Y-68910000D01*
X164625495Y-68908796D01*
X164601227Y-68905196D01*
X164577428Y-68899235D01*
X164554329Y-68890970D01*
X164532150Y-68880480D01*
X164511107Y-68867868D01*
X164491401Y-68853253D01*
X164473223Y-68836777D01*
X164456747Y-68818599D01*
X164442132Y-68798893D01*
X164429520Y-68777850D01*
X164419030Y-68755671D01*
X164410765Y-68732572D01*
X164404804Y-68708773D01*
X164401204Y-68684505D01*
X164400000Y-68660001D01*
X164400000Y-68009999D01*
X164401204Y-67985495D01*
X164404804Y-67961227D01*
X164410765Y-67937428D01*
X164419030Y-67914329D01*
X164429520Y-67892150D01*
X164442132Y-67871107D01*
X164456747Y-67851401D01*
X164473223Y-67833223D01*
X164491401Y-67816747D01*
X164511107Y-67802132D01*
X164532150Y-67789520D01*
X164554329Y-67779030D01*
X164577428Y-67770765D01*
X164601227Y-67764804D01*
X164625495Y-67761204D01*
X164649999Y-67760000D01*
X165550001Y-67760000D01*
X165574505Y-67761204D01*
G37*
G04 #@! TD.AperFunction*
G04 #@! TA.AperFunction,SMDPad,CuDef*
G36*
X165574505Y-65711204D02*
G01*
X165598773Y-65714804D01*
X165622572Y-65720765D01*
X165645671Y-65729030D01*
X165667850Y-65739520D01*
X165688893Y-65752132D01*
X165708599Y-65766747D01*
X165726777Y-65783223D01*
X165743253Y-65801401D01*
X165757868Y-65821107D01*
X165770480Y-65842150D01*
X165780970Y-65864329D01*
X165789235Y-65887428D01*
X165795196Y-65911227D01*
X165798796Y-65935495D01*
X165800000Y-65959999D01*
X165800000Y-66610001D01*
X165798796Y-66634505D01*
X165795196Y-66658773D01*
X165789235Y-66682572D01*
X165780970Y-66705671D01*
X165770480Y-66727850D01*
X165757868Y-66748893D01*
X165743253Y-66768599D01*
X165726777Y-66786777D01*
X165708599Y-66803253D01*
X165688893Y-66817868D01*
X165667850Y-66830480D01*
X165645671Y-66840970D01*
X165622572Y-66849235D01*
X165598773Y-66855196D01*
X165574505Y-66858796D01*
X165550001Y-66860000D01*
X164649999Y-66860000D01*
X164625495Y-66858796D01*
X164601227Y-66855196D01*
X164577428Y-66849235D01*
X164554329Y-66840970D01*
X164532150Y-66830480D01*
X164511107Y-66817868D01*
X164491401Y-66803253D01*
X164473223Y-66786777D01*
X164456747Y-66768599D01*
X164442132Y-66748893D01*
X164429520Y-66727850D01*
X164419030Y-66705671D01*
X164410765Y-66682572D01*
X164404804Y-66658773D01*
X164401204Y-66634505D01*
X164400000Y-66610001D01*
X164400000Y-65959999D01*
X164401204Y-65935495D01*
X164404804Y-65911227D01*
X164410765Y-65887428D01*
X164419030Y-65864329D01*
X164429520Y-65842150D01*
X164442132Y-65821107D01*
X164456747Y-65801401D01*
X164473223Y-65783223D01*
X164491401Y-65766747D01*
X164511107Y-65752132D01*
X164532150Y-65739520D01*
X164554329Y-65729030D01*
X164577428Y-65720765D01*
X164601227Y-65714804D01*
X164625495Y-65711204D01*
X164649999Y-65710000D01*
X165550001Y-65710000D01*
X165574505Y-65711204D01*
G37*
G04 #@! TD.AperFunction*
G04 #@! TA.AperFunction,SMDPad,CuDef*
G36*
X167479505Y-65711204D02*
G01*
X167503773Y-65714804D01*
X167527572Y-65720765D01*
X167550671Y-65729030D01*
X167572850Y-65739520D01*
X167593893Y-65752132D01*
X167613599Y-65766747D01*
X167631777Y-65783223D01*
X167648253Y-65801401D01*
X167662868Y-65821107D01*
X167675480Y-65842150D01*
X167685970Y-65864329D01*
X167694235Y-65887428D01*
X167700196Y-65911227D01*
X167703796Y-65935495D01*
X167705000Y-65959999D01*
X167705000Y-66610001D01*
X167703796Y-66634505D01*
X167700196Y-66658773D01*
X167694235Y-66682572D01*
X167685970Y-66705671D01*
X167675480Y-66727850D01*
X167662868Y-66748893D01*
X167648253Y-66768599D01*
X167631777Y-66786777D01*
X167613599Y-66803253D01*
X167593893Y-66817868D01*
X167572850Y-66830480D01*
X167550671Y-66840970D01*
X167527572Y-66849235D01*
X167503773Y-66855196D01*
X167479505Y-66858796D01*
X167455001Y-66860000D01*
X166554999Y-66860000D01*
X166530495Y-66858796D01*
X166506227Y-66855196D01*
X166482428Y-66849235D01*
X166459329Y-66840970D01*
X166437150Y-66830480D01*
X166416107Y-66817868D01*
X166396401Y-66803253D01*
X166378223Y-66786777D01*
X166361747Y-66768599D01*
X166347132Y-66748893D01*
X166334520Y-66727850D01*
X166324030Y-66705671D01*
X166315765Y-66682572D01*
X166309804Y-66658773D01*
X166306204Y-66634505D01*
X166305000Y-66610001D01*
X166305000Y-65959999D01*
X166306204Y-65935495D01*
X166309804Y-65911227D01*
X166315765Y-65887428D01*
X166324030Y-65864329D01*
X166334520Y-65842150D01*
X166347132Y-65821107D01*
X166361747Y-65801401D01*
X166378223Y-65783223D01*
X166396401Y-65766747D01*
X166416107Y-65752132D01*
X166437150Y-65739520D01*
X166459329Y-65729030D01*
X166482428Y-65720765D01*
X166506227Y-65714804D01*
X166530495Y-65711204D01*
X166554999Y-65710000D01*
X167455001Y-65710000D01*
X167479505Y-65711204D01*
G37*
G04 #@! TD.AperFunction*
G04 #@! TA.AperFunction,SMDPad,CuDef*
G36*
X167479505Y-67761204D02*
G01*
X167503773Y-67764804D01*
X167527572Y-67770765D01*
X167550671Y-67779030D01*
X167572850Y-67789520D01*
X167593893Y-67802132D01*
X167613599Y-67816747D01*
X167631777Y-67833223D01*
X167648253Y-67851401D01*
X167662868Y-67871107D01*
X167675480Y-67892150D01*
X167685970Y-67914329D01*
X167694235Y-67937428D01*
X167700196Y-67961227D01*
X167703796Y-67985495D01*
X167705000Y-68009999D01*
X167705000Y-68660001D01*
X167703796Y-68684505D01*
X167700196Y-68708773D01*
X167694235Y-68732572D01*
X167685970Y-68755671D01*
X167675480Y-68777850D01*
X167662868Y-68798893D01*
X167648253Y-68818599D01*
X167631777Y-68836777D01*
X167613599Y-68853253D01*
X167593893Y-68867868D01*
X167572850Y-68880480D01*
X167550671Y-68890970D01*
X167527572Y-68899235D01*
X167503773Y-68905196D01*
X167479505Y-68908796D01*
X167455001Y-68910000D01*
X166554999Y-68910000D01*
X166530495Y-68908796D01*
X166506227Y-68905196D01*
X166482428Y-68899235D01*
X166459329Y-68890970D01*
X166437150Y-68880480D01*
X166416107Y-68867868D01*
X166396401Y-68853253D01*
X166378223Y-68836777D01*
X166361747Y-68818599D01*
X166347132Y-68798893D01*
X166334520Y-68777850D01*
X166324030Y-68755671D01*
X166315765Y-68732572D01*
X166309804Y-68708773D01*
X166306204Y-68684505D01*
X166305000Y-68660001D01*
X166305000Y-68009999D01*
X166306204Y-67985495D01*
X166309804Y-67961227D01*
X166315765Y-67937428D01*
X166324030Y-67914329D01*
X166334520Y-67892150D01*
X166347132Y-67871107D01*
X166361747Y-67851401D01*
X166378223Y-67833223D01*
X166396401Y-67816747D01*
X166416107Y-67802132D01*
X166437150Y-67789520D01*
X166459329Y-67779030D01*
X166482428Y-67770765D01*
X166506227Y-67764804D01*
X166530495Y-67761204D01*
X166554999Y-67760000D01*
X167455001Y-67760000D01*
X167479505Y-67761204D01*
G37*
G04 #@! TD.AperFunction*
D13*
X167640000Y-83820000D03*
X167640000Y-81280000D03*
X165100000Y-83820000D03*
X165100000Y-81280000D03*
X162560000Y-83820000D03*
D14*
X162560000Y-81280000D03*
G04 #@! TA.AperFunction,SMDPad,CuDef*
D12*
G36*
X169384505Y-65711204D02*
G01*
X169408773Y-65714804D01*
X169432572Y-65720765D01*
X169455671Y-65729030D01*
X169477850Y-65739520D01*
X169498893Y-65752132D01*
X169518599Y-65766747D01*
X169536777Y-65783223D01*
X169553253Y-65801401D01*
X169567868Y-65821107D01*
X169580480Y-65842150D01*
X169590970Y-65864329D01*
X169599235Y-65887428D01*
X169605196Y-65911227D01*
X169608796Y-65935495D01*
X169610000Y-65959999D01*
X169610000Y-66610001D01*
X169608796Y-66634505D01*
X169605196Y-66658773D01*
X169599235Y-66682572D01*
X169590970Y-66705671D01*
X169580480Y-66727850D01*
X169567868Y-66748893D01*
X169553253Y-66768599D01*
X169536777Y-66786777D01*
X169518599Y-66803253D01*
X169498893Y-66817868D01*
X169477850Y-66830480D01*
X169455671Y-66840970D01*
X169432572Y-66849235D01*
X169408773Y-66855196D01*
X169384505Y-66858796D01*
X169360001Y-66860000D01*
X168459999Y-66860000D01*
X168435495Y-66858796D01*
X168411227Y-66855196D01*
X168387428Y-66849235D01*
X168364329Y-66840970D01*
X168342150Y-66830480D01*
X168321107Y-66817868D01*
X168301401Y-66803253D01*
X168283223Y-66786777D01*
X168266747Y-66768599D01*
X168252132Y-66748893D01*
X168239520Y-66727850D01*
X168229030Y-66705671D01*
X168220765Y-66682572D01*
X168214804Y-66658773D01*
X168211204Y-66634505D01*
X168210000Y-66610001D01*
X168210000Y-65959999D01*
X168211204Y-65935495D01*
X168214804Y-65911227D01*
X168220765Y-65887428D01*
X168229030Y-65864329D01*
X168239520Y-65842150D01*
X168252132Y-65821107D01*
X168266747Y-65801401D01*
X168283223Y-65783223D01*
X168301401Y-65766747D01*
X168321107Y-65752132D01*
X168342150Y-65739520D01*
X168364329Y-65729030D01*
X168387428Y-65720765D01*
X168411227Y-65714804D01*
X168435495Y-65711204D01*
X168459999Y-65710000D01*
X169360001Y-65710000D01*
X169384505Y-65711204D01*
G37*
G04 #@! TD.AperFunction*
G04 #@! TA.AperFunction,SMDPad,CuDef*
G36*
X169384505Y-67761204D02*
G01*
X169408773Y-67764804D01*
X169432572Y-67770765D01*
X169455671Y-67779030D01*
X169477850Y-67789520D01*
X169498893Y-67802132D01*
X169518599Y-67816747D01*
X169536777Y-67833223D01*
X169553253Y-67851401D01*
X169567868Y-67871107D01*
X169580480Y-67892150D01*
X169590970Y-67914329D01*
X169599235Y-67937428D01*
X169605196Y-67961227D01*
X169608796Y-67985495D01*
X169610000Y-68009999D01*
X169610000Y-68660001D01*
X169608796Y-68684505D01*
X169605196Y-68708773D01*
X169599235Y-68732572D01*
X169590970Y-68755671D01*
X169580480Y-68777850D01*
X169567868Y-68798893D01*
X169553253Y-68818599D01*
X169536777Y-68836777D01*
X169518599Y-68853253D01*
X169498893Y-68867868D01*
X169477850Y-68880480D01*
X169455671Y-68890970D01*
X169432572Y-68899235D01*
X169408773Y-68905196D01*
X169384505Y-68908796D01*
X169360001Y-68910000D01*
X168459999Y-68910000D01*
X168435495Y-68908796D01*
X168411227Y-68905196D01*
X168387428Y-68899235D01*
X168364329Y-68890970D01*
X168342150Y-68880480D01*
X168321107Y-68867868D01*
X168301401Y-68853253D01*
X168283223Y-68836777D01*
X168266747Y-68818599D01*
X168252132Y-68798893D01*
X168239520Y-68777850D01*
X168229030Y-68755671D01*
X168220765Y-68732572D01*
X168214804Y-68708773D01*
X168211204Y-68684505D01*
X168210000Y-68660001D01*
X168210000Y-68009999D01*
X168211204Y-67985495D01*
X168214804Y-67961227D01*
X168220765Y-67937428D01*
X168229030Y-67914329D01*
X168239520Y-67892150D01*
X168252132Y-67871107D01*
X168266747Y-67851401D01*
X168283223Y-67833223D01*
X168301401Y-67816747D01*
X168321107Y-67802132D01*
X168342150Y-67789520D01*
X168364329Y-67779030D01*
X168387428Y-67770765D01*
X168411227Y-67764804D01*
X168435495Y-67761204D01*
X168459999Y-67760000D01*
X169360001Y-67760000D01*
X169384505Y-67761204D01*
G37*
G04 #@! TD.AperFunction*
D19*
X183439000Y-68580000D03*
D20*
X177241200Y-70891400D03*
X177241200Y-68580000D03*
X177241200Y-66268600D03*
G04 #@! TA.AperFunction,SMDPad,CuDef*
D12*
G36*
X169014505Y-76771204D02*
G01*
X169038773Y-76774804D01*
X169062572Y-76780765D01*
X169085671Y-76789030D01*
X169107850Y-76799520D01*
X169128893Y-76812132D01*
X169148599Y-76826747D01*
X169166777Y-76843223D01*
X169183253Y-76861401D01*
X169197868Y-76881107D01*
X169210480Y-76902150D01*
X169220970Y-76924329D01*
X169229235Y-76947428D01*
X169235196Y-76971227D01*
X169238796Y-76995495D01*
X169240000Y-77019999D01*
X169240000Y-77920001D01*
X169238796Y-77944505D01*
X169235196Y-77968773D01*
X169229235Y-77992572D01*
X169220970Y-78015671D01*
X169210480Y-78037850D01*
X169197868Y-78058893D01*
X169183253Y-78078599D01*
X169166777Y-78096777D01*
X169148599Y-78113253D01*
X169128893Y-78127868D01*
X169107850Y-78140480D01*
X169085671Y-78150970D01*
X169062572Y-78159235D01*
X169038773Y-78165196D01*
X169014505Y-78168796D01*
X168990001Y-78170000D01*
X168339999Y-78170000D01*
X168315495Y-78168796D01*
X168291227Y-78165196D01*
X168267428Y-78159235D01*
X168244329Y-78150970D01*
X168222150Y-78140480D01*
X168201107Y-78127868D01*
X168181401Y-78113253D01*
X168163223Y-78096777D01*
X168146747Y-78078599D01*
X168132132Y-78058893D01*
X168119520Y-78037850D01*
X168109030Y-78015671D01*
X168100765Y-77992572D01*
X168094804Y-77968773D01*
X168091204Y-77944505D01*
X168090000Y-77920001D01*
X168090000Y-77019999D01*
X168091204Y-76995495D01*
X168094804Y-76971227D01*
X168100765Y-76947428D01*
X168109030Y-76924329D01*
X168119520Y-76902150D01*
X168132132Y-76881107D01*
X168146747Y-76861401D01*
X168163223Y-76843223D01*
X168181401Y-76826747D01*
X168201107Y-76812132D01*
X168222150Y-76799520D01*
X168244329Y-76789030D01*
X168267428Y-76780765D01*
X168291227Y-76774804D01*
X168315495Y-76771204D01*
X168339999Y-76770000D01*
X168990001Y-76770000D01*
X169014505Y-76771204D01*
G37*
G04 #@! TD.AperFunction*
G04 #@! TA.AperFunction,SMDPad,CuDef*
G36*
X166964505Y-76771204D02*
G01*
X166988773Y-76774804D01*
X167012572Y-76780765D01*
X167035671Y-76789030D01*
X167057850Y-76799520D01*
X167078893Y-76812132D01*
X167098599Y-76826747D01*
X167116777Y-76843223D01*
X167133253Y-76861401D01*
X167147868Y-76881107D01*
X167160480Y-76902150D01*
X167170970Y-76924329D01*
X167179235Y-76947428D01*
X167185196Y-76971227D01*
X167188796Y-76995495D01*
X167190000Y-77019999D01*
X167190000Y-77920001D01*
X167188796Y-77944505D01*
X167185196Y-77968773D01*
X167179235Y-77992572D01*
X167170970Y-78015671D01*
X167160480Y-78037850D01*
X167147868Y-78058893D01*
X167133253Y-78078599D01*
X167116777Y-78096777D01*
X167098599Y-78113253D01*
X167078893Y-78127868D01*
X167057850Y-78140480D01*
X167035671Y-78150970D01*
X167012572Y-78159235D01*
X166988773Y-78165196D01*
X166964505Y-78168796D01*
X166940001Y-78170000D01*
X166289999Y-78170000D01*
X166265495Y-78168796D01*
X166241227Y-78165196D01*
X166217428Y-78159235D01*
X166194329Y-78150970D01*
X166172150Y-78140480D01*
X166151107Y-78127868D01*
X166131401Y-78113253D01*
X166113223Y-78096777D01*
X166096747Y-78078599D01*
X166082132Y-78058893D01*
X166069520Y-78037850D01*
X166059030Y-78015671D01*
X166050765Y-77992572D01*
X166044804Y-77968773D01*
X166041204Y-77944505D01*
X166040000Y-77920001D01*
X166040000Y-77019999D01*
X166041204Y-76995495D01*
X166044804Y-76971227D01*
X166050765Y-76947428D01*
X166059030Y-76924329D01*
X166069520Y-76902150D01*
X166082132Y-76881107D01*
X166096747Y-76861401D01*
X166113223Y-76843223D01*
X166131401Y-76826747D01*
X166151107Y-76812132D01*
X166172150Y-76799520D01*
X166194329Y-76789030D01*
X166217428Y-76780765D01*
X166241227Y-76774804D01*
X166265495Y-76771204D01*
X166289999Y-76770000D01*
X166940001Y-76770000D01*
X166964505Y-76771204D01*
G37*
G04 #@! TD.AperFunction*
D21*
X175690000Y-93590000D03*
X175690000Y-87630000D03*
G04 #@! TA.AperFunction,SMDPad,CuDef*
D12*
G36*
X171289505Y-65711204D02*
G01*
X171313773Y-65714804D01*
X171337572Y-65720765D01*
X171360671Y-65729030D01*
X171382850Y-65739520D01*
X171403893Y-65752132D01*
X171423599Y-65766747D01*
X171441777Y-65783223D01*
X171458253Y-65801401D01*
X171472868Y-65821107D01*
X171485480Y-65842150D01*
X171495970Y-65864329D01*
X171504235Y-65887428D01*
X171510196Y-65911227D01*
X171513796Y-65935495D01*
X171515000Y-65959999D01*
X171515000Y-66610001D01*
X171513796Y-66634505D01*
X171510196Y-66658773D01*
X171504235Y-66682572D01*
X171495970Y-66705671D01*
X171485480Y-66727850D01*
X171472868Y-66748893D01*
X171458253Y-66768599D01*
X171441777Y-66786777D01*
X171423599Y-66803253D01*
X171403893Y-66817868D01*
X171382850Y-66830480D01*
X171360671Y-66840970D01*
X171337572Y-66849235D01*
X171313773Y-66855196D01*
X171289505Y-66858796D01*
X171265001Y-66860000D01*
X170364999Y-66860000D01*
X170340495Y-66858796D01*
X170316227Y-66855196D01*
X170292428Y-66849235D01*
X170269329Y-66840970D01*
X170247150Y-66830480D01*
X170226107Y-66817868D01*
X170206401Y-66803253D01*
X170188223Y-66786777D01*
X170171747Y-66768599D01*
X170157132Y-66748893D01*
X170144520Y-66727850D01*
X170134030Y-66705671D01*
X170125765Y-66682572D01*
X170119804Y-66658773D01*
X170116204Y-66634505D01*
X170115000Y-66610001D01*
X170115000Y-65959999D01*
X170116204Y-65935495D01*
X170119804Y-65911227D01*
X170125765Y-65887428D01*
X170134030Y-65864329D01*
X170144520Y-65842150D01*
X170157132Y-65821107D01*
X170171747Y-65801401D01*
X170188223Y-65783223D01*
X170206401Y-65766747D01*
X170226107Y-65752132D01*
X170247150Y-65739520D01*
X170269329Y-65729030D01*
X170292428Y-65720765D01*
X170316227Y-65714804D01*
X170340495Y-65711204D01*
X170364999Y-65710000D01*
X171265001Y-65710000D01*
X171289505Y-65711204D01*
G37*
G04 #@! TD.AperFunction*
G04 #@! TA.AperFunction,SMDPad,CuDef*
G36*
X171289505Y-67761204D02*
G01*
X171313773Y-67764804D01*
X171337572Y-67770765D01*
X171360671Y-67779030D01*
X171382850Y-67789520D01*
X171403893Y-67802132D01*
X171423599Y-67816747D01*
X171441777Y-67833223D01*
X171458253Y-67851401D01*
X171472868Y-67871107D01*
X171485480Y-67892150D01*
X171495970Y-67914329D01*
X171504235Y-67937428D01*
X171510196Y-67961227D01*
X171513796Y-67985495D01*
X171515000Y-68009999D01*
X171515000Y-68660001D01*
X171513796Y-68684505D01*
X171510196Y-68708773D01*
X171504235Y-68732572D01*
X171495970Y-68755671D01*
X171485480Y-68777850D01*
X171472868Y-68798893D01*
X171458253Y-68818599D01*
X171441777Y-68836777D01*
X171423599Y-68853253D01*
X171403893Y-68867868D01*
X171382850Y-68880480D01*
X171360671Y-68890970D01*
X171337572Y-68899235D01*
X171313773Y-68905196D01*
X171289505Y-68908796D01*
X171265001Y-68910000D01*
X170364999Y-68910000D01*
X170340495Y-68908796D01*
X170316227Y-68905196D01*
X170292428Y-68899235D01*
X170269329Y-68890970D01*
X170247150Y-68880480D01*
X170226107Y-68867868D01*
X170206401Y-68853253D01*
X170188223Y-68836777D01*
X170171747Y-68818599D01*
X170157132Y-68798893D01*
X170144520Y-68777850D01*
X170134030Y-68755671D01*
X170125765Y-68732572D01*
X170119804Y-68708773D01*
X170116204Y-68684505D01*
X170115000Y-68660001D01*
X170115000Y-68009999D01*
X170116204Y-67985495D01*
X170119804Y-67961227D01*
X170125765Y-67937428D01*
X170134030Y-67914329D01*
X170144520Y-67892150D01*
X170157132Y-67871107D01*
X170171747Y-67851401D01*
X170188223Y-67833223D01*
X170206401Y-67816747D01*
X170226107Y-67802132D01*
X170247150Y-67789520D01*
X170269329Y-67779030D01*
X170292428Y-67770765D01*
X170316227Y-67764804D01*
X170340495Y-67761204D01*
X170364999Y-67760000D01*
X171265001Y-67760000D01*
X171289505Y-67761204D01*
G37*
G04 #@! TD.AperFunction*
G04 #@! TA.AperFunction,SMDPad,CuDef*
G36*
X173194505Y-65711204D02*
G01*
X173218773Y-65714804D01*
X173242572Y-65720765D01*
X173265671Y-65729030D01*
X173287850Y-65739520D01*
X173308893Y-65752132D01*
X173328599Y-65766747D01*
X173346777Y-65783223D01*
X173363253Y-65801401D01*
X173377868Y-65821107D01*
X173390480Y-65842150D01*
X173400970Y-65864329D01*
X173409235Y-65887428D01*
X173415196Y-65911227D01*
X173418796Y-65935495D01*
X173420000Y-65959999D01*
X173420000Y-66610001D01*
X173418796Y-66634505D01*
X173415196Y-66658773D01*
X173409235Y-66682572D01*
X173400970Y-66705671D01*
X173390480Y-66727850D01*
X173377868Y-66748893D01*
X173363253Y-66768599D01*
X173346777Y-66786777D01*
X173328599Y-66803253D01*
X173308893Y-66817868D01*
X173287850Y-66830480D01*
X173265671Y-66840970D01*
X173242572Y-66849235D01*
X173218773Y-66855196D01*
X173194505Y-66858796D01*
X173170001Y-66860000D01*
X172269999Y-66860000D01*
X172245495Y-66858796D01*
X172221227Y-66855196D01*
X172197428Y-66849235D01*
X172174329Y-66840970D01*
X172152150Y-66830480D01*
X172131107Y-66817868D01*
X172111401Y-66803253D01*
X172093223Y-66786777D01*
X172076747Y-66768599D01*
X172062132Y-66748893D01*
X172049520Y-66727850D01*
X172039030Y-66705671D01*
X172030765Y-66682572D01*
X172024804Y-66658773D01*
X172021204Y-66634505D01*
X172020000Y-66610001D01*
X172020000Y-65959999D01*
X172021204Y-65935495D01*
X172024804Y-65911227D01*
X172030765Y-65887428D01*
X172039030Y-65864329D01*
X172049520Y-65842150D01*
X172062132Y-65821107D01*
X172076747Y-65801401D01*
X172093223Y-65783223D01*
X172111401Y-65766747D01*
X172131107Y-65752132D01*
X172152150Y-65739520D01*
X172174329Y-65729030D01*
X172197428Y-65720765D01*
X172221227Y-65714804D01*
X172245495Y-65711204D01*
X172269999Y-65710000D01*
X173170001Y-65710000D01*
X173194505Y-65711204D01*
G37*
G04 #@! TD.AperFunction*
G04 #@! TA.AperFunction,SMDPad,CuDef*
G36*
X173194505Y-67761204D02*
G01*
X173218773Y-67764804D01*
X173242572Y-67770765D01*
X173265671Y-67779030D01*
X173287850Y-67789520D01*
X173308893Y-67802132D01*
X173328599Y-67816747D01*
X173346777Y-67833223D01*
X173363253Y-67851401D01*
X173377868Y-67871107D01*
X173390480Y-67892150D01*
X173400970Y-67914329D01*
X173409235Y-67937428D01*
X173415196Y-67961227D01*
X173418796Y-67985495D01*
X173420000Y-68009999D01*
X173420000Y-68660001D01*
X173418796Y-68684505D01*
X173415196Y-68708773D01*
X173409235Y-68732572D01*
X173400970Y-68755671D01*
X173390480Y-68777850D01*
X173377868Y-68798893D01*
X173363253Y-68818599D01*
X173346777Y-68836777D01*
X173328599Y-68853253D01*
X173308893Y-68867868D01*
X173287850Y-68880480D01*
X173265671Y-68890970D01*
X173242572Y-68899235D01*
X173218773Y-68905196D01*
X173194505Y-68908796D01*
X173170001Y-68910000D01*
X172269999Y-68910000D01*
X172245495Y-68908796D01*
X172221227Y-68905196D01*
X172197428Y-68899235D01*
X172174329Y-68890970D01*
X172152150Y-68880480D01*
X172131107Y-68867868D01*
X172111401Y-68853253D01*
X172093223Y-68836777D01*
X172076747Y-68818599D01*
X172062132Y-68798893D01*
X172049520Y-68777850D01*
X172039030Y-68755671D01*
X172030765Y-68732572D01*
X172024804Y-68708773D01*
X172021204Y-68684505D01*
X172020000Y-68660001D01*
X172020000Y-68009999D01*
X172021204Y-67985495D01*
X172024804Y-67961227D01*
X172030765Y-67937428D01*
X172039030Y-67914329D01*
X172049520Y-67892150D01*
X172062132Y-67871107D01*
X172076747Y-67851401D01*
X172093223Y-67833223D01*
X172111401Y-67816747D01*
X172131107Y-67802132D01*
X172152150Y-67789520D01*
X172174329Y-67779030D01*
X172197428Y-67770765D01*
X172221227Y-67764804D01*
X172245495Y-67761204D01*
X172269999Y-67760000D01*
X173170001Y-67760000D01*
X173194505Y-67761204D01*
G37*
G04 #@! TD.AperFunction*
G04 #@! TA.AperFunction,SMDPad,CuDef*
G36*
X174564504Y-78421204D02*
G01*
X174588773Y-78424804D01*
X174612571Y-78430765D01*
X174635671Y-78439030D01*
X174657849Y-78449520D01*
X174678893Y-78462133D01*
X174698598Y-78476747D01*
X174716777Y-78493223D01*
X174733253Y-78511402D01*
X174747867Y-78531107D01*
X174760480Y-78552151D01*
X174770970Y-78574329D01*
X174779235Y-78597429D01*
X174785196Y-78621227D01*
X174788796Y-78645496D01*
X174790000Y-78670000D01*
X174790000Y-81670000D01*
X174788796Y-81694504D01*
X174785196Y-81718773D01*
X174779235Y-81742571D01*
X174770970Y-81765671D01*
X174760480Y-81787849D01*
X174747867Y-81808893D01*
X174733253Y-81828598D01*
X174716777Y-81846777D01*
X174698598Y-81863253D01*
X174678893Y-81877867D01*
X174657849Y-81890480D01*
X174635671Y-81900970D01*
X174612571Y-81909235D01*
X174588773Y-81915196D01*
X174564504Y-81918796D01*
X174540000Y-81920000D01*
X173440000Y-81920000D01*
X173415496Y-81918796D01*
X173391227Y-81915196D01*
X173367429Y-81909235D01*
X173344329Y-81900970D01*
X173322151Y-81890480D01*
X173301107Y-81877867D01*
X173281402Y-81863253D01*
X173263223Y-81846777D01*
X173246747Y-81828598D01*
X173232133Y-81808893D01*
X173219520Y-81787849D01*
X173209030Y-81765671D01*
X173200765Y-81742571D01*
X173194804Y-81718773D01*
X173191204Y-81694504D01*
X173190000Y-81670000D01*
X173190000Y-78670000D01*
X173191204Y-78645496D01*
X173194804Y-78621227D01*
X173200765Y-78597429D01*
X173209030Y-78574329D01*
X173219520Y-78552151D01*
X173232133Y-78531107D01*
X173246747Y-78511402D01*
X173263223Y-78493223D01*
X173281402Y-78476747D01*
X173301107Y-78462133D01*
X173322151Y-78449520D01*
X173344329Y-78439030D01*
X173367429Y-78430765D01*
X173391227Y-78424804D01*
X173415496Y-78421204D01*
X173440000Y-78420000D01*
X174540000Y-78420000D01*
X174564504Y-78421204D01*
G37*
G04 #@! TD.AperFunction*
G04 #@! TA.AperFunction,SMDPad,CuDef*
G36*
X174564504Y-73021204D02*
G01*
X174588773Y-73024804D01*
X174612571Y-73030765D01*
X174635671Y-73039030D01*
X174657849Y-73049520D01*
X174678893Y-73062133D01*
X174698598Y-73076747D01*
X174716777Y-73093223D01*
X174733253Y-73111402D01*
X174747867Y-73131107D01*
X174760480Y-73152151D01*
X174770970Y-73174329D01*
X174779235Y-73197429D01*
X174785196Y-73221227D01*
X174788796Y-73245496D01*
X174790000Y-73270000D01*
X174790000Y-76270000D01*
X174788796Y-76294504D01*
X174785196Y-76318773D01*
X174779235Y-76342571D01*
X174770970Y-76365671D01*
X174760480Y-76387849D01*
X174747867Y-76408893D01*
X174733253Y-76428598D01*
X174716777Y-76446777D01*
X174698598Y-76463253D01*
X174678893Y-76477867D01*
X174657849Y-76490480D01*
X174635671Y-76500970D01*
X174612571Y-76509235D01*
X174588773Y-76515196D01*
X174564504Y-76518796D01*
X174540000Y-76520000D01*
X173440000Y-76520000D01*
X173415496Y-76518796D01*
X173391227Y-76515196D01*
X173367429Y-76509235D01*
X173344329Y-76500970D01*
X173322151Y-76490480D01*
X173301107Y-76477867D01*
X173281402Y-76463253D01*
X173263223Y-76446777D01*
X173246747Y-76428598D01*
X173232133Y-76408893D01*
X173219520Y-76387849D01*
X173209030Y-76365671D01*
X173200765Y-76342571D01*
X173194804Y-76318773D01*
X173191204Y-76294504D01*
X173190000Y-76270000D01*
X173190000Y-73270000D01*
X173191204Y-73245496D01*
X173194804Y-73221227D01*
X173200765Y-73197429D01*
X173209030Y-73174329D01*
X173219520Y-73152151D01*
X173232133Y-73131107D01*
X173246747Y-73111402D01*
X173263223Y-73093223D01*
X173281402Y-73076747D01*
X173301107Y-73062133D01*
X173322151Y-73049520D01*
X173344329Y-73039030D01*
X173367429Y-73030765D01*
X173391227Y-73024804D01*
X173415496Y-73021204D01*
X173440000Y-73020000D01*
X174540000Y-73020000D01*
X174564504Y-73021204D01*
G37*
G04 #@! TD.AperFunction*
G04 #@! TA.AperFunction,SMDPad,CuDef*
G36*
X185994504Y-78421204D02*
G01*
X186018773Y-78424804D01*
X186042571Y-78430765D01*
X186065671Y-78439030D01*
X186087849Y-78449520D01*
X186108893Y-78462133D01*
X186128598Y-78476747D01*
X186146777Y-78493223D01*
X186163253Y-78511402D01*
X186177867Y-78531107D01*
X186190480Y-78552151D01*
X186200970Y-78574329D01*
X186209235Y-78597429D01*
X186215196Y-78621227D01*
X186218796Y-78645496D01*
X186220000Y-78670000D01*
X186220000Y-81670000D01*
X186218796Y-81694504D01*
X186215196Y-81718773D01*
X186209235Y-81742571D01*
X186200970Y-81765671D01*
X186190480Y-81787849D01*
X186177867Y-81808893D01*
X186163253Y-81828598D01*
X186146777Y-81846777D01*
X186128598Y-81863253D01*
X186108893Y-81877867D01*
X186087849Y-81890480D01*
X186065671Y-81900970D01*
X186042571Y-81909235D01*
X186018773Y-81915196D01*
X185994504Y-81918796D01*
X185970000Y-81920000D01*
X184870000Y-81920000D01*
X184845496Y-81918796D01*
X184821227Y-81915196D01*
X184797429Y-81909235D01*
X184774329Y-81900970D01*
X184752151Y-81890480D01*
X184731107Y-81877867D01*
X184711402Y-81863253D01*
X184693223Y-81846777D01*
X184676747Y-81828598D01*
X184662133Y-81808893D01*
X184649520Y-81787849D01*
X184639030Y-81765671D01*
X184630765Y-81742571D01*
X184624804Y-81718773D01*
X184621204Y-81694504D01*
X184620000Y-81670000D01*
X184620000Y-78670000D01*
X184621204Y-78645496D01*
X184624804Y-78621227D01*
X184630765Y-78597429D01*
X184639030Y-78574329D01*
X184649520Y-78552151D01*
X184662133Y-78531107D01*
X184676747Y-78511402D01*
X184693223Y-78493223D01*
X184711402Y-78476747D01*
X184731107Y-78462133D01*
X184752151Y-78449520D01*
X184774329Y-78439030D01*
X184797429Y-78430765D01*
X184821227Y-78424804D01*
X184845496Y-78421204D01*
X184870000Y-78420000D01*
X185970000Y-78420000D01*
X185994504Y-78421204D01*
G37*
G04 #@! TD.AperFunction*
G04 #@! TA.AperFunction,SMDPad,CuDef*
G36*
X185994504Y-73021204D02*
G01*
X186018773Y-73024804D01*
X186042571Y-73030765D01*
X186065671Y-73039030D01*
X186087849Y-73049520D01*
X186108893Y-73062133D01*
X186128598Y-73076747D01*
X186146777Y-73093223D01*
X186163253Y-73111402D01*
X186177867Y-73131107D01*
X186190480Y-73152151D01*
X186200970Y-73174329D01*
X186209235Y-73197429D01*
X186215196Y-73221227D01*
X186218796Y-73245496D01*
X186220000Y-73270000D01*
X186220000Y-76270000D01*
X186218796Y-76294504D01*
X186215196Y-76318773D01*
X186209235Y-76342571D01*
X186200970Y-76365671D01*
X186190480Y-76387849D01*
X186177867Y-76408893D01*
X186163253Y-76428598D01*
X186146777Y-76446777D01*
X186128598Y-76463253D01*
X186108893Y-76477867D01*
X186087849Y-76490480D01*
X186065671Y-76500970D01*
X186042571Y-76509235D01*
X186018773Y-76515196D01*
X185994504Y-76518796D01*
X185970000Y-76520000D01*
X184870000Y-76520000D01*
X184845496Y-76518796D01*
X184821227Y-76515196D01*
X184797429Y-76509235D01*
X184774329Y-76500970D01*
X184752151Y-76490480D01*
X184731107Y-76477867D01*
X184711402Y-76463253D01*
X184693223Y-76446777D01*
X184676747Y-76428598D01*
X184662133Y-76408893D01*
X184649520Y-76387849D01*
X184639030Y-76365671D01*
X184630765Y-76342571D01*
X184624804Y-76318773D01*
X184621204Y-76294504D01*
X184620000Y-76270000D01*
X184620000Y-73270000D01*
X184621204Y-73245496D01*
X184624804Y-73221227D01*
X184630765Y-73197429D01*
X184639030Y-73174329D01*
X184649520Y-73152151D01*
X184662133Y-73131107D01*
X184676747Y-73111402D01*
X184693223Y-73093223D01*
X184711402Y-73076747D01*
X184731107Y-73062133D01*
X184752151Y-73049520D01*
X184774329Y-73039030D01*
X184797429Y-73030765D01*
X184821227Y-73024804D01*
X184845496Y-73021204D01*
X184870000Y-73020000D01*
X185970000Y-73020000D01*
X185994504Y-73021204D01*
G37*
G04 #@! TD.AperFunction*
D22*
X147320000Y-87630000D03*
X140335000Y-92075000D03*
X175895000Y-93980000D03*
X186690000Y-83185000D03*
X175260000Y-83185000D03*
X175031400Y-66268600D03*
X167005000Y-73660000D03*
X144145000Y-89535000D03*
X140335000Y-86360000D03*
X146050000Y-85090000D03*
X161290000Y-85725000D03*
X172085000Y-71755000D03*
X159385000Y-82549996D03*
X142240000Y-83820000D03*
X146050000Y-78740000D03*
X142240000Y-80010000D03*
X157480000Y-87630000D03*
D23*
X177241200Y-71751000D02*
X177241200Y-70891400D01*
X180260200Y-74770000D02*
X177241200Y-71751000D01*
D24*
X175690000Y-87630000D02*
X177800000Y-87630000D01*
D23*
X180340000Y-85090000D02*
X180340000Y-74930000D01*
D24*
X177800000Y-87630000D02*
X180340000Y-85090000D01*
X180340000Y-74930000D02*
X180260200Y-74770000D01*
X180359389Y-74910611D02*
X180340000Y-74930000D01*
X185420000Y-74770000D02*
X185279389Y-74910611D01*
D23*
X185279389Y-74910611D02*
X180359389Y-74910611D01*
X165100000Y-65710000D02*
X165100000Y-66285000D01*
X166040000Y-64770000D02*
X165100000Y-65710000D01*
X178663600Y-70891400D02*
X179705000Y-69850000D01*
X177241200Y-70891400D02*
X178663600Y-70891400D01*
X179705000Y-65257599D02*
X179217401Y-64770000D01*
X179705000Y-69850000D02*
X179705000Y-65257599D01*
X179217401Y-64770000D02*
X166040000Y-64770000D01*
X185420000Y-80170000D02*
X185420000Y-81280000D01*
X173990000Y-80170000D02*
X173990000Y-81280000D01*
X175260000Y-83185000D02*
X173990000Y-81915000D01*
X173990000Y-81915000D02*
X173990000Y-80170000D01*
X185420000Y-81915000D02*
X185420000Y-80170000D01*
X186690000Y-83185000D02*
X185420000Y-81915000D01*
X172736400Y-66268600D02*
X172720000Y-66285000D01*
X177241200Y-66268600D02*
X175031400Y-66268600D01*
X172720000Y-66285000D02*
X170815000Y-66285000D01*
X170815000Y-66285000D02*
X168030000Y-66285000D01*
X175031400Y-66268600D02*
X172736400Y-66268600D01*
X168910000Y-66285000D02*
X167005000Y-66285000D01*
X171290000Y-80170000D02*
X173990000Y-80170000D01*
X167640000Y-83820000D02*
X171290000Y-80170000D01*
D25*
X167005000Y-73940038D02*
X167005000Y-73660000D01*
X157950000Y-81350000D02*
X159319990Y-79980010D01*
X163540046Y-77404992D02*
X167005000Y-73940038D01*
X156700000Y-81350000D02*
X157950000Y-81350000D01*
X159319990Y-79980010D02*
X159319990Y-78450047D01*
X159319990Y-78450047D02*
X160365046Y-77404992D01*
X160365046Y-77404992D02*
X163540046Y-77404992D01*
D23*
X159140000Y-93980000D02*
X157235000Y-95885000D01*
X160505000Y-93980000D02*
X159140000Y-93980000D01*
X146685000Y-96585000D02*
X146685000Y-95885000D01*
X156534990Y-97285010D02*
X147385010Y-97285010D01*
X147385010Y-97285010D02*
X146685000Y-96585000D01*
X157235000Y-96585000D02*
X156534990Y-97285010D01*
X157235000Y-95885000D02*
X157235000Y-96585000D01*
X139700000Y-92710000D02*
X138820000Y-92710000D01*
X140335000Y-92075000D02*
X139700000Y-92710000D01*
X146050000Y-96520000D02*
X138820000Y-96520000D01*
X146685000Y-95885000D02*
X146050000Y-96520000D01*
D25*
X148100000Y-86850000D02*
X147320000Y-87630000D01*
X148100000Y-85350000D02*
X148100000Y-86850000D01*
D23*
X172720000Y-68335000D02*
X170815000Y-68335000D01*
X176996200Y-68335000D02*
X177241200Y-68580000D01*
X172720000Y-68335000D02*
X176996200Y-68335000D01*
X175123600Y-68580000D02*
X177241200Y-68580000D01*
X173990000Y-69713600D02*
X175123600Y-68580000D01*
X173990000Y-74770000D02*
X173990000Y-69713600D01*
X162560000Y-84455000D02*
X161290000Y-85725000D01*
X162560000Y-83820000D02*
X162560000Y-84455000D01*
D25*
X158984996Y-82950000D02*
X159385000Y-82549996D01*
D23*
X166615000Y-76770000D02*
X166615000Y-77470000D01*
X168615000Y-74770000D02*
X166615000Y-76770000D01*
X173990000Y-74770000D02*
X168615000Y-74770000D01*
D25*
X159385000Y-82476484D02*
X159348244Y-82513240D01*
X157715000Y-82950000D02*
X156700000Y-82950000D01*
X158984996Y-82950000D02*
X157715000Y-82950000D01*
D23*
X173990000Y-69850000D02*
X172085000Y-71755000D01*
X173990000Y-69713600D02*
X173990000Y-69850000D01*
D25*
X146590000Y-84550000D02*
X148100000Y-84550000D01*
X146050000Y-85090000D02*
X146590000Y-84550000D01*
X146050000Y-85090000D02*
X144145000Y-86995000D01*
X144145000Y-86995000D02*
X144145000Y-88769980D01*
D23*
X139700000Y-86995000D02*
X140335000Y-86360000D01*
X138820000Y-86995000D02*
X139700000Y-86995000D01*
X144145000Y-88769980D02*
X144145000Y-89535000D01*
X144145000Y-87080514D02*
X146092757Y-85132757D01*
X144145000Y-88769980D02*
X144145000Y-87080514D01*
D25*
X153740000Y-91440000D02*
X155415000Y-91440000D01*
X150400000Y-88100000D02*
X153740000Y-91440000D01*
X150400000Y-86850000D02*
X150400000Y-88100000D01*
D23*
X152790000Y-94065000D02*
X155415000Y-91440000D01*
X152790000Y-95885000D02*
X152790000Y-94065000D01*
X155185000Y-95885000D02*
X152790000Y-95885000D01*
D25*
X149600000Y-89955000D02*
X148115000Y-91440000D01*
X149600000Y-86850000D02*
X149600000Y-89955000D01*
D23*
X148115000Y-91440000D02*
X147165000Y-91440000D01*
X150740000Y-95885000D02*
X148735000Y-95885000D01*
X150740000Y-94065000D02*
X148115000Y-91440000D01*
X150740000Y-95885000D02*
X150740000Y-94065000D01*
D25*
X168910000Y-68910000D02*
X168910000Y-68335000D01*
X163830000Y-78105000D02*
X168910000Y-73025000D01*
X158515000Y-82150000D02*
X160020000Y-80645000D01*
X156700000Y-82150000D02*
X158515000Y-82150000D01*
X168910000Y-73025000D02*
X168910000Y-68910000D01*
X160020000Y-80645000D02*
X160020000Y-78740000D01*
X160020000Y-78740000D02*
X160655000Y-78105000D01*
X160655000Y-78105000D02*
X163830000Y-78105000D01*
D23*
X136770000Y-92710000D02*
X136770000Y-90805000D01*
D25*
X144710000Y-81350000D02*
X148100000Y-81350000D01*
X141539990Y-84520010D02*
X142240000Y-83820000D01*
X138820000Y-88900000D02*
X140970000Y-88900000D01*
X141539990Y-88330010D02*
X141539990Y-84520010D01*
X140970000Y-88900000D02*
X141539990Y-88330010D01*
X142240000Y-83820000D02*
X144710000Y-81350000D01*
X136770000Y-88900000D02*
X136770000Y-86995000D01*
D23*
X136770000Y-94615000D02*
X136770000Y-96520000D01*
D25*
X162560000Y-81915000D02*
X159925000Y-84550000D01*
X157950000Y-84550000D02*
X156700000Y-84550000D01*
X162560000Y-81280000D02*
X162560000Y-81915000D01*
X159925000Y-84550000D02*
X157950000Y-84550000D01*
X157735002Y-83750000D02*
X156700000Y-83750000D01*
X157950000Y-83750000D02*
X156700000Y-83750000D01*
X159455000Y-83750000D02*
X157950000Y-83750000D01*
X161259999Y-81945001D02*
X159455000Y-83750000D01*
X165100000Y-80010000D02*
X164465000Y-79375000D01*
X161259999Y-80069999D02*
X161259999Y-81945001D01*
X161954998Y-79375000D02*
X161259999Y-80069999D01*
X165100000Y-81280000D02*
X165100000Y-80010000D01*
X164465000Y-79375000D02*
X161954998Y-79375000D01*
X158375000Y-85350000D02*
X156700000Y-85350000D01*
X160020000Y-86995000D02*
X158375000Y-85350000D01*
X165100000Y-83820000D02*
X165100000Y-85090000D01*
X163195000Y-86995000D02*
X160020000Y-86995000D01*
X165100000Y-85090000D02*
X163195000Y-86995000D01*
D23*
X168665000Y-80255000D02*
X167640000Y-81280000D01*
X168665000Y-77470000D02*
X168665000Y-80255000D01*
X176460009Y-83682061D02*
X175712071Y-84429999D01*
X176460009Y-79246489D02*
X176460009Y-83682061D01*
X175712071Y-84429999D02*
X170129999Y-84429999D01*
X174683520Y-77470000D02*
X176460009Y-79246489D01*
X168665000Y-77470000D02*
X174683520Y-77470000D01*
X147265001Y-78740000D02*
X148100000Y-79574999D01*
X146050000Y-78740000D02*
X147265001Y-78740000D01*
X167640000Y-86919998D02*
X170129999Y-84429999D01*
X167640000Y-90750000D02*
X167640000Y-86919998D01*
D25*
X148100000Y-80550000D02*
X142780000Y-80550000D01*
X142780000Y-80550000D02*
X142240000Y-80010000D01*
X142240000Y-80010000D02*
X142240000Y-80010000D01*
X148590000Y-76200000D02*
X146050000Y-73660000D01*
X151765000Y-76200000D02*
X148590000Y-76200000D01*
X152800000Y-78250000D02*
X152800000Y-77235000D01*
X152800000Y-77235000D02*
X151765000Y-76200000D01*
X150429989Y-75499989D02*
X149439999Y-74509999D01*
X152524954Y-75499989D02*
X150429989Y-75499989D01*
X153600000Y-78250000D02*
X153600000Y-76575035D01*
X149439999Y-74509999D02*
X148590000Y-73660000D01*
X153600000Y-76575035D02*
X152524954Y-75499989D01*
X155980000Y-87630000D02*
X155200000Y-86850000D01*
X157480000Y-87630000D02*
X155980000Y-87630000D01*
X142240000Y-89535000D02*
X140970000Y-90805000D01*
X142240000Y-85725000D02*
X142240000Y-89535000D01*
X148100000Y-82950000D02*
X145015000Y-82950000D01*
X140970000Y-90805000D02*
X139700000Y-90805000D01*
X145015000Y-82950000D02*
X142240000Y-85725000D01*
X139395000Y-94615000D02*
X138820000Y-94615000D01*
X146131998Y-83750000D02*
X142940011Y-86941987D01*
X142940011Y-91069989D02*
X139395000Y-94615000D01*
X148100000Y-83750000D02*
X146131998Y-83750000D01*
X142940011Y-86941987D02*
X142940011Y-91069989D01*
D23*
X167005000Y-68335000D02*
X165100000Y-68335000D01*
D25*
X165100000Y-71680074D02*
X165100000Y-68335000D01*
X158619980Y-78160094D02*
X165100000Y-71680074D01*
X158619980Y-79665022D02*
X158619980Y-78160094D01*
X156700000Y-80550000D02*
X157735002Y-80550000D01*
X157735002Y-80550000D02*
X158619980Y-79665022D01*
M02*
