M48
; DRILL file {KiCad (5.1.5)-3} date 1/05/2020 14:03:56
; FORMAT={-:-/ absolute / inch / decimal}
; #@! TF.CreationDate,2020-05-01T14:03:56+02:00
; #@! TF.GenerationSoftware,Kicad,Pcbnew,(5.1.5)-3
FMAT,2
INCH
T1C0.0157
T2C0.0394
T3C0.0433
%
G90
G05
T1
X5.525Y-3.4
X5.525Y-3.625
X5.6Y-3.15
X5.6Y-3.3
X5.675Y-3.525
X5.75Y-3.1
X5.75Y-3.35
X5.8Y-3.45
X6.2Y-3.45
X6.275Y-3.25
X6.35Y-3.375
X6.575Y-2.9
X6.775Y-2.825
X6.891Y-2.609
X6.9Y-3.275
X6.925Y-3.7
X7.35Y-3.275
T2
X5.15Y-2.775
X5.15Y-2.875
X5.15Y-2.975
X5.15Y-3.075
X5.15Y-3.175
X5.15Y-3.275
X5.55Y-2.9
X5.65Y-2.9
X5.75Y-2.9
X5.85Y-2.9
X5.95Y-2.9
X6.05Y-2.9
X6.15Y-2.9
X6.25Y-2.9
X6.4Y-3.2
X6.4Y-3.3
X6.5Y-3.2
X6.5Y-3.3
X6.6Y-3.2
X6.6Y-3.3
T3
X6.3441Y-3.5728
X6.3441Y-3.75
X6.6Y-3.5728
X6.6Y-3.75
T0
M30
