G04 #@! TF.GenerationSoftware,KiCad,Pcbnew,(5.1.5)-3*
G04 #@! TF.CreationDate,2020-05-01T14:03:58+02:00*
G04 #@! TF.ProjectId,Arduino_Uno_R3_From_Scratch,41726475-696e-46f5-9f55-6e6f5f52335f,rev?*
G04 #@! TF.SameCoordinates,Original*
G04 #@! TF.FileFunction,Legend,Top*
G04 #@! TF.FilePolarity,Positive*
%FSLAX46Y46*%
G04 Gerber Fmt 4.6, Leading zero omitted, Abs format (unit mm)*
G04 Created by KiCad (PCBNEW (5.1.5)-3) date 2020-05-01 14:03:58*
%MOMM*%
%LPD*%
G04 APERTURE LIST*
%ADD10C,0.120000*%
%ADD11C,0.100000*%
%ADD12C,0.152400*%
%ADD13C,0.127000*%
%ADD14C,0.203200*%
%ADD15C,0.150000*%
%ADD16C,0.015000*%
G04 APERTURE END LIST*
D10*
X138056252Y-86285000D02*
X137533748Y-86285000D01*
X138056252Y-87705000D02*
X137533748Y-87705000D01*
X137533748Y-95325000D02*
X138056252Y-95325000D01*
X137533748Y-93905000D02*
X138056252Y-93905000D01*
X137533748Y-91515000D02*
X138056252Y-91515000D01*
X137533748Y-90095000D02*
X138056252Y-90095000D01*
X139640000Y-73660000D02*
X139640000Y-72330000D01*
X139640000Y-72330000D02*
X140970000Y-72330000D01*
X142240000Y-72330000D02*
X160080000Y-72330000D01*
X160080000Y-74990000D02*
X160080000Y-72330000D01*
X142240000Y-74990000D02*
X160080000Y-74990000D01*
X142240000Y-74990000D02*
X142240000Y-72330000D01*
X130810000Y-69155000D02*
X131920000Y-69155000D01*
X131920000Y-69155000D02*
X131920000Y-70485000D01*
X120720000Y-69155000D02*
X120720000Y-84515000D01*
X120720000Y-84515000D02*
X129350000Y-84515000D01*
X129350000Y-69155000D02*
X129350000Y-84515000D01*
X120720000Y-69155000D02*
X129350000Y-69155000D01*
X120720000Y-81915000D02*
X129350000Y-81915000D01*
X120720000Y-79375000D02*
X129350000Y-79375000D01*
X120720000Y-76835000D02*
X129350000Y-76835000D01*
X120720000Y-74295000D02*
X129350000Y-74295000D01*
X120720000Y-71755000D02*
X129350000Y-71755000D01*
X129350000Y-83545000D02*
X129760000Y-83545000D01*
X129350000Y-82825000D02*
X129760000Y-82825000D01*
X129350000Y-81005000D02*
X129760000Y-81005000D01*
X129350000Y-80285000D02*
X129760000Y-80285000D01*
X129350000Y-78465000D02*
X129760000Y-78465000D01*
X129350000Y-77745000D02*
X129760000Y-77745000D01*
X129350000Y-75925000D02*
X129760000Y-75925000D01*
X129350000Y-75205000D02*
X129760000Y-75205000D01*
X129350000Y-73385000D02*
X129760000Y-73385000D01*
X129350000Y-72665000D02*
X129760000Y-72665000D01*
X129350000Y-70845000D02*
X129700000Y-70845000D01*
X129350000Y-70125000D02*
X129700000Y-70125000D01*
X120720000Y-71636900D02*
X129350000Y-71636900D01*
X120720000Y-71518805D02*
X129350000Y-71518805D01*
X120720000Y-71400710D02*
X129350000Y-71400710D01*
X120720000Y-71282615D02*
X129350000Y-71282615D01*
X120720000Y-71164520D02*
X129350000Y-71164520D01*
X120720000Y-71046425D02*
X129350000Y-71046425D01*
X120720000Y-70928330D02*
X129350000Y-70928330D01*
X120720000Y-70810235D02*
X129350000Y-70810235D01*
X120720000Y-70692140D02*
X129350000Y-70692140D01*
X120720000Y-70574045D02*
X129350000Y-70574045D01*
X120720000Y-70455950D02*
X129350000Y-70455950D01*
X120720000Y-70337855D02*
X129350000Y-70337855D01*
X120720000Y-70219760D02*
X129350000Y-70219760D01*
X120720000Y-70101665D02*
X129350000Y-70101665D01*
X120720000Y-69983570D02*
X129350000Y-69983570D01*
X120720000Y-69865475D02*
X129350000Y-69865475D01*
X120720000Y-69747380D02*
X129350000Y-69747380D01*
X120720000Y-69629285D02*
X129350000Y-69629285D01*
X120720000Y-69511190D02*
X129350000Y-69511190D01*
X120720000Y-69393095D02*
X129350000Y-69393095D01*
X120720000Y-69275000D02*
X129350000Y-69275000D01*
X139655000Y-95560000D02*
X136795000Y-95560000D01*
X139655000Y-97480000D02*
X139655000Y-95560000D01*
X136795000Y-97480000D02*
X139655000Y-97480000D01*
X139655000Y-87940000D02*
X136795000Y-87940000D01*
X139655000Y-89860000D02*
X139655000Y-87940000D01*
X136795000Y-89860000D02*
X139655000Y-89860000D01*
X139655000Y-91750000D02*
X136795000Y-91750000D01*
X139655000Y-93670000D02*
X139655000Y-91750000D01*
X136795000Y-93670000D02*
X139655000Y-93670000D01*
X158065000Y-88740000D02*
X148065000Y-88740000D01*
X158065000Y-94140000D02*
X158065000Y-88740000D01*
X148065000Y-94140000D02*
X158065000Y-94140000D01*
X152026252Y-95175000D02*
X151503748Y-95175000D01*
X152026252Y-96595000D02*
X151503748Y-96595000D01*
X147971252Y-95175000D02*
X147448748Y-95175000D01*
X147971252Y-96595000D02*
X147448748Y-96595000D01*
X155948748Y-96595000D02*
X156471252Y-96595000D01*
X155948748Y-95175000D02*
X156471252Y-95175000D01*
D11*
X148154000Y-78800000D02*
G75*
G03X148154000Y-78800000I-254000J0D01*
G01*
D12*
X150016000Y-79806800D02*
G75*
G03X150016000Y-79806800I-359200J0D01*
G01*
X149000000Y-79150000D02*
X155800000Y-79150000D01*
X149000000Y-85950000D02*
X149000000Y-79150000D01*
X155800000Y-85950000D02*
X149000000Y-85950000D01*
X155800000Y-79150000D02*
X155800000Y-85950000D01*
D10*
X160890000Y-92250000D02*
X160890000Y-93750000D01*
X162140000Y-96250000D02*
X166640000Y-96250000D01*
X167890000Y-93750000D02*
X167890000Y-92250000D01*
X166640000Y-89750000D02*
X162140000Y-89750000D01*
X164390000Y-67048748D02*
X164390000Y-67571252D01*
X165810000Y-67048748D02*
X165810000Y-67571252D01*
X167715000Y-67571252D02*
X167715000Y-67048748D01*
X166295000Y-67571252D02*
X166295000Y-67048748D01*
X161230000Y-81280000D02*
X161230000Y-79950000D01*
X161230000Y-79950000D02*
X162560000Y-79950000D01*
X161230000Y-82550000D02*
X163830000Y-82550000D01*
X163830000Y-82550000D02*
X163830000Y-79950000D01*
X163830000Y-79950000D02*
X168970000Y-79950000D01*
X168970000Y-85150000D02*
X168970000Y-79950000D01*
X161230000Y-85150000D02*
X168970000Y-85150000D01*
X161230000Y-85150000D02*
X161230000Y-82550000D01*
X169620000Y-67571252D02*
X169620000Y-67048748D01*
X168200000Y-67571252D02*
X168200000Y-67048748D01*
D13*
X177292000Y-64897000D02*
G75*
G03X177292000Y-64897000I-127000J0D01*
G01*
D14*
X182118000Y-65303400D02*
X182118000Y-71856600D01*
X178562000Y-65303400D02*
X182118000Y-65303400D01*
X178562000Y-71856600D02*
X178562000Y-65303400D01*
X182118000Y-71856600D02*
X178562000Y-71856600D01*
D10*
X167901252Y-78180000D02*
X167378748Y-78180000D01*
X167901252Y-76760000D02*
X167378748Y-76760000D01*
X171525000Y-67571252D02*
X171525000Y-67048748D01*
X170105000Y-67571252D02*
X170105000Y-67048748D01*
X173430000Y-67571252D02*
X173430000Y-67048748D01*
X172010000Y-67571252D02*
X172010000Y-67048748D01*
X176231250Y-73426250D02*
X175443750Y-73426250D01*
X175837500Y-73032500D02*
X175837500Y-73820000D01*
X171644437Y-74060000D02*
X170580000Y-75124437D01*
X176335563Y-74060000D02*
X177400000Y-75124437D01*
X176335563Y-74060000D02*
X175050000Y-74060000D01*
X171644437Y-74060000D02*
X172930000Y-74060000D01*
X170580000Y-75124437D02*
X170580000Y-80880000D01*
X177400000Y-75124437D02*
X177400000Y-80880000D01*
X177400000Y-80880000D02*
X175050000Y-80880000D01*
X170580000Y-80880000D02*
X172930000Y-80880000D01*
X187661250Y-73426250D02*
X186873750Y-73426250D01*
X187267500Y-73032500D02*
X187267500Y-73820000D01*
X183074437Y-74060000D02*
X182010000Y-75124437D01*
X187765563Y-74060000D02*
X188830000Y-75124437D01*
X187765563Y-74060000D02*
X186480000Y-74060000D01*
X183074437Y-74060000D02*
X184360000Y-74060000D01*
X182010000Y-75124437D02*
X182010000Y-80880000D01*
X188830000Y-75124437D02*
X188830000Y-80880000D01*
X188830000Y-80880000D02*
X186480000Y-80880000D01*
X182010000Y-80880000D02*
X184360000Y-80880000D01*
D15*
X134453333Y-87447380D02*
X134120000Y-86971190D01*
X133881904Y-87447380D02*
X133881904Y-86447380D01*
X134262857Y-86447380D01*
X134358095Y-86495000D01*
X134405714Y-86542619D01*
X134453333Y-86637857D01*
X134453333Y-86780714D01*
X134405714Y-86875952D01*
X134358095Y-86923571D01*
X134262857Y-86971190D01*
X133881904Y-86971190D01*
X135358095Y-86447380D02*
X134881904Y-86447380D01*
X134834285Y-86923571D01*
X134881904Y-86875952D01*
X134977142Y-86828333D01*
X135215238Y-86828333D01*
X135310476Y-86875952D01*
X135358095Y-86923571D01*
X135405714Y-87018809D01*
X135405714Y-87256904D01*
X135358095Y-87352142D01*
X135310476Y-87399761D01*
X135215238Y-87447380D01*
X134977142Y-87447380D01*
X134881904Y-87399761D01*
X134834285Y-87352142D01*
X134453333Y-95067380D02*
X134120000Y-94591190D01*
X133881904Y-95067380D02*
X133881904Y-94067380D01*
X134262857Y-94067380D01*
X134358095Y-94115000D01*
X134405714Y-94162619D01*
X134453333Y-94257857D01*
X134453333Y-94400714D01*
X134405714Y-94495952D01*
X134358095Y-94543571D01*
X134262857Y-94591190D01*
X133881904Y-94591190D01*
X134834285Y-94162619D02*
X134881904Y-94115000D01*
X134977142Y-94067380D01*
X135215238Y-94067380D01*
X135310476Y-94115000D01*
X135358095Y-94162619D01*
X135405714Y-94257857D01*
X135405714Y-94353095D01*
X135358095Y-94495952D01*
X134786666Y-95067380D01*
X135405714Y-95067380D01*
X134453333Y-91257380D02*
X134120000Y-90781190D01*
X133881904Y-91257380D02*
X133881904Y-90257380D01*
X134262857Y-90257380D01*
X134358095Y-90305000D01*
X134405714Y-90352619D01*
X134453333Y-90447857D01*
X134453333Y-90590714D01*
X134405714Y-90685952D01*
X134358095Y-90733571D01*
X134262857Y-90781190D01*
X133881904Y-90781190D01*
X135405714Y-91257380D02*
X134834285Y-91257380D01*
X135120000Y-91257380D02*
X135120000Y-90257380D01*
X135024761Y-90400238D01*
X134929523Y-90495476D01*
X134834285Y-90543095D01*
X137652380Y-73993333D02*
X138366666Y-73993333D01*
X138509523Y-74040952D01*
X138604761Y-74136190D01*
X138652380Y-74279047D01*
X138652380Y-74374285D01*
X137652380Y-73040952D02*
X137652380Y-73517142D01*
X138128571Y-73564761D01*
X138080952Y-73517142D01*
X138033333Y-73421904D01*
X138033333Y-73183809D01*
X138080952Y-73088571D01*
X138128571Y-73040952D01*
X138223809Y-72993333D01*
X138461904Y-72993333D01*
X138557142Y-73040952D01*
X138604761Y-73088571D01*
X138652380Y-73183809D01*
X138652380Y-73421904D01*
X138604761Y-73517142D01*
X138557142Y-73564761D01*
X126096666Y-67167380D02*
X126096666Y-67881666D01*
X126049047Y-68024523D01*
X125953809Y-68119761D01*
X125810952Y-68167380D01*
X125715714Y-68167380D01*
X127001428Y-67500714D02*
X127001428Y-68167380D01*
X126763333Y-67119761D02*
X126525238Y-67834047D01*
X127144285Y-67834047D01*
X133881904Y-96972380D02*
X133881904Y-95972380D01*
X134120000Y-95972380D01*
X134262857Y-96020000D01*
X134358095Y-96115238D01*
X134405714Y-96210476D01*
X134453333Y-96400952D01*
X134453333Y-96543809D01*
X134405714Y-96734285D01*
X134358095Y-96829523D01*
X134262857Y-96924761D01*
X134120000Y-96972380D01*
X133881904Y-96972380D01*
X134786666Y-95972380D02*
X135405714Y-95972380D01*
X135072380Y-96353333D01*
X135215238Y-96353333D01*
X135310476Y-96400952D01*
X135358095Y-96448571D01*
X135405714Y-96543809D01*
X135405714Y-96781904D01*
X135358095Y-96877142D01*
X135310476Y-96924761D01*
X135215238Y-96972380D01*
X134929523Y-96972380D01*
X134834285Y-96924761D01*
X134786666Y-96877142D01*
X133881904Y-89352380D02*
X133881904Y-88352380D01*
X134120000Y-88352380D01*
X134262857Y-88400000D01*
X134358095Y-88495238D01*
X134405714Y-88590476D01*
X134453333Y-88780952D01*
X134453333Y-88923809D01*
X134405714Y-89114285D01*
X134358095Y-89209523D01*
X134262857Y-89304761D01*
X134120000Y-89352380D01*
X133881904Y-89352380D01*
X134834285Y-88447619D02*
X134881904Y-88400000D01*
X134977142Y-88352380D01*
X135215238Y-88352380D01*
X135310476Y-88400000D01*
X135358095Y-88447619D01*
X135405714Y-88542857D01*
X135405714Y-88638095D01*
X135358095Y-88780952D01*
X134786666Y-89352380D01*
X135405714Y-89352380D01*
X133881904Y-93162380D02*
X133881904Y-92162380D01*
X134120000Y-92162380D01*
X134262857Y-92210000D01*
X134358095Y-92305238D01*
X134405714Y-92400476D01*
X134453333Y-92590952D01*
X134453333Y-92733809D01*
X134405714Y-92924285D01*
X134358095Y-93019523D01*
X134262857Y-93114761D01*
X134120000Y-93162380D01*
X133881904Y-93162380D01*
X135405714Y-93162380D02*
X134834285Y-93162380D01*
X135120000Y-93162380D02*
X135120000Y-92162380D01*
X135024761Y-92305238D01*
X134929523Y-92400476D01*
X134834285Y-92448095D01*
X151288809Y-91416190D02*
X151288809Y-91892380D01*
X150955476Y-90892380D02*
X151288809Y-91416190D01*
X151622142Y-90892380D01*
X152479285Y-91892380D02*
X151907857Y-91892380D01*
X152193571Y-91892380D02*
X152193571Y-90892380D01*
X152098333Y-91035238D01*
X152003095Y-91130476D01*
X151907857Y-91178095D01*
X151122142Y-97987380D02*
X150788809Y-97511190D01*
X150550714Y-97987380D02*
X150550714Y-96987380D01*
X150931666Y-96987380D01*
X151026904Y-97035000D01*
X151074523Y-97082619D01*
X151122142Y-97177857D01*
X151122142Y-97320714D01*
X151074523Y-97415952D01*
X151026904Y-97463571D01*
X150931666Y-97511190D01*
X150550714Y-97511190D01*
X152074523Y-97987380D02*
X151503095Y-97987380D01*
X151788809Y-97987380D02*
X151788809Y-96987380D01*
X151693571Y-97130238D01*
X151598333Y-97225476D01*
X151503095Y-97273095D01*
X152407857Y-96987380D02*
X153074523Y-96987380D01*
X152645952Y-97987380D01*
X147543333Y-97892142D02*
X147495714Y-97939761D01*
X147352857Y-97987380D01*
X147257619Y-97987380D01*
X147114761Y-97939761D01*
X147019523Y-97844523D01*
X146971904Y-97749285D01*
X146924285Y-97558809D01*
X146924285Y-97415952D01*
X146971904Y-97225476D01*
X147019523Y-97130238D01*
X147114761Y-97035000D01*
X147257619Y-96987380D01*
X147352857Y-96987380D01*
X147495714Y-97035000D01*
X147543333Y-97082619D01*
X148448095Y-96987380D02*
X147971904Y-96987380D01*
X147924285Y-97463571D01*
X147971904Y-97415952D01*
X148067142Y-97368333D01*
X148305238Y-97368333D01*
X148400476Y-97415952D01*
X148448095Y-97463571D01*
X148495714Y-97558809D01*
X148495714Y-97796904D01*
X148448095Y-97892142D01*
X148400476Y-97939761D01*
X148305238Y-97987380D01*
X148067142Y-97987380D01*
X147971904Y-97939761D01*
X147924285Y-97892142D01*
X156043333Y-97893142D02*
X155995714Y-97940761D01*
X155852857Y-97988380D01*
X155757619Y-97988380D01*
X155614761Y-97940761D01*
X155519523Y-97845523D01*
X155471904Y-97750285D01*
X155424285Y-97559809D01*
X155424285Y-97416952D01*
X155471904Y-97226476D01*
X155519523Y-97131238D01*
X155614761Y-97036000D01*
X155757619Y-96988380D01*
X155852857Y-96988380D01*
X155995714Y-97036000D01*
X156043333Y-97083619D01*
X156900476Y-97321714D02*
X156900476Y-97988380D01*
X156662380Y-96940761D02*
X156424285Y-97655047D01*
X157043333Y-97655047D01*
D16*
X148367991Y-76160778D02*
X148367991Y-76679876D01*
X148398527Y-76740946D01*
X148429062Y-76771482D01*
X148490132Y-76802017D01*
X148612273Y-76802017D01*
X148673343Y-76771482D01*
X148703879Y-76740946D01*
X148734414Y-76679876D01*
X148734414Y-76160778D01*
X149345118Y-76160778D02*
X149039766Y-76160778D01*
X149009230Y-76466130D01*
X149039766Y-76435595D01*
X149100836Y-76405059D01*
X149253512Y-76405059D01*
X149314582Y-76435595D01*
X149345118Y-76466130D01*
X149375653Y-76527200D01*
X149375653Y-76679876D01*
X149345118Y-76740946D01*
X149314582Y-76771482D01*
X149253512Y-76802017D01*
X149100836Y-76802017D01*
X149039766Y-76771482D01*
X149009230Y-76740946D01*
D15*
X163056666Y-97654761D02*
X163199523Y-97702380D01*
X163437619Y-97702380D01*
X163532857Y-97654761D01*
X163580476Y-97607142D01*
X163628095Y-97511904D01*
X163628095Y-97416666D01*
X163580476Y-97321428D01*
X163532857Y-97273809D01*
X163437619Y-97226190D01*
X163247142Y-97178571D01*
X163151904Y-97130952D01*
X163104285Y-97083333D01*
X163056666Y-96988095D01*
X163056666Y-96892857D01*
X163104285Y-96797619D01*
X163151904Y-96750000D01*
X163247142Y-96702380D01*
X163485238Y-96702380D01*
X163628095Y-96750000D01*
X163961428Y-96702380D02*
X164199523Y-97702380D01*
X164390000Y-96988095D01*
X164580476Y-97702380D01*
X164818571Y-96702380D01*
X165723333Y-97702380D02*
X165151904Y-97702380D01*
X165437619Y-97702380D02*
X165437619Y-96702380D01*
X165342380Y-96845238D01*
X165247142Y-96940476D01*
X165151904Y-96988095D01*
X165552380Y-70524666D02*
X165076190Y-70858000D01*
X165552380Y-71096095D02*
X164552380Y-71096095D01*
X164552380Y-70715142D01*
X164600000Y-70619904D01*
X164647619Y-70572285D01*
X164742857Y-70524666D01*
X164885714Y-70524666D01*
X164980952Y-70572285D01*
X165028571Y-70619904D01*
X165076190Y-70715142D01*
X165076190Y-71096095D01*
X164885714Y-69667523D02*
X165552380Y-69667523D01*
X164504761Y-69905619D02*
X165219047Y-70143714D01*
X165219047Y-69524666D01*
X167584380Y-70524666D02*
X167108190Y-70858000D01*
X167584380Y-71096095D02*
X166584380Y-71096095D01*
X166584380Y-70715142D01*
X166632000Y-70619904D01*
X166679619Y-70572285D01*
X166774857Y-70524666D01*
X166917714Y-70524666D01*
X167012952Y-70572285D01*
X167060571Y-70619904D01*
X167108190Y-70715142D01*
X167108190Y-71096095D01*
X166584380Y-70191333D02*
X166584380Y-69572285D01*
X166965333Y-69905619D01*
X166965333Y-69762761D01*
X167012952Y-69667523D01*
X167060571Y-69619904D01*
X167155809Y-69572285D01*
X167393904Y-69572285D01*
X167489142Y-69619904D01*
X167536761Y-69667523D01*
X167584380Y-69762761D01*
X167584380Y-70048476D01*
X167536761Y-70143714D01*
X167489142Y-70191333D01*
X160242380Y-84502380D02*
X159242380Y-84502380D01*
X160147142Y-83454761D02*
X160194761Y-83502380D01*
X160242380Y-83645238D01*
X160242380Y-83740476D01*
X160194761Y-83883333D01*
X160099523Y-83978571D01*
X160004285Y-84026190D01*
X159813809Y-84073809D01*
X159670952Y-84073809D01*
X159480476Y-84026190D01*
X159385238Y-83978571D01*
X159290000Y-83883333D01*
X159242380Y-83740476D01*
X159242380Y-83645238D01*
X159290000Y-83502380D01*
X159337619Y-83454761D01*
X160194761Y-83073809D02*
X160242380Y-82930952D01*
X160242380Y-82692857D01*
X160194761Y-82597619D01*
X160147142Y-82550000D01*
X160051904Y-82502380D01*
X159956666Y-82502380D01*
X159861428Y-82550000D01*
X159813809Y-82597619D01*
X159766190Y-82692857D01*
X159718571Y-82883333D01*
X159670952Y-82978571D01*
X159623333Y-83026190D01*
X159528095Y-83073809D01*
X159432857Y-83073809D01*
X159337619Y-83026190D01*
X159290000Y-82978571D01*
X159242380Y-82883333D01*
X159242380Y-82645238D01*
X159290000Y-82502380D01*
X160242380Y-82073809D02*
X159242380Y-82073809D01*
X159242380Y-81692857D01*
X159290000Y-81597619D01*
X159337619Y-81550000D01*
X159432857Y-81502380D01*
X159575714Y-81502380D01*
X159670952Y-81550000D01*
X159718571Y-81597619D01*
X159766190Y-81692857D01*
X159766190Y-82073809D01*
X159337619Y-81121428D02*
X159290000Y-81073809D01*
X159242380Y-80978571D01*
X159242380Y-80740476D01*
X159290000Y-80645238D01*
X159337619Y-80597619D01*
X159432857Y-80550000D01*
X159528095Y-80550000D01*
X159670952Y-80597619D01*
X160242380Y-81169047D01*
X160242380Y-80550000D01*
X169267142Y-70524666D02*
X169314761Y-70572285D01*
X169362380Y-70715142D01*
X169362380Y-70810380D01*
X169314761Y-70953238D01*
X169219523Y-71048476D01*
X169124285Y-71096095D01*
X168933809Y-71143714D01*
X168790952Y-71143714D01*
X168600476Y-71096095D01*
X168505238Y-71048476D01*
X168410000Y-70953238D01*
X168362380Y-70810380D01*
X168362380Y-70715142D01*
X168410000Y-70572285D01*
X168457619Y-70524666D01*
X168362380Y-69667523D02*
X168362380Y-69858000D01*
X168410000Y-69953238D01*
X168457619Y-70000857D01*
X168600476Y-70096095D01*
X168790952Y-70143714D01*
X169171904Y-70143714D01*
X169267142Y-70096095D01*
X169314761Y-70048476D01*
X169362380Y-69953238D01*
X169362380Y-69762761D01*
X169314761Y-69667523D01*
X169267142Y-69619904D01*
X169171904Y-69572285D01*
X168933809Y-69572285D01*
X168838571Y-69619904D01*
X168790952Y-69667523D01*
X168743333Y-69762761D01*
X168743333Y-69953238D01*
X168790952Y-70048476D01*
X168838571Y-70096095D01*
X168933809Y-70143714D01*
D16*
X179577843Y-68032199D02*
X179577843Y-68841991D01*
X179625477Y-68937261D01*
X179673112Y-68984895D01*
X179768382Y-69032530D01*
X179958921Y-69032530D01*
X180054191Y-68984895D01*
X180101825Y-68937261D01*
X180149460Y-68841991D01*
X180149460Y-68032199D01*
X181149791Y-69032530D02*
X180578174Y-69032530D01*
X180863982Y-69032530D02*
X180863982Y-68032199D01*
X180768713Y-68175104D01*
X180673443Y-68270373D01*
X180578174Y-68318008D01*
X175822374Y-66997293D02*
X175852900Y-66966767D01*
X175913952Y-66936241D01*
X176066582Y-66936241D01*
X176127634Y-66966767D01*
X176158160Y-66997293D01*
X176188686Y-67058345D01*
X176188686Y-67119397D01*
X176158160Y-67210975D01*
X175791848Y-67577287D01*
X176188686Y-67577287D01*
X176198249Y-65411876D02*
X175831950Y-65411876D01*
X176015100Y-65411876D02*
X176015100Y-64770854D01*
X175954050Y-64862428D01*
X175893000Y-64923478D01*
X175831950Y-64954003D01*
X183003047Y-70348618D02*
X183003047Y-70775468D01*
X182850600Y-70104703D02*
X182698154Y-70562043D01*
X183094515Y-70562043D01*
X175808488Y-69250349D02*
X176204694Y-69250349D01*
X175991352Y-69494169D01*
X176082784Y-69494169D01*
X176143739Y-69524646D01*
X176174217Y-69555123D01*
X176204694Y-69616078D01*
X176204694Y-69768465D01*
X176174217Y-69829420D01*
X176143739Y-69859898D01*
X176082784Y-69890375D01*
X175899920Y-69890375D01*
X175838965Y-69859898D01*
X175808488Y-69829420D01*
D15*
X166997142Y-75636380D02*
X166663809Y-75160190D01*
X166425714Y-75636380D02*
X166425714Y-74636380D01*
X166806666Y-74636380D01*
X166901904Y-74684000D01*
X166949523Y-74731619D01*
X166997142Y-74826857D01*
X166997142Y-74969714D01*
X166949523Y-75064952D01*
X166901904Y-75112571D01*
X166806666Y-75160190D01*
X166425714Y-75160190D01*
X167949523Y-75636380D02*
X167378095Y-75636380D01*
X167663809Y-75636380D02*
X167663809Y-74636380D01*
X167568571Y-74779238D01*
X167473333Y-74874476D01*
X167378095Y-74922095D01*
X168806666Y-74636380D02*
X168616190Y-74636380D01*
X168520952Y-74684000D01*
X168473333Y-74731619D01*
X168378095Y-74874476D01*
X168330476Y-75064952D01*
X168330476Y-75445904D01*
X168378095Y-75541142D01*
X168425714Y-75588761D01*
X168520952Y-75636380D01*
X168711428Y-75636380D01*
X168806666Y-75588761D01*
X168854285Y-75541142D01*
X168901904Y-75445904D01*
X168901904Y-75207809D01*
X168854285Y-75112571D01*
X168806666Y-75064952D01*
X168711428Y-75017333D01*
X168520952Y-75017333D01*
X168425714Y-75064952D01*
X168378095Y-75112571D01*
X168330476Y-75207809D01*
X171332380Y-93923333D02*
X172046666Y-93923333D01*
X172189523Y-93970952D01*
X172284761Y-94066190D01*
X172332380Y-94209047D01*
X172332380Y-94304285D01*
X171427619Y-93494761D02*
X171380000Y-93447142D01*
X171332380Y-93351904D01*
X171332380Y-93113809D01*
X171380000Y-93018571D01*
X171427619Y-92970952D01*
X171522857Y-92923333D01*
X171618095Y-92923333D01*
X171760952Y-92970952D01*
X172332380Y-93542380D01*
X172332380Y-92923333D01*
X171332380Y-87963333D02*
X172046666Y-87963333D01*
X172189523Y-88010952D01*
X172284761Y-88106190D01*
X172332380Y-88249047D01*
X172332380Y-88344285D01*
X172332380Y-86963333D02*
X172332380Y-87534761D01*
X172332380Y-87249047D02*
X171332380Y-87249047D01*
X171475238Y-87344285D01*
X171570476Y-87439523D01*
X171618095Y-87534761D01*
X171299142Y-71381857D02*
X171346761Y-71429476D01*
X171394380Y-71572333D01*
X171394380Y-71667571D01*
X171346761Y-71810428D01*
X171251523Y-71905666D01*
X171156285Y-71953285D01*
X170965809Y-72000904D01*
X170822952Y-72000904D01*
X170632476Y-71953285D01*
X170537238Y-71905666D01*
X170442000Y-71810428D01*
X170394380Y-71667571D01*
X170394380Y-71572333D01*
X170442000Y-71429476D01*
X170489619Y-71381857D01*
X171394380Y-70429476D02*
X171394380Y-71000904D01*
X171394380Y-70715190D02*
X170394380Y-70715190D01*
X170537238Y-70810428D01*
X170632476Y-70905666D01*
X170680095Y-71000904D01*
X170394380Y-69524714D02*
X170394380Y-70000904D01*
X170870571Y-70048523D01*
X170822952Y-70000904D01*
X170775333Y-69905666D01*
X170775333Y-69667571D01*
X170822952Y-69572333D01*
X170870571Y-69524714D01*
X170965809Y-69477095D01*
X171203904Y-69477095D01*
X171299142Y-69524714D01*
X171346761Y-69572333D01*
X171394380Y-69667571D01*
X171394380Y-69905666D01*
X171346761Y-70000904D01*
X171299142Y-70048523D01*
X173077142Y-70397666D02*
X173124761Y-70445285D01*
X173172380Y-70588142D01*
X173172380Y-70683380D01*
X173124761Y-70826238D01*
X173029523Y-70921476D01*
X172934285Y-70969095D01*
X172743809Y-71016714D01*
X172600952Y-71016714D01*
X172410476Y-70969095D01*
X172315238Y-70921476D01*
X172220000Y-70826238D01*
X172172380Y-70683380D01*
X172172380Y-70588142D01*
X172220000Y-70445285D01*
X172267619Y-70397666D01*
X172172380Y-70064333D02*
X172172380Y-69445285D01*
X172553333Y-69778619D01*
X172553333Y-69635761D01*
X172600952Y-69540523D01*
X172648571Y-69492904D01*
X172743809Y-69445285D01*
X172981904Y-69445285D01*
X173077142Y-69492904D01*
X173124761Y-69540523D01*
X173172380Y-69635761D01*
X173172380Y-69921476D01*
X173124761Y-70016714D01*
X173077142Y-70064333D01*
X178697142Y-77636666D02*
X178744761Y-77684285D01*
X178792380Y-77827142D01*
X178792380Y-77922380D01*
X178744761Y-78065238D01*
X178649523Y-78160476D01*
X178554285Y-78208095D01*
X178363809Y-78255714D01*
X178220952Y-78255714D01*
X178030476Y-78208095D01*
X177935238Y-78160476D01*
X177840000Y-78065238D01*
X177792380Y-77922380D01*
X177792380Y-77827142D01*
X177840000Y-77684285D01*
X177887619Y-77636666D01*
X177887619Y-77255714D02*
X177840000Y-77208095D01*
X177792380Y-77112857D01*
X177792380Y-76874761D01*
X177840000Y-76779523D01*
X177887619Y-76731904D01*
X177982857Y-76684285D01*
X178078095Y-76684285D01*
X178220952Y-76731904D01*
X178792380Y-77303333D01*
X178792380Y-76684285D01*
X190127142Y-77636666D02*
X190174761Y-77684285D01*
X190222380Y-77827142D01*
X190222380Y-77922380D01*
X190174761Y-78065238D01*
X190079523Y-78160476D01*
X189984285Y-78208095D01*
X189793809Y-78255714D01*
X189650952Y-78255714D01*
X189460476Y-78208095D01*
X189365238Y-78160476D01*
X189270000Y-78065238D01*
X189222380Y-77922380D01*
X189222380Y-77827142D01*
X189270000Y-77684285D01*
X189317619Y-77636666D01*
X190222380Y-76684285D02*
X190222380Y-77255714D01*
X190222380Y-76970000D02*
X189222380Y-76970000D01*
X189365238Y-77065238D01*
X189460476Y-77160476D01*
X189508095Y-77255714D01*
M02*
